%TF.GenerationSoftware,KiCad,Pcbnew,9.0.1*%
%TF.CreationDate,2025-04-25T09:38:52-03:00*%
%TF.ProjectId,A-NET,412d4e45-542e-46b6-9963-61645f706362,rev?*%
%TF.SameCoordinates,Original*%
%TF.FileFunction,Copper,L1,Top*%
%TF.FilePolarity,Positive*%
%FSLAX46Y46*%
G04 Gerber Fmt 4.6, Leading zero omitted, Abs format (unit mm)*
G04 Created by KiCad (PCBNEW 9.0.1) date 2025-04-25 09:38:52*
%MOMM*%
%LPD*%
G01*
G04 APERTURE LIST*
G04 Aperture macros list*
%AMRoundRect*
0 Rectangle with rounded corners*
0 $1 Rounding radius*
0 $2 $3 $4 $5 $6 $7 $8 $9 X,Y pos of 4 corners*
0 Add a 4 corners polygon primitive as box body*
4,1,4,$2,$3,$4,$5,$6,$7,$8,$9,$2,$3,0*
0 Add four circle primitives for the rounded corners*
1,1,$1+$1,$2,$3*
1,1,$1+$1,$4,$5*
1,1,$1+$1,$6,$7*
1,1,$1+$1,$8,$9*
0 Add four rect primitives between the rounded corners*
20,1,$1+$1,$2,$3,$4,$5,0*
20,1,$1+$1,$4,$5,$6,$7,0*
20,1,$1+$1,$6,$7,$8,$9,0*
20,1,$1+$1,$8,$9,$2,$3,0*%
G04 Aperture macros list end*
%TA.AperFunction,SMDPad,CuDef*%
%ADD10RoundRect,0.225000X0.225000X0.250000X-0.225000X0.250000X-0.225000X-0.250000X0.225000X-0.250000X0*%
%TD*%
%TA.AperFunction,SMDPad,CuDef*%
%ADD11RoundRect,0.218750X0.218750X0.256250X-0.218750X0.256250X-0.218750X-0.256250X0.218750X-0.256250X0*%
%TD*%
%TA.AperFunction,SMDPad,CuDef*%
%ADD12RoundRect,0.218750X-0.218750X-0.256250X0.218750X-0.256250X0.218750X0.256250X-0.218750X0.256250X0*%
%TD*%
%TA.AperFunction,SMDPad,CuDef*%
%ADD13RoundRect,0.225000X0.250000X-0.225000X0.250000X0.225000X-0.250000X0.225000X-0.250000X-0.225000X0*%
%TD*%
%TA.AperFunction,SMDPad,CuDef*%
%ADD14RoundRect,0.250000X-0.300000X0.300000X-0.300000X-0.300000X0.300000X-0.300000X0.300000X0.300000X0*%
%TD*%
%TA.AperFunction,SMDPad,CuDef*%
%ADD15RoundRect,0.200000X0.200000X0.275000X-0.200000X0.275000X-0.200000X-0.275000X0.200000X-0.275000X0*%
%TD*%
%TA.AperFunction,SMDPad,CuDef*%
%ADD16RoundRect,0.200000X-0.200000X-0.275000X0.200000X-0.275000X0.200000X0.275000X-0.200000X0.275000X0*%
%TD*%
%TA.AperFunction,SMDPad,CuDef*%
%ADD17RoundRect,0.200000X-0.275000X0.200000X-0.275000X-0.200000X0.275000X-0.200000X0.275000X0.200000X0*%
%TD*%
%TA.AperFunction,ComponentPad*%
%ADD18R,1.700000X1.700000*%
%TD*%
%TA.AperFunction,ComponentPad*%
%ADD19O,1.700000X1.700000*%
%TD*%
%TA.AperFunction,SMDPad,CuDef*%
%ADD20RoundRect,0.225000X-0.225000X-0.250000X0.225000X-0.250000X0.225000X0.250000X-0.225000X0.250000X0*%
%TD*%
%TA.AperFunction,SMDPad,CuDef*%
%ADD21R,1.100000X3.700000*%
%TD*%
%TA.AperFunction,SMDPad,CuDef*%
%ADD22RoundRect,0.237500X0.250000X0.237500X-0.250000X0.237500X-0.250000X-0.237500X0.250000X-0.237500X0*%
%TD*%
%TA.AperFunction,SMDPad,CuDef*%
%ADD23RoundRect,0.237500X0.237500X-0.287500X0.237500X0.287500X-0.237500X0.287500X-0.237500X-0.287500X0*%
%TD*%
%TA.AperFunction,SMDPad,CuDef*%
%ADD24R,1.000000X0.750000*%
%TD*%
%TA.AperFunction,SMDPad,CuDef*%
%ADD25RoundRect,0.237500X-0.250000X-0.237500X0.250000X-0.237500X0.250000X0.237500X-0.250000X0.237500X0*%
%TD*%
%TA.AperFunction,ComponentPad*%
%ADD26C,1.397000*%
%TD*%
%TA.AperFunction,ComponentPad*%
%ADD27C,2.209800*%
%TD*%
%TA.AperFunction,SMDPad,CuDef*%
%ADD28RoundRect,0.225000X-0.250000X0.225000X-0.250000X-0.225000X0.250000X-0.225000X0.250000X0.225000X0*%
%TD*%
%TA.AperFunction,SMDPad,CuDef*%
%ADD29R,1.200000X1.200000*%
%TD*%
%TA.AperFunction,SMDPad,CuDef*%
%ADD30RoundRect,0.200000X0.275000X-0.200000X0.275000X0.200000X-0.275000X0.200000X-0.275000X-0.200000X0*%
%TD*%
%TA.AperFunction,SMDPad,CuDef*%
%ADD31RoundRect,0.147500X-0.147500X-0.172500X0.147500X-0.172500X0.147500X0.172500X-0.147500X0.172500X0*%
%TD*%
%TA.AperFunction,SMDPad,CuDef*%
%ADD32R,1.200000X1.400000*%
%TD*%
%TA.AperFunction,SMDPad,CuDef*%
%ADD33RoundRect,0.100000X0.100000X-0.225000X0.100000X0.225000X-0.100000X0.225000X-0.100000X-0.225000X0*%
%TD*%
%TA.AperFunction,ComponentPad*%
%ADD34R,2.500000X2.500000*%
%TD*%
%TA.AperFunction,ComponentPad*%
%ADD35C,2.500000*%
%TD*%
%TA.AperFunction,SMDPad,CuDef*%
%ADD36RoundRect,0.237500X-0.300000X-0.237500X0.300000X-0.237500X0.300000X0.237500X-0.300000X0.237500X0*%
%TD*%
%TA.AperFunction,SMDPad,CuDef*%
%ADD37R,1.450000X0.600000*%
%TD*%
%TA.AperFunction,SMDPad,CuDef*%
%ADD38R,1.450000X0.300000*%
%TD*%
%TA.AperFunction,ComponentPad*%
%ADD39O,2.100000X1.000000*%
%TD*%
%TA.AperFunction,ComponentPad*%
%ADD40O,1.600000X1.000000*%
%TD*%
%TA.AperFunction,SMDPad,CuDef*%
%ADD41R,0.900000X1.500000*%
%TD*%
%TA.AperFunction,SMDPad,CuDef*%
%ADD42R,1.500000X0.900000*%
%TD*%
%TA.AperFunction,HeatsinkPad*%
%ADD43C,1.000000*%
%TD*%
%TA.AperFunction,HeatsinkPad*%
%ADD44C,0.600000*%
%TD*%
%TA.AperFunction,SMDPad,CuDef*%
%ADD45R,3.900000X3.900000*%
%TD*%
%TA.AperFunction,SMDPad,CuDef*%
%ADD46RoundRect,0.135000X0.135000X0.185000X-0.135000X0.185000X-0.135000X-0.185000X0.135000X-0.185000X0*%
%TD*%
%TA.AperFunction,SMDPad,CuDef*%
%ADD47RoundRect,0.250000X0.250000X0.250000X-0.250000X0.250000X-0.250000X-0.250000X0.250000X-0.250000X0*%
%TD*%
%TA.AperFunction,SMDPad,CuDef*%
%ADD48R,1.100000X0.285000*%
%TD*%
%TA.AperFunction,SMDPad,CuDef*%
%ADD49R,0.285000X1.100000*%
%TD*%
%TA.AperFunction,SMDPad,CuDef*%
%ADD50R,0.280000X1.100000*%
%TD*%
%TA.AperFunction,SMDPad,CuDef*%
%ADD51R,0.228600X0.609600*%
%TD*%
%TA.AperFunction,ComponentPad*%
%ADD52R,2.000000X2.000000*%
%TD*%
%TA.AperFunction,ComponentPad*%
%ADD53O,2.000000X2.200000*%
%TD*%
%TA.AperFunction,ViaPad*%
%ADD54C,1.000000*%
%TD*%
%TA.AperFunction,ViaPad*%
%ADD55C,3.100000*%
%TD*%
%TA.AperFunction,ViaPad*%
%ADD56C,0.900000*%
%TD*%
%TA.AperFunction,ViaPad*%
%ADD57C,0.800000*%
%TD*%
%TA.AperFunction,ViaPad*%
%ADD58C,1.300000*%
%TD*%
%TA.AperFunction,Conductor*%
%ADD59C,0.500000*%
%TD*%
%TA.AperFunction,Conductor*%
%ADD60C,0.650000*%
%TD*%
%TA.AperFunction,Conductor*%
%ADD61C,0.300000*%
%TD*%
%TA.AperFunction,Conductor*%
%ADD62C,1.000000*%
%TD*%
%TA.AperFunction,Conductor*%
%ADD63C,0.450000*%
%TD*%
%TA.AperFunction,Conductor*%
%ADD64C,0.600000*%
%TD*%
%TA.AperFunction,Conductor*%
%ADD65C,0.750000*%
%TD*%
%TA.AperFunction,Conductor*%
%ADD66C,0.250000*%
%TD*%
%TA.AperFunction,Conductor*%
%ADD67C,0.800000*%
%TD*%
%TA.AperFunction,Conductor*%
%ADD68C,1.200000*%
%TD*%
%TA.AperFunction,Conductor*%
%ADD69C,0.400000*%
%TD*%
%TA.AperFunction,Conductor*%
%ADD70C,0.700000*%
%TD*%
G04 APERTURE END LIST*
D10*
%TO.P,C10,1*%
%TO.N,VBAT*%
X175975000Y-79500000D03*
%TO.P,C10,2*%
%TO.N,GND*%
X174425000Y-79500000D03*
%TD*%
D11*
%TO.P,FB1,1,P$1*%
%TO.N,+3V3*%
X123886270Y-107475000D03*
%TO.P,FB1,2,P$2*%
%TO.N,AVDD*%
X122311270Y-107475000D03*
%TD*%
D12*
%TO.P,D4,1,K*%
%TO.N,GND*%
X172187500Y-88275000D03*
%TO.P,D4,2,A*%
%TO.N,Net-(D4-A)*%
X173762500Y-88275000D03*
%TD*%
D13*
%TO.P,C21,1,1*%
%TO.N,AVDD*%
X128098770Y-118000000D03*
%TO.P,C21,2,2*%
%TO.N,AGND*%
X128098770Y-116450000D03*
%TD*%
D14*
%TO.P,D1,1,K*%
%TO.N,+3V3*%
X138525000Y-85400000D03*
%TO.P,D1,2,A*%
%TO.N,+5V*%
X138525000Y-88200000D03*
%TD*%
D15*
%TO.P,R4,1*%
%TO.N,Net-(U1-PG)*%
X173805000Y-91380000D03*
%TO.P,R4,2*%
%TO.N,+3V3*%
X172155000Y-91380000D03*
%TD*%
D16*
%TO.P,R27,1,1*%
%TO.N,/Ethernet/TX+*%
X115050744Y-109007000D03*
%TO.P,R27,2,2*%
%TO.N,AVDD*%
X116700744Y-109007000D03*
%TD*%
D17*
%TO.P,R22,1,1*%
%TO.N,+3V3*%
X132498770Y-104675000D03*
%TO.P,R22,2,2*%
%TO.N,Net-(SJ2-A)*%
X132498770Y-106325000D03*
%TD*%
D10*
%TO.P,C18,1,1*%
%TO.N,Net-(U$1-TOCAP)*%
X133348770Y-119650000D03*
%TO.P,C18,2,2*%
%TO.N,AGND*%
X131798770Y-119650000D03*
%TD*%
D18*
%TO.P,J10,1,Pin_1*%
%TO.N,+3V3*%
X100500000Y-86675000D03*
D19*
%TO.P,J10,2,Pin_2*%
X103040000Y-86675000D03*
%TO.P,J10,3,Pin_3*%
X105580000Y-86675000D03*
%TO.P,J10,4,Pin_4*%
X108120000Y-86675000D03*
%TO.P,J10,5,Pin_5*%
X110660000Y-86675000D03*
%TO.P,J10,6,Pin_6*%
X113200000Y-86675000D03*
%TO.P,J10,7,Pin_7*%
X115740000Y-86675000D03*
%TO.P,J10,8,Pin_8*%
X118280000Y-86675000D03*
%TD*%
D20*
%TO.P,C1,1*%
%TO.N,VBAT*%
X178700000Y-83725000D03*
%TO.P,C1,2*%
%TO.N,GND*%
X180250000Y-83725000D03*
%TD*%
D21*
%TO.P,L1,1,1*%
%TO.N,Net-(U1-SW)*%
X176625000Y-84625000D03*
%TO.P,L1,2,2*%
%TO.N,+3V3*%
X173625000Y-84625000D03*
%TD*%
D17*
%TO.P,R15,1,1*%
%TO.N,Net-(U$1-XO)*%
X144320000Y-112725000D03*
%TO.P,R15,2,2*%
%TO.N,Net-(U$1-XI{slash}CLKIN)*%
X144320000Y-114375000D03*
%TD*%
D20*
%TO.P,C13,1,1*%
%TO.N,Net-(U$1-XO)*%
X146505000Y-109890000D03*
%TO.P,C13,2,2*%
%TO.N,GND*%
X148055000Y-109890000D03*
%TD*%
D22*
%TO.P,R30,1*%
%TO.N,/Archi/RUN*%
X154387500Y-83275000D03*
%TO.P,R30,2*%
%TO.N,+3V3*%
X152562500Y-83275000D03*
%TD*%
D20*
%TO.P,C24,1,1*%
%TO.N,Net-(J3-TCT)*%
X115100744Y-112107000D03*
%TO.P,C24,2,2*%
%TO.N,AGND*%
X116650744Y-112107000D03*
%TD*%
D23*
%TO.P,D10,1,K*%
%TO.N,Net-(D10-K)*%
X137850000Y-122325000D03*
%TO.P,D10,2,A*%
%TO.N,+3V3*%
X137850000Y-120575000D03*
%TD*%
D20*
%TO.P,C2,1*%
%TO.N,VBAT*%
X178725000Y-85425000D03*
%TO.P,C2,2*%
%TO.N,GND*%
X180275000Y-85425000D03*
%TD*%
D18*
%TO.P,J9,1,Pin_1*%
%TO.N,+5V*%
X100500000Y-90400000D03*
D19*
%TO.P,J9,2,Pin_2*%
X103040000Y-90400000D03*
%TO.P,J9,3,Pin_3*%
X105580000Y-90400000D03*
%TO.P,J9,4,Pin_4*%
X108120000Y-90400000D03*
%TO.P,J9,5,Pin_5*%
X110660000Y-90400000D03*
%TO.P,J9,6,Pin_6*%
X113200000Y-90400000D03*
%TO.P,J9,7,Pin_7*%
X115740000Y-90400000D03*
%TO.P,J9,8,Pin_8*%
X118280000Y-90400000D03*
%TD*%
D24*
%TO.P,U5,1*%
%TO.N,/Archi/RUN*%
X150975000Y-87225000D03*
X144975000Y-87225000D03*
%TO.P,U5,2*%
%TO.N,GND*%
X150975000Y-83475000D03*
X144975000Y-83475000D03*
%TD*%
D25*
%TO.P,R10,1*%
%TO.N,/MCU-WiFi/CHIP_PU*%
X185961270Y-124575000D03*
%TO.P,R10,2*%
%TO.N,+3V3*%
X187786270Y-124575000D03*
%TD*%
D20*
%TO.P,C27,1,1*%
%TO.N,Net-(J3-RD-)*%
X115075744Y-119982000D03*
%TO.P,C27,2,2*%
%TO.N,/Ethernet/RX-*%
X116625744Y-119982000D03*
%TD*%
D15*
%TO.P,R24,1,1*%
%TO.N,Net-(U$1-EXRES1)*%
X127348770Y-114575000D03*
%TO.P,R24,2,2*%
%TO.N,AGND*%
X125698770Y-114575000D03*
%TD*%
D26*
%TO.P,J3,1,TD+*%
%TO.N,/Ethernet/TX+*%
X109675000Y-109205000D03*
%TO.P,J3,2,TD-*%
%TO.N,/Ethernet/TX-*%
X112215000Y-110475000D03*
%TO.P,J3,3,RD+*%
%TO.N,Net-(J3-RD+)*%
X109675000Y-111745000D03*
%TO.P,J3,4,TCT*%
%TO.N,Net-(J3-TCT)*%
X112215000Y-113015000D03*
%TO.P,J3,5,RCT*%
%TO.N,Net-(J3-RCT)*%
X109675000Y-114285000D03*
%TO.P,J3,6,RD-*%
%TO.N,Net-(J3-RD-)*%
X112215000Y-115555000D03*
%TO.P,J3,7,NC*%
%TO.N,unconnected-(J3-NC-Pad7)*%
X109675000Y-116825000D03*
%TO.P,J3,8*%
%TO.N,GND*%
X112215000Y-118095000D03*
%TO.P,J3,9*%
%TO.N,+3V3*%
X99265000Y-106974999D03*
%TO.P,J3,10*%
%TO.N,/Ethernet/YELLOWLED*%
X99265064Y-109514999D03*
%TO.P,J3,11*%
%TO.N,/Ethernet/GREENLED*%
X99265064Y-117785001D03*
%TO.P,J3,12*%
%TO.N,+3V3*%
X99265000Y-120325001D03*
D27*
%TO.P,J3,13*%
%TO.N,N/C*%
X106374999Y-105800000D03*
%TO.P,J3,14*%
X106374999Y-121500000D03*
%TD*%
D13*
%TO.P,C22,1,1*%
%TO.N,AVDD*%
X121648770Y-117975000D03*
%TO.P,C22,2,2*%
%TO.N,AGND*%
X121648770Y-116425000D03*
%TD*%
D28*
%TO.P,C14,1,1*%
%TO.N,+3V3*%
X146449570Y-106743200D03*
%TO.P,C14,2,2*%
%TO.N,GND*%
X146449570Y-108293200D03*
%TD*%
D17*
%TO.P,R20,1*%
%TO.N,+3V3*%
X137559570Y-104839000D03*
%TO.P,R20,2*%
%TO.N,/Ethernet/RESET*%
X137559570Y-106489000D03*
%TD*%
D28*
%TO.P,C16,1,1*%
%TO.N,+3V3*%
X148151370Y-106768600D03*
%TO.P,C16,2,2*%
%TO.N,GND*%
X148151370Y-108318600D03*
%TD*%
D29*
%TO.P,D8,1,K*%
%TO.N,VBAT*%
X181526970Y-95018400D03*
%TO.P,D8,2,A*%
%TO.N,Net-(D5-A2)*%
X181526970Y-97818400D03*
%TD*%
D25*
%TO.P,R11,1*%
%TO.N,/MCU-WiFi/GPIO0*%
X177605472Y-124550000D03*
%TO.P,R11,2*%
%TO.N,+3V3*%
X179430472Y-124550000D03*
%TD*%
D20*
%TO.P,C26,1,1*%
%TO.N,Net-(J3-RCT)*%
X115100744Y-115232000D03*
%TO.P,C26,2,2*%
%TO.N,AGND*%
X116650744Y-115232000D03*
%TD*%
D22*
%TO.P,R7,1*%
%TO.N,/MCU-WiFi/CHIP_PU*%
X191753770Y-124550000D03*
%TO.P,R7,2*%
%TO.N,+3V3*%
X189928770Y-124550000D03*
%TD*%
D10*
%TO.P,C15,1,1*%
%TO.N,Net-(U$1-XI{slash}CLKIN)*%
X147891800Y-117779800D03*
%TO.P,C15,2,2*%
%TO.N,GND*%
X146341800Y-117779800D03*
%TD*%
D17*
%TO.P,R5,1*%
%TO.N,Net-(U1-FB)*%
X176961120Y-91317500D03*
%TO.P,R5,2*%
%TO.N,+3V3*%
X176961120Y-92967500D03*
%TD*%
D10*
%TO.P,C9,1*%
%TO.N,+3V3*%
X176973770Y-94525000D03*
%TO.P,C9,2*%
%TO.N,GND*%
X175423770Y-94525000D03*
%TD*%
D23*
%TO.P,D11,1,K*%
%TO.N,Net-(D11-K)*%
X139426230Y-122325000D03*
%TO.P,D11,2,A*%
%TO.N,+3V3*%
X139426230Y-120575000D03*
%TD*%
D13*
%TO.P,C20,1,1*%
%TO.N,AVDD*%
X123248770Y-117975000D03*
%TO.P,C20,2,2*%
%TO.N,AGND*%
X123248770Y-116425000D03*
%TD*%
D30*
%TO.P,R17,1,1*%
%TO.N,/Ethernet/INTN*%
X151808970Y-108292400D03*
%TO.P,R17,2,2*%
%TO.N,+3V3*%
X151808970Y-106642400D03*
%TD*%
D16*
%TO.P,R23,1,1*%
%TO.N,+3V3*%
X124123770Y-108825000D03*
%TO.P,R23,2,2*%
%TO.N,Net-(SJ3-A)*%
X125773770Y-108825000D03*
%TD*%
D31*
%TO.P,D6,1,A1*%
%TO.N,GND*%
X183225000Y-96180000D03*
%TO.P,D6,2,A2*%
%TO.N,/MCU-WiFi/D-*%
X184195000Y-96180000D03*
%TD*%
D32*
%TO.P,Y1,1,1*%
%TO.N,Net-(U$1-XO)*%
X146329400Y-111687200D03*
%TO.P,Y1,2,2*%
%TO.N,GND*%
X146329400Y-115187200D03*
%TO.P,Y1,3*%
%TO.N,Net-(U$1-XI{slash}CLKIN)*%
X148129400Y-115187200D03*
%TO.P,Y1,4*%
%TO.N,GND*%
X148129400Y-111687200D03*
%TD*%
D30*
%TO.P,R16,1,1*%
%TO.N,/Ethernet/CS*%
X153663170Y-108292400D03*
%TO.P,R16,2,2*%
%TO.N,+3V3*%
X153663170Y-106642400D03*
%TD*%
D33*
%TO.P,IC1,1,~{OE}*%
%TO.N,/Ethernet/CS*%
X141625000Y-108575000D03*
%TO.P,IC1,2,A*%
%TO.N,/Ethernet/MISO*%
X142275000Y-108575000D03*
%TO.P,IC1,3,GND*%
%TO.N,GND*%
X142925000Y-108575000D03*
%TO.P,IC1,4,Y*%
%TO.N,/Archi/MISO*%
X142925000Y-106675000D03*
%TO.P,IC1,5,VCC*%
%TO.N,+3V3*%
X141625000Y-106675000D03*
%TD*%
D20*
%TO.P,C25,1,1*%
%TO.N,Net-(J3-RD+)*%
X115100744Y-118382000D03*
%TO.P,C25,2,2*%
%TO.N,/Ethernet/RX+*%
X116650744Y-118382000D03*
%TD*%
D15*
%TO.P,R2,1*%
%TO.N,GND*%
X181205000Y-91080000D03*
%TO.P,R2,2*%
%TO.N,Net-(U1-EN)*%
X179555000Y-91080000D03*
%TD*%
D16*
%TO.P,R28,1,1*%
%TO.N,Net-(J3-RCT)*%
X115050744Y-113632000D03*
%TO.P,R28,2,2*%
%TO.N,/Ethernet/RX-*%
X116700744Y-113632000D03*
%TD*%
%TO.P,R6,1*%
%TO.N,+3V3*%
X172155000Y-89760000D03*
%TO.P,R6,2*%
%TO.N,Net-(D4-A)*%
X173805000Y-89760000D03*
%TD*%
D10*
%TO.P,C11,1*%
%TO.N,/MCU-WiFi/CHIP_PU*%
X184450000Y-124625000D03*
%TO.P,C11,2*%
%TO.N,GND*%
X182900000Y-124625000D03*
%TD*%
D34*
%TO.P,J1,1,Pin_1*%
%TO.N,GND*%
X189780000Y-82270000D03*
D35*
%TO.P,J1,2,Pin_2*%
%TO.N,VBAT*%
X189780000Y-87350000D03*
%TD*%
D30*
%TO.P,R1,1*%
%TO.N,Net-(U1-EN)*%
X178680000Y-89265000D03*
%TO.P,R1,2*%
%TO.N,VBAT*%
X178680000Y-87615000D03*
%TD*%
D13*
%TO.P,C7,1*%
%TO.N,/MCU-WiFi/CHIP_PU*%
X193668170Y-124625400D03*
%TO.P,C7,2*%
%TO.N,GND*%
X193668170Y-123075400D03*
%TD*%
D20*
%TO.P,C17,1,1*%
%TO.N,Net-(U$1-1V20)*%
X134099000Y-121996200D03*
%TO.P,C17,2,2*%
%TO.N,GND*%
X135649000Y-121996200D03*
%TD*%
D30*
%TO.P,R3,1*%
%TO.N,GND*%
X178523770Y-94525000D03*
%TO.P,R3,2*%
%TO.N,Net-(U1-FB)*%
X178523770Y-92875000D03*
%TD*%
D10*
%TO.P,C12,1*%
%TO.N,/MCU-WiFi/GPIO0*%
X176103770Y-124550000D03*
%TO.P,C12,2*%
%TO.N,GND*%
X174553770Y-124550000D03*
%TD*%
D17*
%TO.P,R21,1,1*%
%TO.N,+3V3*%
X134023770Y-104675000D03*
%TO.P,R21,2,2*%
%TO.N,Net-(SJ1-A)*%
X134023770Y-106325000D03*
%TD*%
D16*
%TO.P,R26,1,1*%
%TO.N,Net-(J3-RCT)*%
X115050744Y-116832000D03*
%TO.P,R26,2,2*%
%TO.N,/Ethernet/RX+*%
X116700744Y-116832000D03*
%TD*%
D10*
%TO.P,C6,1*%
%TO.N,+3V3*%
X169365000Y-83670000D03*
%TO.P,C6,2*%
%TO.N,GND*%
X167815000Y-83670000D03*
%TD*%
D36*
%TO.P,C28,1*%
%TO.N,+3V3*%
X152628770Y-84830000D03*
%TO.P,C28,2*%
%TO.N,/Archi/RUN*%
X154353770Y-84830000D03*
%TD*%
D10*
%TO.P,C5,1*%
%TO.N,+3V3*%
X169486270Y-85425000D03*
%TO.P,C5,2*%
%TO.N,GND*%
X167936270Y-85425000D03*
%TD*%
D37*
%TO.P,J2,A1,GND*%
%TO.N,GND*%
X187398770Y-99590000D03*
%TO.P,J2,A4,VBUS*%
%TO.N,Net-(D5-A2)*%
X187398770Y-98790000D03*
D38*
%TO.P,J2,A5,CC1*%
%TO.N,Net-(J2-CC1)*%
X187398770Y-97590000D03*
%TO.P,J2,A6,D+*%
%TO.N,/MCU-WiFi/D+*%
X187398770Y-96590000D03*
%TO.P,J2,A7,D-*%
%TO.N,/MCU-WiFi/D-*%
X187398770Y-96090000D03*
%TO.P,J2,A8,SBU1*%
%TO.N,unconnected-(J2-SBU1-PadA8)*%
X187398770Y-95090000D03*
D37*
%TO.P,J2,A9,VBUS*%
%TO.N,Net-(D5-A2)*%
X187398770Y-93890000D03*
%TO.P,J2,A12,GND*%
%TO.N,GND*%
X187398770Y-93090000D03*
%TO.P,J2,B1,GND*%
X187398770Y-93090000D03*
%TO.P,J2,B4,VBUS*%
%TO.N,Net-(D5-A2)*%
X187398770Y-93890000D03*
D38*
%TO.P,J2,B5,CC2*%
%TO.N,Net-(J2-CC2)*%
X187398770Y-94590000D03*
%TO.P,J2,B6,D+*%
%TO.N,/MCU-WiFi/D+*%
X187398770Y-95590000D03*
%TO.P,J2,B7,D-*%
%TO.N,/MCU-WiFi/D-*%
X187398770Y-97090000D03*
%TO.P,J2,B8,SBU2*%
%TO.N,unconnected-(J2-SBU2-PadB8)*%
X187398770Y-98090000D03*
D37*
%TO.P,J2,B9,VBUS*%
%TO.N,Net-(D5-A2)*%
X187398770Y-98790000D03*
%TO.P,J2,B12,GND*%
%TO.N,GND*%
X187398770Y-99590000D03*
D39*
%TO.P,J2,S1,SHIELD*%
X188313770Y-100660000D03*
D40*
X192493770Y-100660000D03*
D39*
X188313770Y-92020000D03*
D40*
X192493770Y-92020000D03*
%TD*%
D31*
%TO.P,D7,1,A1*%
%TO.N,GND*%
X183245000Y-95300000D03*
%TO.P,D7,2,A2*%
%TO.N,/MCU-WiFi/D+*%
X184215000Y-95300000D03*
%TD*%
D16*
%TO.P,R25,1,1*%
%TO.N,/Ethernet/TX-*%
X115025744Y-107482000D03*
%TO.P,R25,2,2*%
%TO.N,AVDD*%
X116675744Y-107482000D03*
%TD*%
D41*
%TO.P,U2,1,GND*%
%TO.N,GND*%
X187143770Y-103050000D03*
%TO.P,U2,2,3V3*%
%TO.N,+3V3*%
X185873770Y-103050000D03*
%TO.P,U2,3,EN*%
%TO.N,/MCU-WiFi/CHIP_PU*%
X184603770Y-103050000D03*
%TO.P,U2,4,IO4*%
%TO.N,unconnected-(U2-IO4-Pad4)*%
X183333770Y-103050000D03*
%TO.P,U2,5,IO5*%
%TO.N,unconnected-(U2-IO5-Pad5)*%
X182063770Y-103050000D03*
%TO.P,U2,6,IO6*%
%TO.N,unconnected-(U2-IO6-Pad6)*%
X180793770Y-103050000D03*
%TO.P,U2,7,IO7*%
%TO.N,unconnected-(U2-IO7-Pad7)*%
X179523770Y-103050000D03*
%TO.P,U2,8,IO15*%
%TO.N,unconnected-(U2-IO15-Pad8)*%
X178253770Y-103050000D03*
%TO.P,U2,9,IO16*%
%TO.N,unconnected-(U2-IO16-Pad9)*%
X176983770Y-103050000D03*
%TO.P,U2,10,IO17*%
%TO.N,unconnected-(U2-IO17-Pad10)*%
X175713770Y-103050000D03*
%TO.P,U2,11,IO18*%
%TO.N,unconnected-(U2-IO18-Pad11)*%
X174443770Y-103050000D03*
%TO.P,U2,12,IO8*%
%TO.N,unconnected-(U2-IO8-Pad12)*%
X173173770Y-103050000D03*
%TO.P,U2,13,IO19*%
%TO.N,/MCU-WiFi/D-*%
X171903770Y-103050000D03*
%TO.P,U2,14,IO20*%
%TO.N,/MCU-WiFi/D+*%
X170633770Y-103050000D03*
D42*
%TO.P,U2,15,IO3*%
%TO.N,unconnected-(U2-IO3-Pad15)*%
X169383770Y-104815000D03*
%TO.P,U2,16,IO46*%
%TO.N,unconnected-(U2-IO46-Pad16)*%
X169383770Y-106085000D03*
%TO.P,U2,17,IO9*%
%TO.N,unconnected-(U2-IO9-Pad17)*%
X169383770Y-107355000D03*
%TO.P,U2,18,IO10*%
%TO.N,/Archi/CS1*%
X169383770Y-108625000D03*
%TO.P,U2,19,IO11*%
%TO.N,/Ethernet/MOSI*%
X169383770Y-109895000D03*
%TO.P,U2,20,IO12*%
%TO.N,/Ethernet/SCK*%
X169383770Y-111165000D03*
%TO.P,U2,21,IO13*%
%TO.N,/Archi/MISO*%
X169383770Y-112435000D03*
%TO.P,U2,22,IO14*%
%TO.N,unconnected-(U2-IO14-Pad22)*%
X169383770Y-113705000D03*
%TO.P,U2,23,IO21*%
%TO.N,unconnected-(U2-IO21-Pad23)*%
X169383770Y-114975000D03*
%TO.P,U2,24,IO47*%
%TO.N,unconnected-(U2-IO47-Pad24)*%
X169383770Y-116245000D03*
%TO.P,U2,25,IO48*%
%TO.N,/Archi/READY*%
X169383770Y-117515000D03*
%TO.P,U2,26,IO45*%
%TO.N,unconnected-(U2-IO45-Pad26)*%
X169383770Y-118785000D03*
D41*
%TO.P,U2,27,IO0*%
%TO.N,/MCU-WiFi/GPIO0*%
X170633770Y-120550000D03*
%TO.P,U2,28,IO35*%
%TO.N,unconnected-(U2-IO35-Pad28)*%
X171903770Y-120550000D03*
%TO.P,U2,29,IO36*%
%TO.N,unconnected-(U2-IO36-Pad29)*%
X173173770Y-120550000D03*
%TO.P,U2,30,IO37*%
%TO.N,unconnected-(U2-IO37-Pad30)*%
X174443770Y-120550000D03*
%TO.P,U2,31,IO38*%
%TO.N,unconnected-(U2-IO38-Pad31)*%
X175713770Y-120550000D03*
%TO.P,U2,32,IO39*%
%TO.N,unconnected-(U2-IO39-Pad32)*%
X176983770Y-120550000D03*
%TO.P,U2,33,IO40*%
%TO.N,unconnected-(U2-IO40-Pad33)*%
X178253770Y-120550000D03*
%TO.P,U2,34,IO41*%
%TO.N,unconnected-(U2-IO41-Pad34)*%
X179523770Y-120550000D03*
%TO.P,U2,35,IO42*%
%TO.N,unconnected-(U2-IO42-Pad35)*%
X180793770Y-120550000D03*
%TO.P,U2,36,RXD0*%
%TO.N,unconnected-(U2-RXD0-Pad36)*%
X182063770Y-120550000D03*
%TO.P,U2,37,TXD0*%
%TO.N,unconnected-(U2-TXD0-Pad37)*%
X183333770Y-120550000D03*
%TO.P,U2,38,IO2*%
%TO.N,unconnected-(U2-IO2-Pad38)*%
X184603770Y-120550000D03*
%TO.P,U2,39,IO1*%
%TO.N,unconnected-(U2-IO1-Pad39)*%
X185873770Y-120550000D03*
%TO.P,U2,40,GND*%
%TO.N,GND*%
X187143770Y-120550000D03*
D43*
%TO.P,U2,41,GND*%
X180123770Y-108900000D03*
X178723770Y-108900000D03*
X180823770Y-109600000D03*
D44*
X179423770Y-109600000D03*
D43*
X178023770Y-109600000D03*
D44*
X180123770Y-110300000D03*
D45*
X179423770Y-110300000D03*
D44*
X178723770Y-110300000D03*
D43*
X180823770Y-111000000D03*
D44*
X179423770Y-111000000D03*
D43*
X178023770Y-111000000D03*
X180123770Y-111700000D03*
X178723770Y-111700000D03*
%TD*%
D46*
%TO.P,R9,1*%
%TO.N,Net-(J2-CC1)*%
X184210000Y-97025000D03*
%TO.P,R9,2*%
%TO.N,GND*%
X183190000Y-97025000D03*
%TD*%
D10*
%TO.P,C8,1*%
%TO.N,+3V3*%
X176973770Y-96075000D03*
%TO.P,C8,2*%
%TO.N,GND*%
X175423770Y-96075000D03*
%TD*%
D13*
%TO.P,C19,1,1*%
%TO.N,AVDD*%
X124848770Y-117975000D03*
%TO.P,C19,2,2*%
%TO.N,AGND*%
X124848770Y-116425000D03*
%TD*%
D24*
%TO.P,U4,1*%
%TO.N,GND*%
X175000000Y-126925000D03*
X181000000Y-126925000D03*
%TO.P,U4,2*%
%TO.N,/MCU-WiFi/GPIO0*%
X175000000Y-130675000D03*
X181000000Y-130675000D03*
%TD*%
D16*
%TO.P,R29,1,1*%
%TO.N,Net-(J3-TCT)*%
X115050744Y-110557000D03*
%TO.P,R29,2,2*%
%TO.N,AVDD*%
X116700744Y-110557000D03*
%TD*%
D47*
%TO.P,D3,1,A1*%
%TO.N,VBAT*%
X176400000Y-81275000D03*
%TO.P,D3,2,A2*%
%TO.N,GND*%
X173900000Y-81275000D03*
%TD*%
D30*
%TO.P,FB2,1,P$1*%
%TO.N,GND*%
X129313770Y-121425000D03*
%TO.P,FB2,2,P$2*%
%TO.N,AGND*%
X129313770Y-119775000D03*
%TD*%
D28*
%TO.P,C4,1*%
%TO.N,Net-(U1-FB)*%
X175376420Y-91455000D03*
%TO.P,C4,2*%
%TO.N,+3V3*%
X175376420Y-93005000D03*
%TD*%
D14*
%TO.P,D2,1,K*%
%TO.N,VIN*%
X140875000Y-82575000D03*
%TO.P,D2,2,A*%
%TO.N,+3V3*%
X140875000Y-85375000D03*
%TD*%
D48*
%TO.P,U$1,1,TXN*%
%TO.N,/Ethernet/TX-*%
X129273770Y-109800000D03*
%TO.P,U$1,2,TXP*%
%TO.N,/Ethernet/TX+*%
X129273770Y-110300000D03*
%TO.P,U$1,3,AGND@1*%
%TO.N,AGND*%
X129273770Y-110800000D03*
%TO.P,U$1,4,AVDD@1*%
%TO.N,AVDD*%
X129273770Y-111300000D03*
%TO.P,U$1,5,RXN*%
%TO.N,/Ethernet/RX-*%
X129273770Y-111800000D03*
%TO.P,U$1,6,RXP*%
%TO.N,Net-(U$1-RXP)*%
X129273770Y-112300000D03*
%TO.P,U$1,7,DNC*%
%TO.N,unconnected-(U$1-DNC-Pad7)*%
X129273770Y-112800000D03*
%TO.P,U$1,8,AVDD@2*%
%TO.N,AVDD*%
X129273770Y-113300000D03*
%TO.P,U$1,9,AGND@2*%
%TO.N,AGND*%
X129273770Y-113800000D03*
%TO.P,U$1,10,EXRES1*%
%TO.N,Net-(U$1-EXRES1)*%
X129273770Y-114300000D03*
%TO.P,U$1,11,AVDD@3*%
%TO.N,AVDD*%
X129273770Y-114800000D03*
%TO.P,U$1,12,NC@1*%
%TO.N,unconnected-(U$1-NC@1-Pad12)*%
X129273770Y-115300000D03*
D49*
%TO.P,U$1,13,NC@2*%
%TO.N,unconnected-(U$1-NC@2-Pad13)*%
X130723770Y-116750000D03*
%TO.P,U$1,14,AGND@4*%
%TO.N,AGND*%
X131223770Y-116750000D03*
%TO.P,U$1,15,AVDD@4*%
%TO.N,AVDD*%
X131723770Y-116750000D03*
%TO.P,U$1,16,AGND@5*%
%TO.N,AGND*%
X132223770Y-116750000D03*
%TO.P,U$1,17,AVDD@5*%
%TO.N,AVDD*%
X132723770Y-116750000D03*
%TO.P,U$1,18,VBG*%
%TO.N,unconnected-(U$1-VBG-Pad18)*%
X133223770Y-116750000D03*
%TO.P,U$1,19,AGND@6*%
%TO.N,AGND*%
X133723770Y-116750000D03*
%TO.P,U$1,20,TOCAP*%
%TO.N,Net-(U$1-TOCAP)*%
X134223770Y-116750000D03*
%TO.P,U$1,21,AVDD@6*%
%TO.N,AVDD*%
X134723770Y-116750000D03*
%TO.P,U$1,22,1V20*%
%TO.N,Net-(U$1-1V20)*%
X135223770Y-116750000D03*
%TO.P,U$1,23,RSVD(GND)*%
%TO.N,GND*%
X135723770Y-116750000D03*
%TO.P,U$1,24,SPDLED*%
%TO.N,unconnected-(U$1-SPDLED-Pad24)*%
X136223770Y-116750000D03*
D48*
%TO.P,U$1,25,LINKLED*%
%TO.N,/Ethernet/LINKLED*%
X137673770Y-115300000D03*
%TO.P,U$1,26,DUPLED*%
%TO.N,/Ethernet/DUPLED*%
X137673770Y-114800000D03*
%TO.P,U$1,27,ACTLED*%
%TO.N,/Ethernet/ACTLED*%
X137673770Y-114300000D03*
%TO.P,U$1,28,VDD*%
%TO.N,+3V3*%
X137673770Y-113800000D03*
%TO.P,U$1,29,GND*%
%TO.N,GND*%
X137673770Y-113300000D03*
%TO.P,U$1,30,XI/CLKIN*%
%TO.N,Net-(U$1-XI{slash}CLKIN)*%
X137673770Y-112800000D03*
%TO.P,U$1,31,XO*%
%TO.N,Net-(U$1-XO)*%
X137673770Y-112300000D03*
%TO.P,U$1,32,SCSN*%
%TO.N,/Ethernet/CS*%
X137673770Y-111800000D03*
%TO.P,U$1,33,SCK*%
%TO.N,/Ethernet/SCK*%
X137673770Y-111300000D03*
%TO.P,U$1,34,MISO*%
%TO.N,/Ethernet/MISO*%
X137673770Y-110800000D03*
%TO.P,U$1,35,MOSI*%
%TO.N,/Ethernet/MOSI*%
X137673770Y-110300000D03*
%TO.P,U$1,36,INTN*%
%TO.N,/Ethernet/INTN*%
X137673770Y-109800000D03*
D49*
%TO.P,U$1,37,RSTN*%
%TO.N,/Ethernet/RESET*%
X136223770Y-108350000D03*
%TO.P,U$1,38,RSVD@2*%
%TO.N,unconnected-(U$1-RSVD@2-Pad38)*%
X135723770Y-108350000D03*
%TO.P,U$1,39,RSVD@3*%
%TO.N,unconnected-(U$1-RSVD@3-Pad39)*%
X135223770Y-108350000D03*
%TO.P,U$1,40,RSVD@4*%
%TO.N,unconnected-(U$1-RSVD@4-Pad40)*%
X134723770Y-108350000D03*
%TO.P,U$1,41,RSVD@5*%
%TO.N,unconnected-(U$1-RSVD@5-Pad41)*%
X134223770Y-108350000D03*
%TO.P,U$1,42,RSVD@6*%
%TO.N,unconnected-(U$1-RSVD@6-Pad42)*%
X133723770Y-108350000D03*
%TO.P,U$1,43,PMODE2*%
%TO.N,Net-(SJ1-A)*%
X133223770Y-108350000D03*
%TO.P,U$1,44,PMODE1*%
%TO.N,Net-(SJ2-A)*%
X132723770Y-108350000D03*
%TO.P,U$1,45,PMODE0*%
%TO.N,Net-(SJ3-A)*%
X132223770Y-108350000D03*
%TO.P,U$1,46,NC@3*%
%TO.N,unconnected-(U$1-NC@3-Pad46)*%
X131723770Y-108350000D03*
%TO.P,U$1,47,NC@4*%
%TO.N,unconnected-(U$1-NC@4-Pad47)*%
X131223770Y-108350000D03*
D50*
%TO.P,U$1,48,AGND@7*%
%TO.N,AGND*%
X130723770Y-108350000D03*
%TD*%
D23*
%TO.P,D9,1,K*%
%TO.N,Net-(D9-K)*%
X141051230Y-122325000D03*
%TO.P,D9,2,A*%
%TO.N,+3V3*%
X141051230Y-120575000D03*
%TD*%
D13*
%TO.P,C23,1,1*%
%TO.N,AVDD*%
X126498770Y-117975000D03*
%TO.P,C23,2,2*%
%TO.N,AGND*%
X126498770Y-116425000D03*
%TD*%
D31*
%TO.P,D5,1,A1*%
%TO.N,GND*%
X183282500Y-98300000D03*
%TO.P,D5,2,A2*%
%TO.N,Net-(D5-A2)*%
X184252500Y-98300000D03*
%TD*%
D51*
%TO.P,U1,1,VIN*%
%TO.N,VBAT*%
X177011372Y-88170000D03*
%TO.P,U1,2,SW*%
%TO.N,Net-(U1-SW)*%
X176511246Y-88170000D03*
%TO.P,U1,3,GND*%
%TO.N,GND*%
X176011120Y-88170000D03*
%TO.P,U1,4,PG*%
%TO.N,Net-(U1-PG)*%
X176011120Y-89668600D03*
%TO.P,U1,5,EN*%
%TO.N,Net-(U1-EN)*%
X176511246Y-89668600D03*
%TO.P,U1,6,FB*%
%TO.N,Net-(U1-FB)*%
X177011372Y-89668600D03*
%TD*%
D24*
%TO.P,U3,1*%
%TO.N,GND*%
X182948770Y-126900000D03*
X188948770Y-126900000D03*
%TO.P,U3,2*%
%TO.N,/MCU-WiFi/CHIP_PU*%
X182948770Y-130650000D03*
X188948770Y-130650000D03*
%TD*%
D46*
%TO.P,R8,1*%
%TO.N,Net-(J2-CC2)*%
X184255000Y-94275000D03*
%TO.P,R8,2*%
%TO.N,GND*%
X183235000Y-94275000D03*
%TD*%
D18*
%TO.P,J11,1,Pin_1*%
%TO.N,Net-(J11-Pin_1)*%
X105520000Y-82900000D03*
D19*
%TO.P,J11,2,Pin_2*%
%TO.N,Net-(J11-Pin_2)*%
X108060000Y-82900000D03*
%TO.P,J11,3,Pin_3*%
%TO.N,Net-(J11-Pin_3)*%
X110600000Y-82900000D03*
%TO.P,J11,4,Pin_4*%
%TO.N,Net-(J11-Pin_4)*%
X113140000Y-82900000D03*
%TO.P,J11,5,Pin_5*%
%TO.N,Net-(J11-Pin_5)*%
X115680000Y-82900000D03*
%TO.P,J11,6,Pin_6*%
%TO.N,Net-(J11-Pin_6)*%
X118220000Y-82900000D03*
%TD*%
D28*
%TO.P,C3,1*%
%TO.N,VBAT*%
X180391120Y-87715000D03*
%TO.P,C3,2*%
%TO.N,GND*%
X180391120Y-89265000D03*
%TD*%
D18*
%TO.P,J8,1,Pin_1*%
%TO.N,GND*%
X100500000Y-94075000D03*
D19*
%TO.P,J8,2,Pin_2*%
X103040000Y-94075000D03*
%TO.P,J8,3,Pin_3*%
X105580000Y-94075000D03*
%TO.P,J8,4,Pin_4*%
X108120000Y-94075000D03*
%TO.P,J8,5,Pin_5*%
X110660000Y-94075000D03*
%TO.P,J8,6,Pin_6*%
X113200000Y-94075000D03*
%TO.P,J8,7,Pin_7*%
X115740000Y-94075000D03*
%TO.P,J8,8,Pin_8*%
X118280000Y-94075000D03*
%TD*%
D52*
%TO.P,J5,1,Pin_1*%
%TO.N,Net-(J11-Pin_1)*%
X136906648Y-79903207D03*
D53*
%TO.P,J5,2,Pin_2*%
%TO.N,Net-(J11-Pin_2)*%
X134366648Y-79903207D03*
%TO.P,J5,3,Pin_3*%
%TO.N,Net-(J11-Pin_3)*%
X131826648Y-79903207D03*
%TO.P,J5,4,Pin_4*%
%TO.N,Net-(J11-Pin_4)*%
X129286648Y-79903207D03*
%TO.P,J5,5,Pin_5*%
%TO.N,Net-(J11-Pin_5)*%
X126746648Y-79903207D03*
%TO.P,J5,6,Pin_6*%
%TO.N,Net-(J11-Pin_6)*%
X124206648Y-79903207D03*
%TD*%
D52*
%TO.P,J4,1,Pin_1*%
%TO.N,unconnected-(J4-Pin_1-Pad1)*%
X159766648Y-79903207D03*
D53*
%TO.P,J4,2,Pin_2*%
%TO.N,+5V*%
X157226648Y-79903207D03*
%TO.P,J4,3,Pin_3*%
%TO.N,/Archi/RUN*%
X154686648Y-79903207D03*
%TO.P,J4,4,Pin_4*%
%TO.N,+3V3*%
X152146648Y-79903207D03*
%TO.P,J4,5,Pin_5*%
%TO.N,+5V*%
X149606648Y-79903207D03*
%TO.P,J4,6,Pin_6*%
%TO.N,GND*%
X147066648Y-79903207D03*
%TO.P,J4,7,Pin_7*%
X144526648Y-79903207D03*
%TO.P,J4,8,Pin_8*%
%TO.N,VIN*%
X141986648Y-79903207D03*
%TD*%
D52*
%TO.P,J7,1,Pin_1*%
%TO.N,/Ethernet/CS*%
X141986648Y-128163207D03*
D53*
%TO.P,J7,2,Pin_2*%
%TO.N,/Ethernet/INTN*%
X139446648Y-128163207D03*
%TO.P,J7,3,Pin_3*%
%TO.N,/Ethernet/RESET*%
X136906648Y-128163207D03*
%TO.P,J7,4,Pin_4*%
%TO.N,unconnected-(J7-Pin_4-Pad4)*%
X134366648Y-128163207D03*
%TO.P,J7,5,Pin_5*%
%TO.N,unconnected-(J7-Pin_5-Pad5)*%
X131826648Y-128163207D03*
%TO.P,J7,6,Pin_6*%
%TO.N,unconnected-(J7-Pin_6-Pad6)*%
X129286648Y-128163207D03*
%TO.P,J7,7,Pin_7*%
%TO.N,unconnected-(J7-Pin_7-Pad7)*%
X126746648Y-128163207D03*
%TO.P,J7,8,Pin_8*%
%TO.N,unconnected-(J7-Pin_8-Pad8)*%
X124206648Y-128163207D03*
%TD*%
D52*
%TO.P,J6,1,Pin_1*%
%TO.N,unconnected-(J6-Pin_1-Pad1)*%
X168910648Y-128163207D03*
D53*
%TO.P,J6,2,Pin_2*%
%TO.N,unconnected-(J6-Pin_2-Pad2)*%
X166370648Y-128163207D03*
%TO.P,J6,3,Pin_3*%
%TO.N,unconnected-(J6-Pin_3-Pad3)*%
X163830648Y-128163207D03*
%TO.P,J6,4,Pin_4*%
%TO.N,GND*%
X161290648Y-128163207D03*
%TO.P,J6,5,Pin_5*%
%TO.N,/MCU-WiFi/GPIO0*%
X158750648Y-128163207D03*
%TO.P,J6,6,Pin_6*%
%TO.N,/Archi/READY*%
X156210648Y-128163207D03*
%TO.P,J6,7,Pin_7*%
%TO.N,/Archi/CS1*%
X153670648Y-128163207D03*
%TO.P,J6,8,Pin_8*%
%TO.N,/Archi/MISO*%
X151130648Y-128163207D03*
%TO.P,J6,9,Pin_9*%
%TO.N,/Ethernet/MOSI*%
X148590648Y-128163207D03*
%TO.P,J6,10,Pin_10*%
%TO.N,/Ethernet/SCK*%
X146050648Y-128163207D03*
%TD*%
D54*
%TO.N,GND*%
X181400000Y-125450000D03*
X165778970Y-85425000D03*
X191423770Y-122575000D03*
X173750000Y-127600000D03*
D55*
X179423770Y-110300000D03*
D54*
X144526000Y-77317600D03*
X143663770Y-118084600D03*
D56*
X119176800Y-121158000D03*
D54*
X127923770Y-122250000D03*
D56*
X171050000Y-87110000D03*
D54*
X151000000Y-84650000D03*
X172400000Y-81025000D03*
X185528770Y-92645000D03*
D56*
X186048170Y-100660200D03*
D54*
X173923770Y-94000000D03*
X144519170Y-108712000D03*
X181875000Y-83800000D03*
D56*
X118491000Y-115925600D03*
D54*
X135248170Y-123723400D03*
X190375000Y-126575000D03*
X181292500Y-92650000D03*
D56*
X119075200Y-113461800D03*
%TO.N,AVDD*%
X119423970Y-119227600D03*
X120160570Y-106756200D03*
D54*
%TO.N,+3V3*%
X142106170Y-116713000D03*
D56*
X180153200Y-99913200D03*
D54*
X188723770Y-122990000D03*
X125448770Y-104675000D03*
X131440000Y-83460000D03*
X152146648Y-77030722D03*
X171523770Y-85625000D03*
X147269200Y-103657400D03*
X152623770Y-86175000D03*
X135423770Y-104675000D03*
X180923770Y-123400000D03*
D56*
%TO.N,/MCU-WiFi/D-*%
X172411270Y-100712500D03*
D57*
X185184570Y-96621600D03*
D56*
%TO.N,/MCU-WiFi/D+*%
X170248770Y-100700000D03*
D57*
X185260770Y-94996000D03*
D56*
%TO.N,Net-(J3-TCT)*%
X114528600Y-111328200D03*
%TO.N,Net-(J3-RD+)*%
X109982000Y-122428000D03*
%TO.N,Net-(J3-RCT)*%
X114385600Y-114233200D03*
D54*
%TO.N,Net-(SJ1-A)*%
X121361200Y-95631000D03*
D56*
X135578370Y-106553000D03*
D54*
X121811570Y-104698800D03*
D56*
%TO.N,Net-(SJ2-A)*%
X128823770Y-105820000D03*
%TO.N,Net-(SJ3-A)*%
X127373770Y-108400000D03*
%TO.N,/Ethernet/ACTLED*%
X141058732Y-117482986D03*
%TO.N,/Ethernet/LINKLED*%
X138000000Y-117275000D03*
X137875000Y-119175000D03*
%TO.N,/Ethernet/DUPLED*%
X139550000Y-119250000D03*
%TO.N,Net-(J3-RD-)*%
X114211000Y-119989600D03*
%TO.N,Net-(D9-K)*%
X140575000Y-123800000D03*
D58*
%TO.N,VBAT*%
X182923770Y-88700000D03*
D56*
%TO.N,/MCU-WiFi/CHIP_PU*%
X178880000Y-101120000D03*
D54*
X184819185Y-122495415D03*
D56*
%TO.N,/Archi/MISO*%
X143122170Y-104470200D03*
D54*
X162427490Y-112897490D03*
D56*
%TO.N,/Ethernet/CS*%
X142842770Y-111150000D03*
D54*
X155194000Y-110667800D03*
D56*
%TO.N,/Ethernet/RX-*%
X123284770Y-112572800D03*
X122192570Y-120421400D03*
%TO.N,/Ethernet/SCK*%
X140404370Y-110845600D03*
D54*
X147624800Y-124619400D03*
%TO.N,/Archi/CS1*%
X164178770Y-107188000D03*
X162146770Y-115087400D03*
D56*
%TO.N,/Ethernet/MOSI*%
X139120000Y-109080000D03*
D54*
X145565428Y-124204028D03*
D56*
%TO.N,/Ethernet/INTN*%
X152418708Y-110413938D03*
X138460000Y-108080200D03*
D54*
%TO.N,/Ethernet/RESET*%
X150107170Y-107721400D03*
D56*
X139388370Y-104546400D03*
%TO.N,Net-(D10-K)*%
X137900000Y-123875000D03*
%TO.N,Net-(D11-K)*%
X139300000Y-124025000D03*
%TO.N,/Ethernet/TX+*%
X111400000Y-102875000D03*
X118745000Y-111658400D03*
%TO.N,/Ethernet/TX-*%
X118135400Y-110185200D03*
X112256256Y-103700000D03*
%TD*%
D59*
%TO.N,GND*%
X146329400Y-114249200D02*
X148151370Y-112427230D01*
D60*
X188948770Y-126900000D02*
X190050000Y-126900000D01*
D61*
X184639970Y-92645000D02*
X183355370Y-93929600D01*
D62*
X167673770Y-85425000D02*
X167633170Y-85384400D01*
D63*
X181292500Y-89802500D02*
X181292500Y-91080000D01*
D61*
X171050000Y-87110000D02*
X175520570Y-87110000D01*
X183325770Y-94924000D02*
X183355370Y-94894400D01*
D59*
X147015200Y-108293200D02*
X144937970Y-108293200D01*
D61*
X183315000Y-98300000D02*
X183325000Y-98290000D01*
D64*
X182928770Y-126880000D02*
X182928770Y-124570000D01*
X171690000Y-88300000D02*
X172105000Y-88300000D01*
D59*
X147529370Y-108293200D02*
X147015200Y-108293200D01*
D64*
X191423770Y-122575000D02*
X191937170Y-123088400D01*
D65*
X181400000Y-125450000D02*
X181000000Y-125850000D01*
D64*
X186048170Y-100660200D02*
X187143770Y-101755800D01*
X173900000Y-81275000D02*
X173900000Y-80025000D01*
X146341800Y-117779800D02*
X146037000Y-118084600D01*
D66*
X180325000Y-83800000D02*
X180250000Y-83725000D01*
D61*
X183331070Y-97644470D02*
X183331070Y-95911300D01*
D66*
X148129400Y-109896230D02*
X148113570Y-109880400D01*
D60*
X181400000Y-125450000D02*
X182830000Y-126880000D01*
D64*
X186048170Y-100660200D02*
X186048170Y-99923600D01*
D62*
X167633170Y-85384400D02*
X167633170Y-83928100D01*
D64*
X185973770Y-93090000D02*
X187398770Y-93090000D01*
D59*
X148158200Y-112420400D02*
X148158200Y-111716000D01*
X147015200Y-108293200D02*
X146449570Y-108293200D01*
D61*
X135649000Y-123322570D02*
X135649000Y-121996200D01*
D65*
X151000000Y-84650000D02*
X150975000Y-84625000D01*
D64*
X186381770Y-99590000D02*
X187398770Y-99590000D01*
D61*
X143663770Y-118084600D02*
X143866970Y-118287800D01*
D59*
X144937970Y-108293200D02*
X144656170Y-108575000D01*
X148158200Y-112420400D02*
X148158200Y-109925030D01*
D61*
X183325000Y-98290000D02*
X183325000Y-97738400D01*
X175520570Y-87110000D02*
X175811970Y-87401400D01*
D59*
X144656170Y-108575000D02*
X142925000Y-108575000D01*
D64*
X174553770Y-124550000D02*
X174553770Y-126478770D01*
D62*
X165778970Y-85425000D02*
X167673770Y-85425000D01*
D61*
X183331070Y-95911300D02*
X183289770Y-95870000D01*
D64*
X174448770Y-94525000D02*
X175423770Y-94525000D01*
X172400000Y-81025000D02*
X173650000Y-81025000D01*
D67*
X181292500Y-92650000D02*
X179330000Y-94612500D01*
D65*
X181000000Y-125850000D02*
X181000000Y-126925000D01*
D64*
X146037000Y-118084600D02*
X143663770Y-118084600D01*
D65*
X180275000Y-85425000D02*
X180275000Y-83750000D01*
X150975000Y-84625000D02*
X150975000Y-83475000D01*
D61*
X135723770Y-116750000D02*
X135723770Y-113849800D01*
D66*
X176011120Y-88451120D02*
X176011120Y-88170000D01*
D64*
X193655170Y-123088400D02*
X193668170Y-123075400D01*
D66*
X175811970Y-87401400D02*
X176010000Y-87599430D01*
X148125970Y-108293200D02*
X148151370Y-108318600D01*
D62*
X147066648Y-79903207D02*
X144526648Y-79903207D01*
D61*
X135723770Y-113849800D02*
X136273570Y-113300000D01*
D66*
X148151370Y-109842600D02*
X148113570Y-109880400D01*
D65*
X174425000Y-126925000D02*
X175000000Y-126925000D01*
X181875000Y-83800000D02*
X180325000Y-83800000D01*
D59*
X148158200Y-109925030D02*
X148113570Y-109880400D01*
D61*
X143663770Y-118084600D02*
X143663770Y-116856386D01*
D64*
X191937170Y-123088400D02*
X193655170Y-123088400D01*
X186048170Y-99923600D02*
X186381770Y-99590000D01*
D61*
X183355370Y-93929600D02*
X183355370Y-94894400D01*
X185528770Y-92645000D02*
X184639970Y-92645000D01*
D68*
X189453770Y-82170000D02*
X189723770Y-82170000D01*
D63*
X180842500Y-89352500D02*
X181292500Y-89802500D01*
D64*
X185528770Y-92645000D02*
X185973770Y-93090000D01*
D65*
X173750000Y-127600000D02*
X174425000Y-126925000D01*
D61*
X183325770Y-95834200D02*
X183325770Y-94924000D01*
D63*
X180391120Y-89352500D02*
X180842500Y-89352500D01*
D64*
X187143770Y-121320000D02*
X187143770Y-120550000D01*
D59*
X148151370Y-108915200D02*
X148151370Y-108318600D01*
D66*
X180275000Y-83750000D02*
X180250000Y-83725000D01*
D59*
X144937970Y-108293200D02*
X144519170Y-108712000D01*
D64*
X187143770Y-101755800D02*
X187143770Y-103050000D01*
D62*
X127923770Y-122250000D02*
X128748770Y-121425000D01*
D59*
X146329400Y-115187200D02*
X146329400Y-114249200D01*
X148151370Y-112427230D02*
X148151370Y-108915200D01*
D64*
X181292500Y-92650000D02*
X181292500Y-91080000D01*
D67*
X179330000Y-94612500D02*
X178523770Y-94612500D01*
D64*
X190548770Y-121700000D02*
X187523770Y-121700000D01*
X171050000Y-87660000D02*
X171690000Y-88300000D01*
D62*
X128748770Y-121425000D02*
X129313770Y-121425000D01*
D64*
X173650000Y-81025000D02*
X173900000Y-81275000D01*
D60*
X182830000Y-126880000D02*
X182928770Y-126880000D01*
D66*
X176010000Y-88168880D02*
X176011120Y-88170000D01*
D64*
X174553770Y-126478770D02*
X174950000Y-126875000D01*
D59*
X148151370Y-108915200D02*
X147529370Y-108293200D01*
X146329400Y-114249200D02*
X148158200Y-112420400D01*
D61*
X143663770Y-116856386D02*
X140107384Y-113300000D01*
D64*
X173923770Y-94000000D02*
X174448770Y-94525000D01*
D61*
X135248170Y-123723400D02*
X135649000Y-123322570D01*
D59*
X148158200Y-111716000D02*
X148129400Y-111687200D01*
D66*
X182948770Y-126900000D02*
X182928770Y-126880000D01*
D64*
X173900000Y-80025000D02*
X174425000Y-79500000D01*
X187523770Y-121700000D02*
X187143770Y-121320000D01*
D60*
X190050000Y-126900000D02*
X190375000Y-126575000D01*
D61*
X135723770Y-121921430D02*
X135723770Y-116750000D01*
D64*
X175423770Y-94525000D02*
X175423770Y-96075000D01*
D66*
X176010000Y-87599430D02*
X176010000Y-88168880D01*
D64*
X191423770Y-122575000D02*
X190548770Y-121700000D01*
D61*
X136273570Y-113300000D02*
X137673770Y-113300000D01*
D62*
X145000000Y-83450000D02*
X145000000Y-77791600D01*
D64*
X171050000Y-87110000D02*
X171050000Y-87660000D01*
D62*
X145000000Y-77791600D02*
X144526000Y-77317600D01*
D61*
X140107384Y-113300000D02*
X137673770Y-113300000D01*
X135649000Y-121996200D02*
X135723770Y-121921430D01*
D62*
%TO.N,VIN*%
X140875000Y-81014855D02*
X141986648Y-79903207D01*
X140875000Y-82575000D02*
X140875000Y-81014855D01*
D64*
%TO.N,Net-(U1-FB)*%
X176916120Y-91275000D02*
X175763920Y-91275000D01*
D61*
X177011372Y-89668600D02*
X177011372Y-89450000D01*
X177020000Y-89450000D02*
X177020000Y-91171120D01*
D64*
X177125970Y-91230000D02*
X176961120Y-91230000D01*
X176961120Y-91230000D02*
X176916120Y-91275000D01*
D61*
X177020000Y-91171120D02*
X176961120Y-91230000D01*
D64*
X175763920Y-91275000D02*
X175708920Y-91330000D01*
X178341120Y-92610000D02*
X178341120Y-92445150D01*
D61*
X177011372Y-89450000D02*
X177020000Y-89450000D01*
D64*
X178341120Y-92445150D02*
X177125970Y-91230000D01*
D61*
%TO.N,AGND*%
X130166270Y-110800000D02*
X130723770Y-110242500D01*
X129273770Y-110800000D02*
X130166270Y-110800000D01*
X130723770Y-110242500D02*
X130723770Y-108350000D01*
%TO.N,AVDD*%
X126523770Y-118000000D02*
X126498770Y-117975000D01*
X130298770Y-114800000D02*
X130723770Y-114375000D01*
D69*
X124848770Y-117975000D02*
X123248770Y-117975000D01*
X131716270Y-117682500D02*
X131098770Y-118300000D01*
D61*
X132573770Y-115012500D02*
X132198770Y-115012500D01*
D69*
X120658000Y-117975000D02*
X121648770Y-117975000D01*
D61*
X130723770Y-114087500D02*
X130723770Y-113312500D01*
X130723770Y-113312500D02*
X130723770Y-111622970D01*
X129273770Y-114800000D02*
X130298770Y-114800000D01*
X132198770Y-115012500D02*
X134548770Y-115012500D01*
X130548770Y-113312500D02*
X130536270Y-113300000D01*
D69*
X123248770Y-117975000D02*
X121648770Y-117975000D01*
X126498770Y-117975000D02*
X124848770Y-117975000D01*
D61*
X130536270Y-113300000D02*
X129273770Y-113300000D01*
X131716270Y-117682500D02*
X131716270Y-116757500D01*
X116700744Y-109007000D02*
X116700744Y-107507000D01*
D69*
X128398770Y-118300000D02*
X128098770Y-118000000D01*
D61*
X132723770Y-115162500D02*
X132573770Y-115012500D01*
D63*
X121592470Y-106756200D02*
X122311270Y-107475000D01*
D69*
X128098770Y-118000000D02*
X126523770Y-118000000D01*
D61*
X130723770Y-111622970D02*
X130400800Y-111300000D01*
X132198770Y-115012500D02*
X131623770Y-115012500D01*
D63*
X120160570Y-106756200D02*
X121592470Y-106756200D01*
D69*
X117909770Y-109007000D02*
X116700744Y-109007000D01*
X119423970Y-119209030D02*
X120658000Y-117975000D01*
D61*
X130723770Y-114087500D02*
X130723770Y-114787500D01*
X132723770Y-116750000D02*
X132723770Y-115162500D01*
X131723770Y-115112500D02*
X131723770Y-116750000D01*
X134548770Y-115012500D02*
X134723770Y-115187500D01*
X134723770Y-115187500D02*
X134723770Y-116750000D01*
D69*
X120160570Y-106756200D02*
X117909770Y-109007000D01*
X131098770Y-118300000D02*
X128398770Y-118300000D01*
D61*
X116700744Y-110557000D02*
X116700744Y-109007000D01*
X131716270Y-116757500D02*
X131723770Y-116750000D01*
X131623770Y-115012500D02*
X131723770Y-115112500D01*
X130723770Y-114787500D02*
X130948770Y-115012500D01*
X130948770Y-115012500D02*
X131623770Y-115012500D01*
X130723770Y-114375000D02*
X130723770Y-114087500D01*
X130400800Y-111300000D02*
X129273770Y-111300000D01*
X116700744Y-107507000D02*
X116675744Y-107482000D01*
D69*
X119423970Y-119227600D02*
X119423970Y-119209030D01*
D61*
X130723770Y-113312500D02*
X130548770Y-113312500D01*
%TO.N,Net-(U$1-XO)*%
X144320000Y-112725000D02*
X143465000Y-112725000D01*
X143040000Y-112300000D02*
X137673770Y-112300000D01*
D64*
X146329400Y-111687200D02*
X145357800Y-111687200D01*
D61*
X143465000Y-112725000D02*
X143040000Y-112300000D01*
D63*
X146329400Y-111687200D02*
X146329400Y-110114570D01*
D64*
X146201370Y-111625200D02*
X146285370Y-111709200D01*
D63*
X146329400Y-110114570D02*
X146563570Y-109880400D01*
D64*
X145357800Y-111687200D02*
X144320000Y-112725000D01*
%TO.N,Net-(U$1-XI{slash}CLKIN)*%
X148075000Y-117596600D02*
X148075000Y-115608000D01*
X147891800Y-117779800D02*
X148075000Y-117596600D01*
D61*
X141570000Y-112800000D02*
X143145000Y-114375000D01*
X137673770Y-112800000D02*
X141570000Y-112800000D01*
D64*
X148129400Y-116420600D02*
X148129400Y-115187200D01*
X144320000Y-114375000D02*
X144320000Y-115477800D01*
X148075000Y-115608000D02*
X147891800Y-115424800D01*
X144320000Y-115477800D02*
X145532200Y-116690000D01*
D61*
X147891800Y-115424800D02*
X148129400Y-115187200D01*
D64*
X147860000Y-116690000D02*
X148129400Y-116420600D01*
D61*
X143145000Y-114375000D02*
X144320000Y-114375000D01*
D64*
X145532200Y-116690000D02*
X147860000Y-116690000D01*
%TO.N,+3V3*%
X125448770Y-102915800D02*
X125448770Y-104675000D01*
X180923770Y-123400000D02*
X179729069Y-124594701D01*
D70*
X152146648Y-77030722D02*
X152146648Y-79903207D01*
D64*
X147828000Y-104216200D02*
X150901400Y-104216200D01*
X137559570Y-103606430D02*
X137559570Y-104839000D01*
D70*
X152601270Y-83300000D02*
X152146648Y-82845378D01*
D64*
X179729069Y-124594701D02*
X179430472Y-124594701D01*
X169748770Y-85425000D02*
X169748770Y-83892500D01*
D70*
X152628770Y-84830000D02*
X152628770Y-83327500D01*
D64*
X153663170Y-106642400D02*
X151808970Y-106642400D01*
X184292335Y-100460000D02*
X185592535Y-101760200D01*
X139115800Y-102489000D02*
X138677000Y-102489000D01*
X148151370Y-106768600D02*
X146474970Y-106768600D01*
D66*
X142106170Y-116713000D02*
X142106170Y-118668830D01*
D64*
X176961120Y-93055000D02*
X176563370Y-93055000D01*
X176294570Y-92786200D02*
X176283270Y-92797500D01*
X147269200Y-103657400D02*
X147269200Y-106743200D01*
X185873770Y-103050000D02*
X185933770Y-102990000D01*
X180153200Y-99913200D02*
X180700000Y-100460000D01*
X123886270Y-108587500D02*
X123886270Y-106237500D01*
X169748770Y-89748770D02*
X169748770Y-85425000D01*
X141051230Y-120575000D02*
X139426230Y-120575000D01*
X147269200Y-103657400D02*
X146100800Y-102489000D01*
X132498770Y-104675000D02*
X134023770Y-104675000D01*
D70*
X189928770Y-124550000D02*
X189928770Y-123505000D01*
D64*
X133248400Y-103479600D02*
X133248400Y-104649600D01*
X133248400Y-103479600D02*
X134239000Y-102489000D01*
X134645400Y-102489000D02*
X125875570Y-102489000D01*
X152628770Y-83327500D02*
X152601270Y-83300000D01*
X169748770Y-83892500D02*
X169571270Y-83715000D01*
X180700000Y-100460000D02*
X184292335Y-100460000D01*
D66*
X142106170Y-118668830D02*
X141051230Y-119723770D01*
D70*
X189928770Y-123505000D02*
X189413770Y-122990000D01*
D64*
X150901400Y-104216200D02*
X152654000Y-105968800D01*
D62*
X133080000Y-83460000D02*
X134995000Y-85375000D01*
D64*
X134023770Y-104675000D02*
X135423770Y-104675000D01*
X123886270Y-106237500D02*
X125448770Y-104675000D01*
X138677000Y-102489000D02*
X137559570Y-103606430D01*
X189888770Y-124590000D02*
X187716270Y-124590000D01*
X180153200Y-99913200D02*
X176973770Y-96733770D01*
X133248400Y-104649600D02*
X133223000Y-104675000D01*
X172067500Y-92477500D02*
X172067500Y-89786270D01*
X134239000Y-102489000D02*
X134645400Y-102489000D01*
D62*
X134995000Y-85375000D02*
X140875000Y-85375000D01*
D70*
X189413770Y-122990000D02*
X188723770Y-122990000D01*
X152623770Y-86175000D02*
X152623770Y-84835000D01*
D66*
X141051230Y-119723770D02*
X141051230Y-120575000D01*
D64*
X171380000Y-91380000D02*
X169748770Y-89748770D01*
X147269200Y-103657400D02*
X147828000Y-104216200D01*
X176973770Y-96075000D02*
X176973770Y-93067650D01*
X141960600Y-102489000D02*
X134645400Y-102489000D01*
X139426230Y-120575000D02*
X137850000Y-120575000D01*
D62*
X131440000Y-83460000D02*
X133080000Y-83460000D01*
X173625000Y-84700000D02*
X172448770Y-84700000D01*
D61*
X142100982Y-116713000D02*
X139187982Y-113800000D01*
D64*
X185598770Y-101760200D02*
X185873770Y-102035200D01*
X176283270Y-92797500D02*
X175376420Y-92797500D01*
D61*
X139187982Y-113800000D02*
X137673770Y-113800000D01*
D62*
X152623770Y-84835000D02*
X152628770Y-84830000D01*
D64*
X146474970Y-106768600D02*
X146449570Y-106743200D01*
X141625000Y-102824600D02*
X141960600Y-102489000D01*
X146100800Y-102489000D02*
X141960600Y-102489000D01*
X172565000Y-92975000D02*
X172067500Y-92477500D01*
X125875570Y-102489000D02*
X125448770Y-102915800D01*
X175198920Y-92975000D02*
X172565000Y-92975000D01*
D62*
X171523770Y-85625000D02*
X169948770Y-85625000D01*
D64*
X152654000Y-105968800D02*
X152654000Y-106642400D01*
X176973770Y-93067650D02*
X176961120Y-93055000D01*
X175376420Y-92797500D02*
X175198920Y-92975000D01*
D70*
X152146648Y-82845378D02*
X152146648Y-79903207D01*
D64*
X185592535Y-101760200D02*
X185598770Y-101760200D01*
X172067500Y-91380000D02*
X171380000Y-91380000D01*
X176973770Y-96733770D02*
X176973770Y-96075000D01*
X172067500Y-89786270D02*
X171933770Y-89920000D01*
X185873770Y-102035200D02*
X185873770Y-103050000D01*
D62*
X169948770Y-85625000D02*
X169748770Y-85425000D01*
D64*
X176563370Y-93055000D02*
X176294570Y-92786200D01*
X124123770Y-108825000D02*
X123886270Y-108587500D01*
X172067500Y-90550000D02*
X172067500Y-91380000D01*
D62*
X172448770Y-84700000D02*
X171523770Y-85625000D01*
D64*
X189928770Y-124550000D02*
X189888770Y-124590000D01*
D61*
X142106170Y-116713000D02*
X142100982Y-116713000D01*
D64*
X141625000Y-106675000D02*
X141625000Y-102824600D01*
D61*
%TO.N,Net-(U$1-1V20)*%
X134099000Y-121850630D02*
X134099000Y-121087970D01*
X134099000Y-121087970D02*
X135223770Y-119963200D01*
X135223770Y-119963200D02*
X135223770Y-116750000D01*
X134219170Y-121970800D02*
X134099000Y-121850630D01*
%TO.N,Net-(U$1-TOCAP)*%
X134223770Y-116750000D02*
X134223770Y-118150000D01*
X134223770Y-118150000D02*
X133348770Y-119025000D01*
X133348770Y-119025000D02*
X133348770Y-119650000D01*
D64*
%TO.N,/Archi/RUN*%
X154353770Y-83372500D02*
X154426270Y-83300000D01*
D70*
X153550000Y-87225000D02*
X154353770Y-86421230D01*
X154426270Y-83300000D02*
X154426270Y-80163585D01*
D64*
X154426270Y-80163585D02*
X154686648Y-79903207D01*
D70*
X144975000Y-87225000D02*
X153550000Y-87225000D01*
X154353770Y-84830000D02*
X154353770Y-83372500D01*
X154353770Y-86421230D02*
X154353770Y-84830000D01*
D62*
%TO.N,+5V*%
X149606648Y-81437122D02*
X145693770Y-85350000D01*
X138575000Y-88275000D02*
X138525000Y-88325000D01*
X140925000Y-88275000D02*
X138575000Y-88275000D01*
X157226648Y-79903207D02*
X157226648Y-76410678D01*
X156515970Y-75700000D02*
X150403970Y-75700000D01*
X118280000Y-90400000D02*
X120575000Y-90400000D01*
X122775000Y-88200000D02*
X138525000Y-88200000D01*
X149606648Y-76497322D02*
X149606648Y-79903207D01*
X120575000Y-90400000D02*
X122775000Y-88200000D01*
X149606648Y-79903207D02*
X149606648Y-81437122D01*
X143850000Y-85350000D02*
X140925000Y-88275000D01*
X150403970Y-75700000D02*
X149606648Y-76497322D01*
X145693770Y-85350000D02*
X143850000Y-85350000D01*
X157226648Y-76410678D02*
X156515970Y-75700000D01*
D70*
%TO.N,/MCU-WiFi/GPIO0*%
X174873770Y-122750000D02*
X171000000Y-122750000D01*
X161923770Y-120550000D02*
X170633770Y-120550000D01*
D60*
X179150000Y-126094528D02*
X179150000Y-129650000D01*
D70*
X176132972Y-124009202D02*
X174873770Y-122750000D01*
D60*
X180950000Y-130625000D02*
X181000000Y-130675000D01*
D70*
X170633770Y-122383770D02*
X170633770Y-120550000D01*
D60*
X179150000Y-129650000D02*
X178175000Y-130625000D01*
D70*
X158750648Y-128163207D02*
X158750648Y-123723122D01*
D66*
X178175000Y-130625000D02*
X178300000Y-130625000D01*
D60*
X178300000Y-130625000D02*
X180950000Y-130625000D01*
D70*
X171000000Y-122750000D02*
X170633770Y-122383770D01*
D60*
X177605472Y-124550000D02*
X179150000Y-126094528D01*
X178300000Y-130625000D02*
X175050000Y-130625000D01*
D70*
X176132972Y-124594701D02*
X176132972Y-124009202D01*
D64*
X177605472Y-124594701D02*
X176132972Y-124594701D01*
D70*
X158750648Y-123723122D02*
X161923770Y-120550000D01*
D60*
X175050000Y-130625000D02*
X175000000Y-130675000D01*
D61*
%TO.N,/MCU-WiFi/D-*%
X186283770Y-97090000D02*
X187398770Y-97090000D01*
X184742970Y-96180000D02*
X184030000Y-96180000D01*
X185207970Y-96645000D02*
X186183770Y-96645000D01*
X184030000Y-96180000D02*
X183971070Y-96238930D01*
D64*
X171903770Y-101220000D02*
X171903770Y-103050000D01*
D61*
X186183770Y-96645000D02*
X186183770Y-96990000D01*
X185184570Y-96621600D02*
X184742970Y-96180000D01*
D64*
X172411270Y-100712500D02*
X171903770Y-101220000D01*
D61*
X186353770Y-96090000D02*
X186183770Y-96260000D01*
X186183770Y-96260000D02*
X186183770Y-96645000D01*
X185184570Y-96621600D02*
X185207970Y-96645000D01*
X187398770Y-96090000D02*
X186353770Y-96090000D01*
X186183770Y-96990000D02*
X186283770Y-97090000D01*
%TO.N,/MCU-WiFi/D+*%
X184956770Y-95300000D02*
X184050000Y-95300000D01*
X187398770Y-95590000D02*
X185854770Y-95590000D01*
X188333770Y-96590000D02*
X187398770Y-96590000D01*
D64*
X170248770Y-100700000D02*
X170633770Y-101085000D01*
D61*
X185854770Y-95590000D02*
X185260770Y-94996000D01*
D64*
X170633770Y-101085000D02*
X170633770Y-103050000D01*
D61*
X188648770Y-95765000D02*
X188648770Y-96275000D01*
X188473770Y-95590000D02*
X188648770Y-95765000D01*
X188648770Y-96275000D02*
X188333770Y-96590000D01*
X187398770Y-95590000D02*
X188473770Y-95590000D01*
X185260770Y-94996000D02*
X184956770Y-95300000D01*
%TO.N,/Ethernet/MISO*%
X142275000Y-107975000D02*
X142275000Y-108575000D01*
D66*
X139200000Y-110800000D02*
X139250000Y-110750000D01*
D61*
X140220000Y-109780000D02*
X140220000Y-108580000D01*
X141950000Y-107650000D02*
X142275000Y-107975000D01*
X141150000Y-107650000D02*
X141950000Y-107650000D01*
X139250000Y-110750000D02*
X140220000Y-109780000D01*
X140220000Y-108580000D02*
X141150000Y-107650000D01*
D66*
X137673770Y-110800000D02*
X139200000Y-110800000D01*
D61*
%TO.N,Net-(J3-TCT)*%
X115050744Y-110557000D02*
X115050744Y-112057000D01*
X115050744Y-112057000D02*
X115100744Y-112107000D01*
X114528600Y-111328200D02*
X114528600Y-111534856D01*
X114528600Y-111534856D02*
X115100744Y-112107000D01*
%TO.N,Net-(J3-RD+)*%
X113850200Y-118382000D02*
X113411000Y-118821200D01*
X111683800Y-122428000D02*
X109982000Y-122428000D01*
X113411000Y-120700800D02*
X111683800Y-122428000D01*
X115100744Y-118382000D02*
X113850200Y-118382000D01*
X113411000Y-118821200D02*
X113411000Y-120700800D01*
%TO.N,Net-(J3-RCT)*%
X114385600Y-114233200D02*
X114449544Y-114233200D01*
X115050744Y-115182000D02*
X115100744Y-115232000D01*
X115100744Y-115232000D02*
X115100744Y-116782000D01*
X115100744Y-116782000D02*
X115050744Y-116832000D01*
X114449544Y-114233200D02*
X115050744Y-113632000D01*
X115050744Y-113632000D02*
X115050744Y-115182000D01*
D66*
%TO.N,Net-(U1-SW)*%
X176511246Y-84813754D02*
X176625000Y-84700000D01*
X176511246Y-88170000D02*
X176511246Y-86675000D01*
X176625000Y-86561246D02*
X176625000Y-84625000D01*
X176511246Y-88438754D02*
X176511246Y-88170000D01*
X176511246Y-86675000D02*
X176511246Y-84813754D01*
X176511246Y-88438754D02*
X176510000Y-88440000D01*
X176511246Y-86675000D02*
X176625000Y-86561246D01*
D61*
%TO.N,Net-(U1-EN)*%
X178680000Y-89265000D02*
X178680000Y-89352500D01*
X176511246Y-90000000D02*
X176511246Y-89243019D01*
D63*
X179070000Y-91080000D02*
X178660000Y-90670000D01*
X178680000Y-90650000D02*
X178680000Y-89352500D01*
D61*
X178365000Y-88950000D02*
X178680000Y-89265000D01*
D66*
X178808620Y-89427500D02*
X178871120Y-89365000D01*
D63*
X178660000Y-90670000D02*
X178680000Y-90650000D01*
X179467500Y-91080000D02*
X179070000Y-91080000D01*
D61*
X176804265Y-88950000D02*
X178365000Y-88950000D01*
X176511246Y-89243019D02*
X176804265Y-88950000D01*
X178841120Y-89352500D02*
X178881120Y-89392500D01*
X178680000Y-89352500D02*
X178841120Y-89352500D01*
%TO.N,Net-(U1-PG)*%
X175996420Y-90013580D02*
X175996420Y-89343580D01*
X174240000Y-91380000D02*
X175240000Y-90380000D01*
X173892500Y-91380000D02*
X174240000Y-91380000D01*
X175630000Y-90380000D02*
X175996420Y-90013580D01*
X175240000Y-90380000D02*
X175630000Y-90380000D01*
%TO.N,Net-(SJ1-A)*%
X134251770Y-106553000D02*
X134023770Y-106325000D01*
D64*
X121285000Y-104019830D02*
X121887770Y-104622600D01*
X121361200Y-95631000D02*
X121285000Y-95707200D01*
D61*
X133223770Y-107125000D02*
X134023770Y-106325000D01*
X121811570Y-104698800D02*
X121887770Y-104622600D01*
D64*
X121285000Y-95707200D02*
X121285000Y-104019830D01*
D61*
X135578370Y-106553000D02*
X134251770Y-106553000D01*
X133223770Y-108350000D02*
X133223770Y-107125000D01*
D69*
%TO.N,Net-(SJ2-A)*%
X128928770Y-105925000D02*
X131523770Y-105925000D01*
X128823770Y-105820000D02*
X128928770Y-105925000D01*
D61*
X132548770Y-106375000D02*
X132723770Y-106550000D01*
X132723770Y-106550000D02*
X132723770Y-108350000D01*
D69*
X131973770Y-106375000D02*
X132548770Y-106375000D01*
X131523770Y-105925000D02*
X131973770Y-106375000D01*
D61*
%TO.N,Net-(SJ3-A)*%
X127373770Y-108400000D02*
X128798770Y-106975000D01*
X132223770Y-107375000D02*
X132223770Y-108350000D01*
X128798770Y-106975000D02*
X131823770Y-106975000D01*
X131823770Y-106975000D02*
X132223770Y-107375000D01*
D64*
X127373770Y-108400000D02*
X126948770Y-108825000D01*
X126948770Y-108825000D02*
X125773770Y-108825000D01*
D61*
%TO.N,Net-(U$1-EXRES1)*%
X127623770Y-114300000D02*
X127348770Y-114575000D01*
X129273770Y-114300000D02*
X127623770Y-114300000D01*
D66*
%TO.N,/Ethernet/ACTLED*%
X140948770Y-117592948D02*
X141058732Y-117482986D01*
D61*
X141058732Y-116377856D02*
X138980876Y-114300000D01*
X141058732Y-117482986D02*
X141058732Y-116377856D01*
X138980876Y-114300000D02*
X137673770Y-114300000D01*
D66*
%TO.N,/Ethernet/LINKLED*%
X137875000Y-117400000D02*
X138000000Y-117275000D01*
D63*
X137875000Y-119175000D02*
X137875000Y-117400000D01*
D61*
X138000000Y-117275000D02*
X138345000Y-117275000D01*
X138848770Y-115610000D02*
X138538770Y-115300000D01*
X138345000Y-117275000D02*
X138848770Y-116771230D01*
X138538770Y-115300000D02*
X137673770Y-115300000D01*
X138848770Y-116771230D02*
X138848770Y-115610000D01*
%TO.N,/Ethernet/DUPLED*%
X138773770Y-114800000D02*
X139348770Y-115375000D01*
D66*
X139350000Y-115375000D02*
X139348770Y-115375000D01*
D61*
X137673770Y-114800000D02*
X138773770Y-114800000D01*
D66*
X139525000Y-118875000D02*
X139525000Y-115550000D01*
X139525000Y-115550000D02*
X139350000Y-115375000D01*
D61*
%TO.N,Net-(J2-CC1)*%
X187398770Y-97590000D02*
X184775000Y-97590000D01*
X184775000Y-97590000D02*
X184210000Y-97025000D01*
%TO.N,Net-(J2-CC2)*%
X184284000Y-94246000D02*
X184255000Y-94275000D01*
X187398770Y-94590000D02*
X186353370Y-94590000D01*
X186009370Y-94246000D02*
X184284000Y-94246000D01*
X186353370Y-94590000D02*
X186009370Y-94246000D01*
%TO.N,Net-(J3-RD-)*%
X115068144Y-119989600D02*
X115075744Y-119982000D01*
X114211000Y-119989600D02*
X115068144Y-119989600D01*
D66*
%TO.N,Net-(D9-K)*%
X141051230Y-122723770D02*
X141051230Y-122325000D01*
D64*
X140575000Y-123800000D02*
X140575000Y-123200000D01*
X140575000Y-123200000D02*
X141051230Y-122723770D01*
%TO.N,VBAT*%
X177725000Y-81275000D02*
X176400000Y-81275000D01*
D66*
X177011372Y-88475000D02*
X177010000Y-88475000D01*
D64*
X176400000Y-81275000D02*
X176400000Y-79925000D01*
X182923770Y-92876230D02*
X182923770Y-92117814D01*
X181851270Y-87627500D02*
X180391120Y-87627500D01*
X180391120Y-87627500D02*
X178941120Y-87627500D01*
D66*
X178869420Y-87579200D02*
X178881120Y-87567500D01*
D64*
X178941120Y-87627500D02*
X178881120Y-87567500D01*
D66*
X177011372Y-87675198D02*
X177107370Y-87579200D01*
D64*
X181501570Y-94993000D02*
X181501570Y-94298430D01*
X178700000Y-83725000D02*
X178700000Y-82250000D01*
X178881120Y-87567500D02*
X178700000Y-87386380D01*
X176400000Y-79925000D02*
X175975000Y-79500000D01*
X182923770Y-88700000D02*
X182913770Y-88710000D01*
X181526970Y-95018400D02*
X181501570Y-94993000D01*
X181501570Y-94298430D02*
X182923770Y-92876230D01*
X178700000Y-87386380D02*
X178700000Y-83525000D01*
D66*
X177011372Y-88170000D02*
X177011372Y-88350000D01*
D64*
X182923770Y-88700000D02*
X181851270Y-87627500D01*
X182913770Y-88710000D02*
X182913770Y-89170000D01*
X178700000Y-82250000D02*
X177725000Y-81275000D01*
D70*
X182923770Y-92117814D02*
X182923770Y-88700000D01*
D66*
X177011372Y-87675198D02*
X177011372Y-88475000D01*
X177107370Y-87579200D02*
X178869420Y-87579200D01*
D64*
%TO.N,/MCU-WiFi/CHIP_PU*%
X185946270Y-124590000D02*
X185891270Y-124590000D01*
D70*
X185891270Y-128816270D02*
X185891270Y-124590000D01*
D64*
X191753770Y-124550000D02*
X193592770Y-124550000D01*
X179170000Y-101410000D02*
X183743770Y-101410000D01*
X178880000Y-101120000D02*
X179170000Y-101410000D01*
X183743770Y-101410000D02*
X184663770Y-102330000D01*
X193592770Y-124550000D02*
X193668170Y-124625400D01*
D69*
X191275000Y-125600000D02*
X192300000Y-124575000D01*
D70*
X187725000Y-130650000D02*
X185891270Y-128816270D01*
D69*
X185941270Y-125600000D02*
X191275000Y-125600000D01*
D66*
X185961270Y-124575000D02*
X185891270Y-124645000D01*
X185891270Y-125550000D02*
X185941270Y-125600000D01*
D60*
X187725000Y-130650000D02*
X182948770Y-130650000D01*
D64*
X185891270Y-124590000D02*
X184378770Y-124590000D01*
X191661270Y-124550000D02*
X191753770Y-124550000D01*
D66*
X185891270Y-124645000D02*
X185891270Y-125550000D01*
D70*
X184819185Y-122495415D02*
X185961270Y-123637500D01*
X185961270Y-123637500D02*
X185961270Y-124575000D01*
D60*
X187725000Y-130650000D02*
X188948770Y-130650000D01*
D69*
X192300000Y-124575000D02*
X192300000Y-124550000D01*
D64*
X185961270Y-124575000D02*
X185946270Y-124590000D01*
%TO.N,/Archi/MISO*%
X162889980Y-112435000D02*
X169383770Y-112435000D01*
X162427490Y-112897490D02*
X162889980Y-112435000D01*
X162427490Y-112897490D02*
X161836680Y-112897490D01*
D61*
X143122170Y-104470200D02*
X142925000Y-104667370D01*
D64*
X161836680Y-112897490D02*
X151130648Y-123603522D01*
X151130648Y-123603522D02*
X151130648Y-128163207D01*
D61*
X142925000Y-104667370D02*
X142925000Y-106675000D01*
D64*
X151123770Y-128156329D02*
X151130648Y-128163207D01*
%TO.N,/Ethernet/CS*%
X145524855Y-122618255D02*
X141986648Y-126156462D01*
D61*
X142087200Y-111150000D02*
X142062200Y-111125000D01*
X142045970Y-111800000D02*
X141123770Y-111800000D01*
D64*
X155194000Y-110667800D02*
X153739370Y-109213170D01*
X141986648Y-126156462D02*
X141986648Y-128163207D01*
D61*
X142062200Y-111125000D02*
X142062200Y-111106630D01*
D64*
X155949170Y-111422970D02*
X155949170Y-115390890D01*
X153739370Y-108368600D02*
X153663170Y-108292400D01*
D61*
X142842770Y-111150000D02*
X142695970Y-111150000D01*
X142695970Y-111150000D02*
X142045970Y-111800000D01*
D64*
X148721805Y-122618255D02*
X145524855Y-122618255D01*
X153739370Y-109213170D02*
X153739370Y-108368600D01*
D61*
X142842770Y-111150000D02*
X142087200Y-111150000D01*
X142045970Y-111800000D02*
X137673770Y-111800000D01*
D64*
X155194000Y-110667800D02*
X155949170Y-111422970D01*
D61*
X142062200Y-111106630D02*
X141625000Y-110669430D01*
X141625000Y-110669430D02*
X141625000Y-108575000D01*
D64*
X155949170Y-115390890D02*
X148721805Y-122618255D01*
D61*
%TO.N,/Ethernet/RX-*%
X122192570Y-121495030D02*
X121539000Y-122148600D01*
X124573970Y-112572800D02*
X125346770Y-111800000D01*
X125346770Y-111800000D02*
X129273770Y-111800000D01*
X122469273Y-112572800D02*
X120361073Y-114681000D01*
X123284770Y-112572800D02*
X124573970Y-112572800D01*
X121539000Y-122148600D02*
X117424200Y-122148600D01*
X117424200Y-122148600D02*
X116625744Y-121350144D01*
X116625744Y-121350144D02*
X116625744Y-119982000D01*
X122192570Y-120421400D02*
X122192570Y-121495030D01*
X120361073Y-114681000D02*
X117749744Y-114681000D01*
X123284770Y-112572800D02*
X122469273Y-112572800D01*
X117749744Y-114681000D02*
X116700744Y-113632000D01*
D64*
%TO.N,Net-(D4-A)*%
X173892500Y-88337500D02*
X173855000Y-88300000D01*
X173892500Y-89760000D02*
X173892500Y-88337500D01*
D61*
%TO.N,Net-(D5-A2)*%
X181526970Y-98374200D02*
X182762770Y-99610000D01*
X182762770Y-99610000D02*
X185350000Y-99610000D01*
X188548770Y-94175000D02*
X189303770Y-94930000D01*
X187398770Y-93890000D02*
X188258465Y-93890000D01*
X189303770Y-94930000D02*
X189303770Y-97760000D01*
X184285000Y-98300000D02*
X184775000Y-98790000D01*
X188543465Y-98505000D02*
X188228465Y-98820000D01*
X188228465Y-98820000D02*
X187428770Y-98820000D01*
X186170000Y-98790000D02*
X187398770Y-98790000D01*
X188258465Y-93890000D02*
X188543465Y-94175000D01*
X189303770Y-97760000D02*
X188558770Y-98505000D01*
X185350000Y-99610000D02*
X186170000Y-98790000D01*
X187428770Y-98820000D02*
X187398770Y-98790000D01*
X184775000Y-98790000D02*
X186170000Y-98790000D01*
X188543465Y-94175000D02*
X188548770Y-94175000D01*
X188558770Y-98505000D02*
X188543465Y-98505000D01*
X181526970Y-97818400D02*
X181450370Y-97895000D01*
X181526970Y-97818400D02*
X181526970Y-98374200D01*
D64*
%TO.N,/Ethernet/SCK*%
X162250791Y-111165000D02*
X169383770Y-111165000D01*
X147624800Y-124619400D02*
X148983400Y-124619400D01*
D61*
X140404370Y-110845600D02*
X139949970Y-111300000D01*
D64*
X148983400Y-124619400D02*
X161077490Y-112525310D01*
X147624800Y-124619400D02*
X145999200Y-126245000D01*
X145999200Y-128111759D02*
X146050648Y-128163207D01*
X161077490Y-112338301D02*
X162250791Y-111165000D01*
X161077490Y-112525310D02*
X161077490Y-112338301D01*
D61*
X139949970Y-111300000D02*
X137673770Y-111300000D01*
D64*
X145999200Y-126245000D02*
X145999200Y-128111759D01*
D70*
%TO.N,/Archi/READY*%
X162716370Y-117515000D02*
X169383770Y-117515000D01*
X156210648Y-124020722D02*
X156210648Y-128163207D01*
X161423770Y-118807600D02*
X162716370Y-117515000D01*
X161423770Y-118807600D02*
X156210648Y-124020722D01*
D64*
%TO.N,/Archi/CS1*%
X169358770Y-108650000D02*
X169383770Y-108625000D01*
X165640770Y-108650000D02*
X169358770Y-108650000D01*
X164178770Y-107188000D02*
X165640770Y-108650000D01*
X153670648Y-123563522D02*
X162146770Y-115087400D01*
X153670648Y-128163207D02*
X153670648Y-123563522D01*
%TO.N,/Ethernet/MOSI*%
X149002030Y-123469400D02*
X160277490Y-112193940D01*
X145458970Y-130810000D02*
X147871970Y-130810000D01*
X144138170Y-125631286D02*
X144138170Y-129489200D01*
D61*
X139120000Y-109746270D02*
X138566270Y-110300000D01*
D64*
X144138170Y-129489200D02*
X145458970Y-130810000D01*
X148590648Y-130091322D02*
X148590648Y-128163207D01*
X147871970Y-130810000D02*
X148590648Y-130091322D01*
X145565428Y-124204028D02*
X144138170Y-125631286D01*
X160277490Y-112193940D02*
X160277490Y-112006930D01*
X145565428Y-123750772D02*
X145846800Y-123469400D01*
X160277490Y-112006930D02*
X162389420Y-109895000D01*
X145565428Y-124204028D02*
X145565428Y-123750772D01*
D61*
X139120000Y-109080000D02*
X139120000Y-109746270D01*
X138566270Y-110300000D02*
X137673770Y-110300000D01*
D64*
X162389420Y-109895000D02*
X169383770Y-109895000D01*
X145846800Y-123469400D02*
X149002030Y-123469400D01*
%TO.N,/Ethernet/INTN*%
X153568400Y-111563630D02*
X153568400Y-116640290D01*
D63*
X152418708Y-108902138D02*
X151808970Y-108292400D01*
D64*
X140170000Y-125895000D02*
X139446648Y-126618352D01*
D63*
X152418708Y-110413938D02*
X152418708Y-108902138D01*
D64*
X141116740Y-125895000D02*
X140170000Y-125895000D01*
X152418708Y-110413938D02*
X153568400Y-111563630D01*
X139446648Y-126618352D02*
X139446648Y-128163207D01*
X145231540Y-121780200D02*
X141116740Y-125895000D01*
X148428490Y-121780200D02*
X145231540Y-121780200D01*
D61*
X137673770Y-108866430D02*
X137673770Y-109800000D01*
D64*
X153568400Y-116640290D02*
X148428490Y-121780200D01*
D61*
X138460000Y-108080200D02*
X137673770Y-108866430D01*
D64*
%TO.N,/Ethernet/RESET*%
X151993600Y-111898019D02*
X151993600Y-117083720D01*
D61*
X139388370Y-104546400D02*
X139388370Y-105797830D01*
D64*
X150107170Y-107721400D02*
X150107170Y-110011589D01*
X148097120Y-120980200D02*
X144900170Y-120980200D01*
X150107170Y-110011589D02*
X151993600Y-111898019D01*
X136906648Y-128163207D02*
X137283592Y-128163207D01*
X144900170Y-120980200D02*
X140785370Y-125095000D01*
D61*
X139388370Y-105797830D02*
X138697200Y-106489000D01*
X136223770Y-107825000D02*
X136223770Y-108350000D01*
D64*
X136906648Y-126338952D02*
X136906648Y-128163207D01*
X151993600Y-117083720D02*
X148097120Y-120980200D01*
D61*
X137559770Y-106489000D02*
X136223770Y-107825000D01*
D64*
X138150600Y-125095000D02*
X136906648Y-126338952D01*
X140785370Y-125095000D02*
X138150600Y-125095000D01*
D61*
X138697200Y-106489000D02*
X137559770Y-106489000D01*
D64*
%TO.N,Net-(D10-K)*%
X137900000Y-123875000D02*
X137823770Y-123798770D01*
D66*
X137900000Y-122375000D02*
X137850000Y-122325000D01*
D64*
X137900000Y-123875000D02*
X137900000Y-122375000D01*
D61*
%TO.N,Net-(U$1-RXP)*%
X116650744Y-118382000D02*
X116700744Y-118332000D01*
X124781077Y-113072800D02*
X123916141Y-113072800D01*
X123916141Y-113072800D02*
X123616141Y-113372800D01*
X125553876Y-112300000D02*
X125073970Y-112779907D01*
X122953399Y-113372800D02*
X122664889Y-113084290D01*
X123616141Y-113372800D02*
X122953399Y-113372800D01*
X129273770Y-112300000D02*
X125553876Y-112300000D01*
X125073970Y-112779907D02*
X124781077Y-113072800D01*
X122664889Y-113084290D02*
X117417179Y-118332000D01*
X116700744Y-116832000D02*
X116700744Y-118332000D01*
X117417179Y-118332000D02*
X116700744Y-118332000D01*
D66*
%TO.N,Net-(D11-K)*%
X139300000Y-122451230D02*
X139426230Y-122325000D01*
D64*
X139300000Y-124025000D02*
X139300000Y-122451230D01*
D61*
%TO.N,/Ethernet/TX+*%
X120103400Y-110300000D02*
X118745000Y-111658400D01*
X113223400Y-109007000D02*
X115050744Y-109007000D01*
X111150000Y-106933600D02*
X113223400Y-109007000D01*
X129273770Y-110300000D02*
X120103400Y-110300000D01*
X111150000Y-103125000D02*
X111150000Y-106933600D01*
X111400000Y-102875000D02*
X111150000Y-103125000D01*
%TO.N,/Ethernet/TX-*%
X112256256Y-106306256D02*
X113432000Y-107482000D01*
X118135400Y-110185200D02*
X118520600Y-109800000D01*
X113432000Y-107482000D02*
X115025744Y-107482000D01*
X118520600Y-109800000D02*
X129273770Y-109800000D01*
X112256256Y-103700000D02*
X112256256Y-106306256D01*
D64*
%TO.N,Net-(J11-Pin_3)*%
X110600000Y-82900000D02*
X110600000Y-81625000D01*
X110600000Y-81625000D02*
X114750000Y-77475000D01*
X131826648Y-78751648D02*
X131826648Y-79903207D01*
X130550000Y-77475000D02*
X131826648Y-78751648D01*
X114750000Y-77475000D02*
X130550000Y-77475000D01*
%TO.N,Net-(J11-Pin_2)*%
X113500000Y-76200000D02*
X131425000Y-76200000D01*
X108060000Y-81640000D02*
X113500000Y-76200000D01*
X108060000Y-82900000D02*
X108060000Y-81640000D01*
X131425000Y-76200000D02*
X134366648Y-79141648D01*
X134366648Y-79141648D02*
X134366648Y-79903207D01*
%TD*%
%TA.AperFunction,Conductor*%
%TO.N,/Archi/READY*%
G36*
X156560645Y-126085849D02*
G01*
X156563404Y-126090225D01*
X157187350Y-127856561D01*
X157186874Y-127865503D01*
X157180215Y-127871490D01*
X157179699Y-127871659D01*
X156214029Y-128163186D01*
X156207267Y-128163186D01*
X155241596Y-127871659D01*
X155234666Y-127865987D01*
X155233776Y-127857077D01*
X155233945Y-127856561D01*
X155857892Y-126090225D01*
X155863879Y-126083566D01*
X155868924Y-126082422D01*
X156552372Y-126082422D01*
X156560645Y-126085849D01*
G37*
%TD.AperFunction*%
%TD*%
%TA.AperFunction,Conductor*%
%TO.N,/MCU-WiFi/GPIO0*%
G36*
X159100645Y-126085849D02*
G01*
X159103404Y-126090225D01*
X159727350Y-127856561D01*
X159726874Y-127865503D01*
X159720215Y-127871490D01*
X159719699Y-127871659D01*
X158754029Y-128163186D01*
X158747267Y-128163186D01*
X157781596Y-127871659D01*
X157774666Y-127865987D01*
X157773776Y-127857077D01*
X157773945Y-127856561D01*
X158397892Y-126090225D01*
X158403879Y-126083566D01*
X158408924Y-126082422D01*
X159092372Y-126082422D01*
X159100645Y-126085849D01*
G37*
%TD.AperFunction*%
%TD*%
%TA.AperFunction,Conductor*%
%TO.N,/Ethernet/INTN*%
G36*
X139621781Y-126035871D02*
G01*
X139623512Y-126037298D01*
X140035551Y-126449337D01*
X140038559Y-126454507D01*
X140424404Y-127857107D01*
X140423294Y-127865992D01*
X140416499Y-127871412D01*
X139451782Y-128162153D01*
X139442872Y-128161259D01*
X139441153Y-128160132D01*
X138623692Y-127514362D01*
X138619325Y-127506544D01*
X138621244Y-127498640D01*
X139605539Y-126039028D01*
X139613005Y-126034086D01*
X139621781Y-126035871D01*
G37*
%TD.AperFunction*%
%TD*%
%TA.AperFunction,Conductor*%
%TO.N,/Ethernet/SCK*%
G36*
X145910581Y-125927639D02*
G01*
X145914236Y-125930116D01*
X146324869Y-126340749D01*
X146327157Y-126343986D01*
X146878095Y-127499201D01*
X146878563Y-127508143D01*
X146874779Y-127513424D01*
X146057192Y-128158195D01*
X146048574Y-128160627D01*
X146042694Y-128158189D01*
X145226214Y-127513195D01*
X145221847Y-127505377D01*
X145222716Y-127499398D01*
X145895215Y-125933768D01*
X145901627Y-125927522D01*
X145910581Y-125927639D01*
G37*
%TD.AperFunction*%
%TD*%
%TA.AperFunction,Conductor*%
%TO.N,AGND*%
G36*
X116073962Y-109095840D02*
G01*
X116099561Y-109151413D01*
X116100244Y-109163018D01*
X116100244Y-109313520D01*
X116100245Y-109313523D01*
X116115096Y-109407299D01*
X116115098Y-109407304D01*
X116172694Y-109520342D01*
X116262402Y-109610050D01*
X116296189Y-109627265D01*
X116312579Y-109643655D01*
X116331337Y-109657283D01*
X116333805Y-109664879D01*
X116339452Y-109670526D01*
X116350244Y-109715474D01*
X116350244Y-109848525D01*
X116331337Y-109906716D01*
X116296190Y-109936734D01*
X116262403Y-109953949D01*
X116172693Y-110043659D01*
X116115098Y-110156695D01*
X116100244Y-110250477D01*
X116100244Y-110863520D01*
X116100245Y-110863523D01*
X116115096Y-110957299D01*
X116115098Y-110957304D01*
X116172694Y-111070342D01*
X116262402Y-111160050D01*
X116375440Y-111217646D01*
X116469225Y-111232500D01*
X116932262Y-111232499D01*
X116932264Y-111232499D01*
X116932265Y-111232498D01*
X116979155Y-111225072D01*
X117026043Y-111217647D01*
X117026043Y-111217646D01*
X117026048Y-111217646D01*
X117139086Y-111160050D01*
X117228794Y-111070342D01*
X117286390Y-110957304D01*
X117301244Y-110863519D01*
X117301243Y-110250482D01*
X117287520Y-110163828D01*
X117286391Y-110156699D01*
X117286390Y-110156697D01*
X117286390Y-110156696D01*
X117228794Y-110043658D01*
X117139086Y-109953950D01*
X117105298Y-109936734D01*
X117088908Y-109920344D01*
X117070151Y-109906716D01*
X117067682Y-109899117D01*
X117062034Y-109893469D01*
X117051244Y-109848525D01*
X117051244Y-109715474D01*
X117070151Y-109657283D01*
X117105297Y-109627265D01*
X117139086Y-109610050D01*
X117228794Y-109520342D01*
X117251435Y-109475907D01*
X117258748Y-109461555D01*
X117302012Y-109418290D01*
X117346957Y-109407500D01*
X117815390Y-109407500D01*
X117873581Y-109426407D01*
X117909545Y-109475907D01*
X117909545Y-109537093D01*
X117873581Y-109586593D01*
X117853276Y-109597964D01*
X117827274Y-109608734D01*
X117827266Y-109608738D01*
X117720731Y-109679924D01*
X117720727Y-109679927D01*
X117630127Y-109770527D01*
X117630124Y-109770531D01*
X117558938Y-109877066D01*
X117558934Y-109877074D01*
X117509900Y-109995452D01*
X117509899Y-109995455D01*
X117509899Y-109995456D01*
X117484900Y-110121131D01*
X117484900Y-110249269D01*
X117498466Y-110317468D01*
X117509899Y-110374942D01*
X117509900Y-110374947D01*
X117558934Y-110493325D01*
X117558938Y-110493333D01*
X117601765Y-110557426D01*
X117630124Y-110599869D01*
X117720731Y-110690476D01*
X117784248Y-110732917D01*
X117827266Y-110761661D01*
X117827270Y-110761663D01*
X117827273Y-110761665D01*
X117945656Y-110810701D01*
X118071331Y-110835700D01*
X118071332Y-110835700D01*
X118199468Y-110835700D01*
X118199469Y-110835700D01*
X118325144Y-110810701D01*
X118443527Y-110761665D01*
X118550069Y-110690476D01*
X118640676Y-110599869D01*
X118711865Y-110493327D01*
X118760901Y-110374944D01*
X118785900Y-110249269D01*
X118785900Y-110249258D01*
X118786376Y-110244433D01*
X118787510Y-110244544D01*
X118804807Y-110191309D01*
X118854307Y-110155345D01*
X118884900Y-110150500D01*
X119518210Y-110150500D01*
X119576401Y-110169407D01*
X119612365Y-110218907D01*
X119612365Y-110280093D01*
X119588213Y-110319504D01*
X118922177Y-110985538D01*
X118867661Y-111013315D01*
X118832861Y-111012632D01*
X118809074Y-111007900D01*
X118809069Y-111007900D01*
X118680931Y-111007900D01*
X118680930Y-111007900D01*
X118622465Y-111019530D01*
X118555256Y-111032899D01*
X118555255Y-111032899D01*
X118555252Y-111032900D01*
X118436874Y-111081934D01*
X118436866Y-111081938D01*
X118330331Y-111153124D01*
X118330327Y-111153127D01*
X118239727Y-111243727D01*
X118239724Y-111243731D01*
X118168538Y-111350266D01*
X118168534Y-111350274D01*
X118119500Y-111468652D01*
X118119500Y-111468653D01*
X118119499Y-111468656D01*
X118094500Y-111594331D01*
X118094500Y-111722469D01*
X118114599Y-111823512D01*
X118119499Y-111848142D01*
X118119500Y-111848147D01*
X118168534Y-111966525D01*
X118168538Y-111966533D01*
X118188451Y-111996334D01*
X118239724Y-112073069D01*
X118330331Y-112163676D01*
X118389772Y-112203393D01*
X118436866Y-112234861D01*
X118436870Y-112234863D01*
X118436873Y-112234865D01*
X118555256Y-112283901D01*
X118680931Y-112308900D01*
X118680932Y-112308900D01*
X118809068Y-112308900D01*
X118809069Y-112308900D01*
X118934744Y-112283901D01*
X119053127Y-112234865D01*
X119159669Y-112163676D01*
X119250276Y-112073069D01*
X119321465Y-111966527D01*
X119370501Y-111848144D01*
X119395500Y-111722469D01*
X119395500Y-111594331D01*
X119390767Y-111570538D01*
X119397957Y-111509779D01*
X119417861Y-111481220D01*
X120219587Y-110679496D01*
X120274103Y-110651719D01*
X120289590Y-110650500D01*
X129319914Y-110650500D01*
X129335317Y-110646373D01*
X129360939Y-110643000D01*
X129843517Y-110643000D01*
X129843518Y-110643000D01*
X129901413Y-110631484D01*
X129962174Y-110638674D01*
X130005766Y-110677890D01*
X130078440Y-110799813D01*
X130091993Y-110859476D01*
X130067888Y-110915713D01*
X130015331Y-110947040D01*
X129993401Y-110949500D01*
X129227626Y-110949500D01*
X129212223Y-110953627D01*
X129186601Y-110957000D01*
X128704022Y-110957000D01*
X128704021Y-110957000D01*
X128704011Y-110957001D01*
X128645542Y-110968632D01*
X128645536Y-110968634D01*
X128579221Y-111012945D01*
X128579215Y-111012951D01*
X128534904Y-111079266D01*
X128534902Y-111079272D01*
X128523271Y-111137741D01*
X128523270Y-111137753D01*
X128523270Y-111350500D01*
X128504363Y-111408691D01*
X128454863Y-111444655D01*
X128424270Y-111449500D01*
X125300626Y-111449500D01*
X125229135Y-111468656D01*
X125229134Y-111468655D01*
X125211481Y-111473386D01*
X125131559Y-111519529D01*
X125131557Y-111519531D01*
X124457783Y-112193304D01*
X124403267Y-112221081D01*
X124387780Y-112222300D01*
X123885839Y-112222300D01*
X123827648Y-112203393D01*
X123803523Y-112178301D01*
X123790046Y-112158131D01*
X123699447Y-112067531D01*
X123699442Y-112067527D01*
X123699439Y-112067524D01*
X123644003Y-112030483D01*
X123592903Y-111996338D01*
X123592895Y-111996334D01*
X123474517Y-111947300D01*
X123474515Y-111947299D01*
X123474514Y-111947299D01*
X123348839Y-111922300D01*
X123220701Y-111922300D01*
X123220700Y-111922300D01*
X123157863Y-111934799D01*
X123095026Y-111947299D01*
X123095025Y-111947299D01*
X123095022Y-111947300D01*
X122976644Y-111996334D01*
X122976636Y-111996338D01*
X122870101Y-112067524D01*
X122870092Y-112067531D01*
X122779493Y-112158131D01*
X122766017Y-112178301D01*
X122717967Y-112216181D01*
X122683701Y-112222300D01*
X122423129Y-112222300D01*
X122333985Y-112246186D01*
X122254061Y-112292330D01*
X120244887Y-114301504D01*
X120190370Y-114329281D01*
X120174883Y-114330500D01*
X117935934Y-114330500D01*
X117877743Y-114311593D01*
X117865930Y-114301504D01*
X117330239Y-113765813D01*
X117302462Y-113711296D01*
X117301243Y-113695809D01*
X117301243Y-113397731D01*
X118424700Y-113397731D01*
X118424700Y-113525869D01*
X118449491Y-113650500D01*
X118449699Y-113651542D01*
X118449700Y-113651547D01*
X118498734Y-113769925D01*
X118498738Y-113769933D01*
X118541565Y-113834026D01*
X118569924Y-113876469D01*
X118660531Y-113967076D01*
X118724048Y-114009517D01*
X118767066Y-114038261D01*
X118767070Y-114038263D01*
X118767073Y-114038265D01*
X118885456Y-114087301D01*
X119011131Y-114112300D01*
X119011132Y-114112300D01*
X119139268Y-114112300D01*
X119139269Y-114112300D01*
X119264944Y-114087301D01*
X119383327Y-114038265D01*
X119489869Y-113967076D01*
X119580476Y-113876469D01*
X119651665Y-113769927D01*
X119700701Y-113651544D01*
X119725700Y-113525869D01*
X119725700Y-113397731D01*
X119700701Y-113272056D01*
X119651665Y-113153673D01*
X119651663Y-113153670D01*
X119651661Y-113153666D01*
X119622917Y-113110648D01*
X119580476Y-113047131D01*
X119489869Y-112956524D01*
X119447426Y-112928165D01*
X119383333Y-112885338D01*
X119383325Y-112885334D01*
X119264947Y-112836300D01*
X119264945Y-112836299D01*
X119264944Y-112836299D01*
X119139269Y-112811300D01*
X119011131Y-112811300D01*
X119011130Y-112811300D01*
X118948293Y-112823799D01*
X118885456Y-112836299D01*
X118885455Y-112836299D01*
X118885452Y-112836300D01*
X118767074Y-112885334D01*
X118767066Y-112885338D01*
X118660531Y-112956524D01*
X118660527Y-112956527D01*
X118569927Y-113047127D01*
X118569924Y-113047131D01*
X118498738Y-113153666D01*
X118498734Y-113153674D01*
X118449700Y-113272052D01*
X118449699Y-113272055D01*
X118449699Y-113272056D01*
X118424700Y-113397731D01*
X117301243Y-113397731D01*
X117301243Y-113325478D01*
X117301242Y-113325476D01*
X117286391Y-113231700D01*
X117286390Y-113231698D01*
X117286390Y-113231696D01*
X117228794Y-113118658D01*
X117139086Y-113028950D01*
X117026048Y-112971354D01*
X117026049Y-112971354D01*
X116932266Y-112956500D01*
X116469223Y-112956500D01*
X116469220Y-112956501D01*
X116375444Y-112971352D01*
X116375439Y-112971354D01*
X116262403Y-113028949D01*
X116172693Y-113118659D01*
X116115098Y-113231695D01*
X116100244Y-113325477D01*
X116100244Y-113938520D01*
X116100245Y-113938523D01*
X116115096Y-114032299D01*
X116115098Y-114032304D01*
X116172694Y-114145342D01*
X116262402Y-114235050D01*
X116375440Y-114292646D01*
X116469225Y-114307500D01*
X116839553Y-114307499D01*
X116897744Y-114326406D01*
X116909557Y-114336495D01*
X117534532Y-114961470D01*
X117614456Y-115007614D01*
X117703600Y-115031500D01*
X119982989Y-115031500D01*
X120041180Y-115050407D01*
X120077144Y-115099907D01*
X120077144Y-115161093D01*
X120052993Y-115200504D01*
X119310504Y-115942992D01*
X119255987Y-115970769D01*
X119195555Y-115961198D01*
X119152290Y-115917933D01*
X119141500Y-115872988D01*
X119141500Y-115861532D01*
X119141500Y-115861531D01*
X119116501Y-115735856D01*
X119067465Y-115617473D01*
X119067463Y-115617470D01*
X119067461Y-115617466D01*
X119002825Y-115520733D01*
X118996276Y-115510931D01*
X118905669Y-115420324D01*
X118863226Y-115391965D01*
X118799133Y-115349138D01*
X118799125Y-115349134D01*
X118680747Y-115300100D01*
X118680745Y-115300099D01*
X118680744Y-115300099D01*
X118555069Y-115275100D01*
X118426931Y-115275100D01*
X118426930Y-115275100D01*
X118364093Y-115287599D01*
X118301256Y-115300099D01*
X118301255Y-115300099D01*
X118301252Y-115300100D01*
X118182874Y-115349134D01*
X118182866Y-115349138D01*
X118076331Y-115420324D01*
X118076327Y-115420327D01*
X117985727Y-115510927D01*
X117985724Y-115510931D01*
X117914538Y-115617466D01*
X117914534Y-115617474D01*
X117865500Y-115735852D01*
X117865499Y-115735855D01*
X117865499Y-115735856D01*
X117840500Y-115861531D01*
X117840500Y-115989669D01*
X117862566Y-116100601D01*
X117865499Y-116115342D01*
X117865500Y-116115347D01*
X117914534Y-116233725D01*
X117914538Y-116233733D01*
X117957365Y-116297826D01*
X117985724Y-116340269D01*
X118076331Y-116430876D01*
X118139848Y-116473317D01*
X118182866Y-116502061D01*
X118182870Y-116502063D01*
X118182873Y-116502065D01*
X118301256Y-116551101D01*
X118426931Y-116576100D01*
X118426932Y-116576100D01*
X118438388Y-116576100D01*
X118496579Y-116595007D01*
X118532543Y-116644507D01*
X118532543Y-116705693D01*
X118508392Y-116745104D01*
X117369497Y-117883998D01*
X117358370Y-117889666D01*
X117350143Y-117899056D01*
X117331768Y-117903220D01*
X117314980Y-117911775D01*
X117302647Y-117909821D01*
X117290471Y-117912582D01*
X117275363Y-117905500D01*
X117254548Y-117902204D01*
X117234245Y-117888450D01*
X117225128Y-117880461D01*
X117224272Y-117878780D01*
X117128964Y-117783472D01*
X117094289Y-117765804D01*
X117084996Y-117757660D01*
X117075355Y-117741470D01*
X117062034Y-117728148D01*
X117058393Y-117712982D01*
X117053693Y-117705089D01*
X117054467Y-117696629D01*
X117051244Y-117683204D01*
X117051244Y-117540474D01*
X117070151Y-117482283D01*
X117105297Y-117452265D01*
X117139086Y-117435050D01*
X117228794Y-117345342D01*
X117286390Y-117232304D01*
X117301244Y-117138519D01*
X117301243Y-116525482D01*
X117286390Y-116431696D01*
X117228794Y-116318658D01*
X117139086Y-116228950D01*
X117026048Y-116171354D01*
X117026049Y-116171354D01*
X116932266Y-116156500D01*
X116469223Y-116156500D01*
X116469220Y-116156501D01*
X116375444Y-116171352D01*
X116375439Y-116171354D01*
X116262403Y-116228949D01*
X116172693Y-116318659D01*
X116115098Y-116431695D01*
X116100244Y-116525477D01*
X116100244Y-117138520D01*
X116100245Y-117138523D01*
X116115096Y-117232299D01*
X116115098Y-117232304D01*
X116172694Y-117345342D01*
X116262402Y-117435050D01*
X116296189Y-117452265D01*
X116312579Y-117468655D01*
X116331337Y-117482283D01*
X116333805Y-117489879D01*
X116339452Y-117495526D01*
X116350244Y-117540474D01*
X116350244Y-117632251D01*
X116331337Y-117690442D01*
X116296190Y-117720460D01*
X116172525Y-117783471D01*
X116077214Y-117878782D01*
X116016027Y-117998867D01*
X116016025Y-117998874D01*
X116000244Y-118098510D01*
X116000244Y-118665489D01*
X116016025Y-118765125D01*
X116016027Y-118765132D01*
X116077214Y-118885217D01*
X116077216Y-118885220D01*
X116172524Y-118980528D01*
X116172526Y-118980529D01*
X116292611Y-119041716D01*
X116292613Y-119041716D01*
X116292618Y-119041719D01*
X116368285Y-119053703D01*
X116392254Y-119057500D01*
X116392256Y-119057500D01*
X116909234Y-119057500D01*
X116930629Y-119054111D01*
X117008870Y-119041719D01*
X117128964Y-118980528D01*
X117224272Y-118885220D01*
X117285463Y-118765126D01*
X117285463Y-118765119D01*
X117287870Y-118757718D01*
X117289311Y-118758186D01*
X117313095Y-118711501D01*
X117367610Y-118683720D01*
X117383103Y-118682500D01*
X117463321Y-118682500D01*
X117463323Y-118682500D01*
X117552467Y-118658614D01*
X117593854Y-118634719D01*
X117632391Y-118612470D01*
X122594887Y-113649973D01*
X122649402Y-113622198D01*
X122709834Y-113631769D01*
X122734889Y-113649972D01*
X122738187Y-113653270D01*
X122818111Y-113699414D01*
X122907255Y-113723300D01*
X122907256Y-113723300D01*
X122907257Y-113723300D01*
X123662283Y-113723300D01*
X123662285Y-113723300D01*
X123751429Y-113699414D01*
X123831353Y-113653270D01*
X123963896Y-113520727D01*
X124032328Y-113452296D01*
X124086844Y-113424519D01*
X124102331Y-113423300D01*
X124827219Y-113423300D01*
X124827221Y-113423300D01*
X124916365Y-113399414D01*
X124919270Y-113397736D01*
X124919280Y-113397734D01*
X124919279Y-113397732D01*
X124942157Y-113384522D01*
X124996289Y-113353270D01*
X125354439Y-112995119D01*
X125670062Y-112679496D01*
X125724579Y-112651719D01*
X125740066Y-112650500D01*
X128424270Y-112650500D01*
X128482461Y-112669407D01*
X128518425Y-112718907D01*
X128523270Y-112749500D01*
X128523270Y-112962246D01*
X128523271Y-112962258D01*
X128536805Y-113030293D01*
X128532836Y-113031082D01*
X128535829Y-113069512D01*
X128536805Y-113069707D01*
X128536114Y-113073175D01*
X128536116Y-113073189D01*
X128536106Y-113073218D01*
X128523271Y-113137741D01*
X128523270Y-113137753D01*
X128523270Y-113462246D01*
X128523271Y-113462258D01*
X128534902Y-113520727D01*
X128534904Y-113520733D01*
X128538336Y-113525869D01*
X128579218Y-113587052D01*
X128645539Y-113631367D01*
X128690001Y-113640211D01*
X128704011Y-113642998D01*
X128704016Y-113642998D01*
X128704022Y-113643000D01*
X129186601Y-113643000D01*
X129212223Y-113646373D01*
X129227626Y-113650500D01*
X130060132Y-113650500D01*
X130118323Y-113669407D01*
X130154287Y-113718907D01*
X130158693Y-113758811D01*
X130140114Y-113955483D01*
X130115818Y-114011637D01*
X130063155Y-114042786D01*
X130002241Y-114037032D01*
X129971549Y-114016176D01*
X129968324Y-114012951D01*
X129968322Y-114012948D01*
X129966360Y-114011637D01*
X129902003Y-113968634D01*
X129902001Y-113968633D01*
X129901998Y-113968632D01*
X129901997Y-113968632D01*
X129843528Y-113957001D01*
X129843518Y-113957000D01*
X129843517Y-113957000D01*
X129360939Y-113957000D01*
X129335317Y-113953627D01*
X129319914Y-113949500D01*
X127766820Y-113949500D01*
X127721875Y-113938710D01*
X127721502Y-113938520D01*
X127674074Y-113914354D01*
X127674061Y-113914352D01*
X127580290Y-113899500D01*
X127117249Y-113899500D01*
X127117246Y-113899501D01*
X127023470Y-113914352D01*
X127023465Y-113914354D01*
X126910429Y-113971949D01*
X126820719Y-114061659D01*
X126763124Y-114174695D01*
X126748270Y-114268477D01*
X126748270Y-114881520D01*
X126748271Y-114881523D01*
X126763122Y-114975299D01*
X126763124Y-114975304D01*
X126820720Y-115088342D01*
X126910428Y-115178050D01*
X127023466Y-115235646D01*
X127117251Y-115250500D01*
X127580288Y-115250499D01*
X127580290Y-115250499D01*
X127580291Y-115250498D01*
X127627181Y-115243072D01*
X127674069Y-115235647D01*
X127674069Y-115235646D01*
X127674074Y-115235646D01*
X127787112Y-115178050D01*
X127876820Y-115088342D01*
X127934416Y-114975304D01*
X127945696Y-114904081D01*
X127949270Y-114881521D01*
X127949270Y-114749500D01*
X127968177Y-114691309D01*
X128017677Y-114655345D01*
X128048270Y-114650500D01*
X128424270Y-114650500D01*
X128482461Y-114669407D01*
X128518425Y-114718907D01*
X128523270Y-114749500D01*
X128523270Y-114962246D01*
X128523271Y-114962258D01*
X128536805Y-115030293D01*
X128532836Y-115031082D01*
X128535829Y-115069512D01*
X128536805Y-115069707D01*
X128536114Y-115073175D01*
X128536116Y-115073189D01*
X128536106Y-115073218D01*
X128523271Y-115137741D01*
X128523270Y-115137753D01*
X128523270Y-115462246D01*
X128523271Y-115462258D01*
X128534902Y-115520727D01*
X128534904Y-115520733D01*
X128576929Y-115583627D01*
X128579218Y-115587052D01*
X128645539Y-115631367D01*
X128690001Y-115640211D01*
X128704011Y-115642998D01*
X128704016Y-115642998D01*
X128704022Y-115643000D01*
X128704023Y-115643000D01*
X129843517Y-115643000D01*
X129843518Y-115643000D01*
X129902001Y-115631367D01*
X129968322Y-115587052D01*
X129968322Y-115587051D01*
X129973447Y-115583627D01*
X129984528Y-115580501D01*
X129993519Y-115573309D01*
X130013286Y-115572390D01*
X130032335Y-115567018D01*
X130043137Y-115571003D01*
X130054639Y-115570469D01*
X130071172Y-115581345D01*
X130089738Y-115588195D01*
X130105755Y-115604097D01*
X130136876Y-115642998D01*
X130198425Y-115719934D01*
X130202207Y-115724984D01*
X130305810Y-115872988D01*
X130391803Y-115995836D01*
X130390680Y-115996621D01*
X130406244Y-116012768D01*
X130414704Y-116073366D01*
X130399541Y-116111085D01*
X130392405Y-116121764D01*
X130392402Y-116121772D01*
X130380771Y-116180241D01*
X130380770Y-116180253D01*
X130380770Y-117319746D01*
X130380771Y-117319758D01*
X130392402Y-117378227D01*
X130392404Y-117378233D01*
X130424637Y-117426472D01*
X130436718Y-117444552D01*
X130503039Y-117488867D01*
X130547501Y-117497711D01*
X130561511Y-117500498D01*
X130561516Y-117500498D01*
X130561522Y-117500500D01*
X130561523Y-117500500D01*
X130886017Y-117500500D01*
X130886018Y-117500500D01*
X130944501Y-117488867D01*
X131010822Y-117444552D01*
X131055137Y-117378231D01*
X131066770Y-117319748D01*
X131066770Y-116180252D01*
X131062045Y-116156500D01*
X131053235Y-116112207D01*
X131056469Y-116111563D01*
X131052966Y-116067152D01*
X131084926Y-116014977D01*
X131141449Y-115991552D01*
X131151113Y-115991263D01*
X131276178Y-115993668D01*
X131333990Y-116013690D01*
X131368995Y-116063872D01*
X131373270Y-116092649D01*
X131373270Y-116670331D01*
X131369897Y-116695952D01*
X131365770Y-116711353D01*
X131365770Y-117425599D01*
X131346863Y-117483790D01*
X131336774Y-117495603D01*
X130961873Y-117870504D01*
X130907356Y-117898281D01*
X130891869Y-117899500D01*
X128873270Y-117899500D01*
X128815079Y-117880593D01*
X128779115Y-117831093D01*
X128774270Y-117800500D01*
X128774270Y-117741510D01*
X128765035Y-117683204D01*
X128758489Y-117641874D01*
X128758486Y-117641869D01*
X128758486Y-117641867D01*
X128697299Y-117521782D01*
X128697298Y-117521780D01*
X128601990Y-117426472D01*
X128601987Y-117426470D01*
X128505052Y-117377079D01*
X128461787Y-117333815D01*
X128451066Y-117285211D01*
X128473200Y-116687600D01*
X128473198Y-116687599D01*
X128473199Y-116687599D01*
X128473200Y-116687599D01*
X120980200Y-116662199D01*
X120971584Y-116811544D01*
X120942100Y-117322600D01*
X120934620Y-117452263D01*
X120932950Y-117481202D01*
X120910722Y-117538207D01*
X120859233Y-117571260D01*
X120834114Y-117574500D01*
X120710727Y-117574500D01*
X120605273Y-117574500D01*
X120542929Y-117591204D01*
X120503407Y-117601794D01*
X120412091Y-117654516D01*
X120412086Y-117654520D01*
X119518501Y-118548104D01*
X119463985Y-118575881D01*
X119448498Y-118577100D01*
X119359900Y-118577100D01*
X119297063Y-118589599D01*
X119234226Y-118602099D01*
X119234225Y-118602099D01*
X119234222Y-118602100D01*
X119115844Y-118651134D01*
X119115836Y-118651138D01*
X119009301Y-118722324D01*
X119009297Y-118722327D01*
X118918697Y-118812927D01*
X118918694Y-118812931D01*
X118847508Y-118919466D01*
X118847504Y-118919474D01*
X118798470Y-119037852D01*
X118798469Y-119037855D01*
X118798469Y-119037856D01*
X118773470Y-119163531D01*
X118773470Y-119291669D01*
X118791731Y-119383472D01*
X118798469Y-119417342D01*
X118798470Y-119417347D01*
X118847504Y-119535725D01*
X118847508Y-119535733D01*
X118889694Y-119598867D01*
X118918694Y-119642269D01*
X119009301Y-119732876D01*
X119066208Y-119770900D01*
X119115836Y-119804061D01*
X119115840Y-119804063D01*
X119115843Y-119804065D01*
X119234226Y-119853101D01*
X119359901Y-119878100D01*
X119359902Y-119878100D01*
X119488038Y-119878100D01*
X119488039Y-119878100D01*
X119613714Y-119853101D01*
X119732097Y-119804065D01*
X119838639Y-119732876D01*
X119929246Y-119642269D01*
X120000435Y-119535727D01*
X120049471Y-119417344D01*
X120074470Y-119291669D01*
X120074470Y-119165930D01*
X120093377Y-119107739D01*
X120103466Y-119095926D01*
X120794897Y-118404496D01*
X120802014Y-118400869D01*
X120806710Y-118394407D01*
X120828758Y-118387243D01*
X120849414Y-118376719D01*
X120864901Y-118375500D01*
X120949974Y-118375500D01*
X121008165Y-118394407D01*
X121038184Y-118429555D01*
X121050242Y-118453220D01*
X121145550Y-118548528D01*
X121145552Y-118548529D01*
X121265637Y-118609716D01*
X121265639Y-118609716D01*
X121265644Y-118609719D01*
X121333587Y-118620480D01*
X121365280Y-118625500D01*
X121365282Y-118625500D01*
X121932260Y-118625500D01*
X121953655Y-118622111D01*
X122031896Y-118609719D01*
X122151990Y-118548528D01*
X122247298Y-118453220D01*
X122259356Y-118429555D01*
X122302621Y-118386290D01*
X122347566Y-118375500D01*
X122549974Y-118375500D01*
X122608165Y-118394407D01*
X122638184Y-118429555D01*
X122650242Y-118453220D01*
X122745550Y-118548528D01*
X122745552Y-118548529D01*
X122865637Y-118609716D01*
X122865639Y-118609716D01*
X122865644Y-118609719D01*
X122933587Y-118620480D01*
X122965280Y-118625500D01*
X122965282Y-118625500D01*
X123532260Y-118625500D01*
X123553655Y-118622111D01*
X123631896Y-118609719D01*
X123751990Y-118548528D01*
X123847298Y-118453220D01*
X123859356Y-118429555D01*
X123902621Y-118386290D01*
X123947566Y-118375500D01*
X124149974Y-118375500D01*
X124208165Y-118394407D01*
X124238184Y-118429555D01*
X124250242Y-118453220D01*
X124345550Y-118548528D01*
X124345552Y-118548529D01*
X124465637Y-118609716D01*
X124465639Y-118609716D01*
X124465644Y-118609719D01*
X124533587Y-118620480D01*
X124565280Y-118625500D01*
X124565282Y-118625500D01*
X125132260Y-118625500D01*
X125153655Y-118622111D01*
X125231896Y-118609719D01*
X125351990Y-118548528D01*
X125447298Y-118453220D01*
X125459356Y-118429555D01*
X125502621Y-118386290D01*
X125547566Y-118375500D01*
X125799974Y-118375500D01*
X125858165Y-118394407D01*
X125888184Y-118429555D01*
X125900242Y-118453220D01*
X125995550Y-118548528D01*
X125995552Y-118548529D01*
X126115637Y-118609716D01*
X126115639Y-118609716D01*
X126115644Y-118609719D01*
X126183587Y-118620480D01*
X126215280Y-118625500D01*
X126215282Y-118625500D01*
X126782260Y-118625500D01*
X126803655Y-118622111D01*
X126881896Y-118609719D01*
X127001990Y-118548528D01*
X127097298Y-118453220D01*
X127097301Y-118453215D01*
X127101880Y-118446914D01*
X127103257Y-118447915D01*
X127139884Y-118411290D01*
X127184828Y-118400500D01*
X127399974Y-118400500D01*
X127458165Y-118419407D01*
X127488184Y-118454555D01*
X127500242Y-118478220D01*
X127595550Y-118573528D01*
X127595552Y-118573529D01*
X127715637Y-118634716D01*
X127715639Y-118634716D01*
X127715644Y-118634719D01*
X127791311Y-118646703D01*
X127815280Y-118650500D01*
X127815282Y-118650500D01*
X128178325Y-118650500D01*
X128227825Y-118663764D01*
X128244178Y-118673205D01*
X128244176Y-118673205D01*
X128244180Y-118673206D01*
X128244182Y-118673207D01*
X128346043Y-118700500D01*
X128346045Y-118700500D01*
X131151495Y-118700500D01*
X131151497Y-118700500D01*
X131253358Y-118673207D01*
X131253360Y-118673205D01*
X131253362Y-118673205D01*
X131344678Y-118620483D01*
X131344678Y-118620482D01*
X131344683Y-118620480D01*
X132036750Y-117928413D01*
X132053443Y-117899500D01*
X132089475Y-117837092D01*
X132089475Y-117837090D01*
X132089477Y-117837088D01*
X132116770Y-117735227D01*
X132116770Y-117629773D01*
X132089477Y-117527912D01*
X132085937Y-117521780D01*
X132080032Y-117511551D01*
X132066770Y-117462054D01*
X132066770Y-116837167D01*
X132070512Y-116825649D01*
X132070143Y-116811544D01*
X132074270Y-116796143D01*
X132074270Y-116703856D01*
X132074270Y-116100601D01*
X132079104Y-116085721D01*
X132079093Y-116070076D01*
X132088321Y-116057355D01*
X132093177Y-116042410D01*
X132105833Y-116033214D01*
X132115021Y-116020550D01*
X132129963Y-116015683D01*
X132142677Y-116006446D01*
X132173187Y-116001602D01*
X132274201Y-116001529D01*
X132332403Y-116020393D01*
X132368402Y-116069867D01*
X132373270Y-116100528D01*
X132373270Y-116796144D01*
X132377397Y-116811545D01*
X132380770Y-116837168D01*
X132380770Y-117319746D01*
X132380771Y-117319758D01*
X132392402Y-117378227D01*
X132392404Y-117378233D01*
X132424637Y-117426472D01*
X132436718Y-117444552D01*
X132503039Y-117488867D01*
X132547501Y-117497711D01*
X132561511Y-117500498D01*
X132561516Y-117500498D01*
X132561522Y-117500500D01*
X132561523Y-117500500D01*
X132886017Y-117500500D01*
X132886018Y-117500500D01*
X132944501Y-117488867D01*
X132944502Y-117488865D01*
X132954064Y-117486964D01*
X132954855Y-117490943D01*
X132993286Y-117487915D01*
X132993476Y-117486964D01*
X132996848Y-117487634D01*
X132996872Y-117487633D01*
X132996923Y-117487649D01*
X133003036Y-117488865D01*
X133003039Y-117488867D01*
X133061522Y-117500500D01*
X133061523Y-117500500D01*
X133386017Y-117500500D01*
X133386018Y-117500500D01*
X133444501Y-117488867D01*
X133510822Y-117444552D01*
X133555137Y-117378231D01*
X133566770Y-117319748D01*
X133566770Y-116180252D01*
X133566769Y-116180250D01*
X133566769Y-116180244D01*
X133560624Y-116149356D01*
X133555137Y-116121769D01*
X133555136Y-116121767D01*
X133554554Y-116118841D01*
X133557492Y-116094008D01*
X133557474Y-116069001D01*
X133561031Y-116064096D01*
X133561744Y-116058079D01*
X133578719Y-116039715D01*
X133593402Y-116019475D01*
X133599163Y-116017598D01*
X133603276Y-116013149D01*
X133651575Y-116000525D01*
X133795839Y-116000420D01*
X133854041Y-116019285D01*
X133890041Y-116068759D01*
X133893007Y-116118735D01*
X133892403Y-116121768D01*
X133892403Y-116121769D01*
X133886329Y-116152306D01*
X133880770Y-116180251D01*
X133880770Y-116662831D01*
X133877397Y-116688452D01*
X133873270Y-116703853D01*
X133873270Y-117963809D01*
X133854363Y-118022000D01*
X133844274Y-118033813D01*
X133335977Y-118542109D01*
X133281460Y-118569886D01*
X133270563Y-118570999D01*
X132257800Y-118618000D01*
X132257800Y-120001605D01*
X132238893Y-120059796D01*
X132189393Y-120095760D01*
X132168651Y-120100114D01*
X131754710Y-120141509D01*
X131744859Y-120142000D01*
X130886200Y-120142000D01*
X130763432Y-120285229D01*
X130711208Y-120317105D01*
X130688267Y-120319800D01*
X129290960Y-120319800D01*
X129232769Y-120300893D01*
X129196805Y-120251393D01*
X129193883Y-120240215D01*
X129135523Y-119948415D01*
X129133600Y-119929000D01*
X129133600Y-119303801D01*
X129133600Y-119303800D01*
X129133599Y-119303800D01*
X128371600Y-119303800D01*
X127073770Y-119300000D01*
X123875800Y-119354600D01*
X123816375Y-119707233D01*
X123797888Y-119750266D01*
X122721207Y-121182684D01*
X122671130Y-121217839D01*
X122609952Y-121216845D01*
X122561043Y-121180082D01*
X122543070Y-121123200D01*
X122543070Y-121022469D01*
X122561977Y-120964278D01*
X122587069Y-120940153D01*
X122607239Y-120926676D01*
X122697846Y-120836069D01*
X122769035Y-120729527D01*
X122818071Y-120611144D01*
X122843070Y-120485469D01*
X122843070Y-120357331D01*
X122818071Y-120231656D01*
X122769035Y-120113273D01*
X122769033Y-120113270D01*
X122769031Y-120113266D01*
X122733303Y-120059796D01*
X122697846Y-120006731D01*
X122607239Y-119916124D01*
X122550332Y-119878100D01*
X122500703Y-119844938D01*
X122500695Y-119844934D01*
X122382317Y-119795900D01*
X122382315Y-119795899D01*
X122382314Y-119795899D01*
X122256639Y-119770900D01*
X122128501Y-119770900D01*
X122128500Y-119770900D01*
X122065663Y-119783399D01*
X122002826Y-119795899D01*
X122002825Y-119795899D01*
X122002822Y-119795900D01*
X121884444Y-119844934D01*
X121884436Y-119844938D01*
X121777901Y-119916124D01*
X121777897Y-119916127D01*
X121687297Y-120006727D01*
X121687294Y-120006731D01*
X121616108Y-120113266D01*
X121616104Y-120113274D01*
X121567070Y-120231652D01*
X121567069Y-120231655D01*
X121567069Y-120231656D01*
X121542070Y-120357331D01*
X121542070Y-120485469D01*
X121561179Y-120581535D01*
X121567069Y-120611142D01*
X121567070Y-120611147D01*
X121616104Y-120729525D01*
X121616108Y-120729533D01*
X121630733Y-120751420D01*
X121687294Y-120836069D01*
X121687297Y-120836072D01*
X121687301Y-120836077D01*
X121777901Y-120926676D01*
X121798071Y-120940153D01*
X121835951Y-120988203D01*
X121842070Y-121022469D01*
X121842070Y-121308840D01*
X121823163Y-121367031D01*
X121813074Y-121378844D01*
X121422814Y-121769104D01*
X121368297Y-121796881D01*
X121352810Y-121798100D01*
X119695653Y-121798100D01*
X119637462Y-121779193D01*
X119601498Y-121729693D01*
X119601498Y-121668507D01*
X119625649Y-121629096D01*
X119641671Y-121613074D01*
X119682076Y-121572669D01*
X119753265Y-121466127D01*
X119802301Y-121347744D01*
X119827300Y-121222069D01*
X119827300Y-121093931D01*
X119802301Y-120968256D01*
X119753265Y-120849873D01*
X119753263Y-120849870D01*
X119753261Y-120849866D01*
X119722764Y-120804225D01*
X119682076Y-120743331D01*
X119591469Y-120652724D01*
X119529245Y-120611147D01*
X119484933Y-120581538D01*
X119484925Y-120581534D01*
X119366547Y-120532500D01*
X119366545Y-120532499D01*
X119366544Y-120532499D01*
X119240869Y-120507500D01*
X119112731Y-120507500D01*
X119112730Y-120507500D01*
X119104305Y-120509176D01*
X118987056Y-120532499D01*
X118987055Y-120532499D01*
X118987052Y-120532500D01*
X118868674Y-120581534D01*
X118868666Y-120581538D01*
X118762131Y-120652724D01*
X118762127Y-120652727D01*
X118671527Y-120743327D01*
X118671524Y-120743331D01*
X118600338Y-120849866D01*
X118600334Y-120849874D01*
X118551300Y-120968252D01*
X118551299Y-120968255D01*
X118551299Y-120968256D01*
X118526300Y-121093931D01*
X118526300Y-121222069D01*
X118548818Y-121335273D01*
X118551299Y-121347742D01*
X118551300Y-121347747D01*
X118600334Y-121466125D01*
X118600338Y-121466133D01*
X118618954Y-121493993D01*
X118671524Y-121572669D01*
X118671527Y-121572672D01*
X118727951Y-121629096D01*
X118755728Y-121683613D01*
X118746157Y-121744045D01*
X118702892Y-121787310D01*
X118657947Y-121798100D01*
X117610389Y-121798100D01*
X117552198Y-121779193D01*
X117540385Y-121769104D01*
X117005240Y-121233958D01*
X116977463Y-121179441D01*
X116976244Y-121163954D01*
X116976244Y-120706271D01*
X116995151Y-120648080D01*
X117030295Y-120618064D01*
X117103964Y-120580528D01*
X117199272Y-120485220D01*
X117260463Y-120365126D01*
X117276244Y-120265488D01*
X117276244Y-119698512D01*
X117273744Y-119682730D01*
X117272447Y-119674541D01*
X117260463Y-119598874D01*
X117260460Y-119598869D01*
X117260460Y-119598867D01*
X117199273Y-119478782D01*
X117199272Y-119478780D01*
X117103964Y-119383472D01*
X117103961Y-119383470D01*
X116983876Y-119322283D01*
X116983871Y-119322281D01*
X116983870Y-119322281D01*
X116950657Y-119317020D01*
X116884234Y-119306500D01*
X116884232Y-119306500D01*
X116367256Y-119306500D01*
X116367254Y-119306500D01*
X116267618Y-119322281D01*
X116267611Y-119322283D01*
X116147526Y-119383470D01*
X116052214Y-119478782D01*
X115991027Y-119598867D01*
X115991025Y-119598874D01*
X115977744Y-119682730D01*
X115975244Y-119698512D01*
X115975244Y-120265488D01*
X115989790Y-120357331D01*
X115991025Y-120365125D01*
X115991027Y-120365132D01*
X116052214Y-120485217D01*
X116052216Y-120485220D01*
X116124204Y-120557208D01*
X116151980Y-120611723D01*
X116142409Y-120672155D01*
X116099144Y-120715420D01*
X116038712Y-120724991D01*
X115995122Y-120706651D01*
X115729575Y-120509176D01*
X115694163Y-120459280D01*
X115694843Y-120398098D01*
X115700435Y-120384805D01*
X115710463Y-120365126D01*
X115719239Y-120309719D01*
X115726244Y-120265490D01*
X115726244Y-119698510D01*
X115722447Y-119674541D01*
X115710463Y-119598874D01*
X115675895Y-119531032D01*
X115665119Y-119484542D01*
X115674152Y-118907688D01*
X115684927Y-118864306D01*
X115735463Y-118765126D01*
X115745699Y-118700500D01*
X115751244Y-118665490D01*
X115751244Y-118098509D01*
X115746160Y-118066416D01*
X115735463Y-117998874D01*
X115700951Y-117931140D01*
X115690173Y-117884645D01*
X115690183Y-117883998D01*
X115725045Y-115657807D01*
X115733752Y-115622764D01*
X115733054Y-115622538D01*
X115735459Y-115615133D01*
X115735463Y-115615126D01*
X115745983Y-115548700D01*
X115751244Y-115515490D01*
X115751244Y-114948510D01*
X115744674Y-114907031D01*
X115738850Y-114870259D01*
X115737644Y-114853245D01*
X115824608Y-109300019D01*
X115837234Y-109253170D01*
X115914884Y-109114616D01*
X115959824Y-109073100D01*
X116020588Y-109065927D01*
X116073962Y-109095840D01*
G37*
%TD.AperFunction*%
%TD*%
%TA.AperFunction,Conductor*%
%TO.N,/Ethernet/RESET*%
G36*
X136884333Y-125954645D02*
G01*
X136887269Y-125956784D01*
X137298446Y-126367961D01*
X137301066Y-126371965D01*
X137882804Y-127856306D01*
X137882633Y-127865259D01*
X137876180Y-127871468D01*
X137875287Y-127871777D01*
X136911782Y-128162153D01*
X136902872Y-128161259D01*
X136901153Y-128160132D01*
X136082723Y-127513597D01*
X136078356Y-127505779D01*
X136079563Y-127499080D01*
X136868584Y-125959719D01*
X136875407Y-125953921D01*
X136884333Y-125954645D01*
G37*
%TD.AperFunction*%
%TD*%
%TA.AperFunction,Conductor*%
%TO.N,/Archi/CS1*%
G36*
X153970861Y-126085849D02*
G01*
X153973520Y-126089954D01*
X154646957Y-127856378D01*
X154646703Y-127865329D01*
X154640193Y-127871478D01*
X154639406Y-127871747D01*
X153674029Y-128163186D01*
X153667267Y-128163186D01*
X152701889Y-127871747D01*
X152694959Y-127866075D01*
X152694069Y-127857165D01*
X152694338Y-127856378D01*
X153367776Y-126089954D01*
X153373925Y-126083444D01*
X153378708Y-126082422D01*
X153962588Y-126082422D01*
X153970861Y-126085849D01*
G37*
%TD.AperFunction*%
%TD*%
%TA.AperFunction,Conductor*%
%TO.N,/Ethernet/MOSI*%
G36*
X148598601Y-128168224D02*
G01*
X149414914Y-128813086D01*
X149419281Y-128820904D01*
X149418304Y-128827127D01*
X148701826Y-130396079D01*
X148695272Y-130402181D01*
X148686323Y-130401862D01*
X148682910Y-130399492D01*
X148272121Y-129988703D01*
X148269677Y-129985123D01*
X147762801Y-128827056D01*
X147762624Y-128818104D01*
X147766273Y-128813181D01*
X148584105Y-128168217D01*
X148592721Y-128165786D01*
X148598601Y-128168224D01*
G37*
%TD.AperFunction*%
%TD*%
%TA.AperFunction,Conductor*%
%TO.N,/Archi/MISO*%
G36*
X151430861Y-126085849D02*
G01*
X151433520Y-126089954D01*
X152106957Y-127856378D01*
X152106703Y-127865329D01*
X152100193Y-127871478D01*
X152099406Y-127871747D01*
X151134029Y-128163186D01*
X151127267Y-128163186D01*
X150161889Y-127871747D01*
X150154959Y-127866075D01*
X150154069Y-127857165D01*
X150154338Y-127856378D01*
X150827776Y-126089954D01*
X150833925Y-126083444D01*
X150838708Y-126082422D01*
X151422588Y-126082422D01*
X151430861Y-126085849D01*
G37*
%TD.AperFunction*%
%TD*%
%TA.AperFunction,Conductor*%
%TO.N,/Ethernet/CS*%
G36*
X142288829Y-126166634D02*
G01*
X142290141Y-126168197D01*
X142981021Y-127155169D01*
X142982958Y-127163912D01*
X142979713Y-127170148D01*
X141994925Y-128155921D01*
X141986654Y-128159352D01*
X141978379Y-128155929D01*
X141978371Y-128155921D01*
X140993582Y-127170148D01*
X140990159Y-127161873D01*
X140992273Y-127155170D01*
X141683155Y-126168197D01*
X141690707Y-126163385D01*
X141692740Y-126163207D01*
X142280556Y-126163207D01*
X142288829Y-126166634D01*
G37*
%TD.AperFunction*%
%TD*%
%TA.AperFunction,Conductor*%
%TO.N,GND*%
G36*
X181265379Y-108367802D02*
G01*
X181323470Y-108387008D01*
X181359179Y-108436692D01*
X181363857Y-108465254D01*
X181420772Y-112107753D01*
X181402776Y-112166232D01*
X181353844Y-112202965D01*
X181321784Y-112208300D01*
X177561343Y-112208300D01*
X177503152Y-112189393D01*
X177467188Y-112139893D01*
X177462343Y-112109300D01*
X177462343Y-108447809D01*
X177481250Y-108389618D01*
X177530750Y-108353654D01*
X177561849Y-108348810D01*
X181265379Y-108367802D01*
G37*
%TD.AperFunction*%
%TD*%
M02*
