M48
; DRILL file {KiCad 9.0.1} date 2025-04-25T09:38:55-0300
; FORMAT={-:-/ absolute / metric / decimal}
; #@! TF.CreationDate,2025-04-25T09:38:55-03:00
; #@! TF.GenerationSoftware,Kicad,Pcbnew,9.0.1
; #@! TF.FileFunction,MixedPlating,1,2
FMAT,2
METRIC
; #@! TA.AperFunction,Plated,PTH,ComponentDrill
T1C0.200
; #@! TA.AperFunction,Plated,PTH,ViaDrill
T2C0.300
; #@! TA.AperFunction,Plated,PTH,ViaDrill
T3C0.500
; #@! TA.AperFunction,Plated,PTH,ComponentDrill
T4C0.600
; #@! TA.AperFunction,Plated,PTH,ViaDrill
T5C0.700
; #@! TA.AperFunction,Plated,PTH,ComponentDrill
T6C0.700
; #@! TA.AperFunction,Plated,PTH,ComponentDrill
T7C0.889
; #@! TA.AperFunction,Plated,PTH,ComponentDrill
T8C1.000
; #@! TA.AperFunction,Plated,PTH,ComponentDrill
T9C1.300
; #@! TA.AperFunction,Plated,PTH,ComponentDrill
T10C1.702
; #@! TA.AperFunction,Plated,PTH,ViaDrill
T11C3.000
; #@! TA.AperFunction,NonPlated,NPTH,ComponentDrill
T12C0.700
; #@! TA.AperFunction,NonPlated,NPTH,ComponentDrill
T13C3.200
; #@! TA.AperFunction,NonPlated,NPTH,ComponentDrill
T14C3.200
%
G90
G05
T1
X178.724Y-110.3
X179.424Y-109.6
X179.424Y-111.0
X180.124Y-110.3
T2
X109.982Y-122.428
X111.4Y-102.875
X112.256Y-103.7
X114.211Y-119.99
X114.386Y-114.233
X114.529Y-111.328
X118.135Y-110.185
X118.491Y-115.926
X118.745Y-111.658
X119.075Y-113.462
X119.177Y-121.158
X119.424Y-119.228
X120.161Y-106.756
X122.193Y-120.421
X123.285Y-112.573
X127.374Y-108.4
X128.824Y-105.82
X135.578Y-106.553
X137.875Y-119.175
X137.9Y-123.875
X138.0Y-117.275
X138.46Y-108.08
X139.12Y-109.08
X139.3Y-124.025
X139.388Y-104.546
X139.55Y-119.25
X140.404Y-110.846
X140.575Y-123.8
X141.059Y-117.483
X142.843Y-111.15
X143.122Y-104.47
X152.419Y-110.414
X170.249Y-100.7
X171.05Y-87.11
X172.411Y-100.712
X178.88Y-101.12
X180.153Y-99.913
X185.185Y-96.622
X185.261Y-94.996
X186.048Y-100.66
T3
X121.361Y-95.631
X121.812Y-104.699
X125.449Y-104.675
X127.924Y-122.25
X131.44Y-83.46
X135.248Y-123.723
X135.424Y-104.675
X142.106Y-116.713
X143.664Y-118.085
X144.519Y-108.712
X144.526Y-77.318
X145.565Y-124.204
X147.269Y-103.657
X147.625Y-124.619
X150.107Y-107.721
X151.0Y-84.65
X152.147Y-77.031
X152.624Y-86.175
X155.194Y-110.668
X162.147Y-115.087
X162.427Y-112.897
X164.179Y-107.188
X165.779Y-85.425
X171.524Y-85.625
X172.4Y-81.025
X173.75Y-127.6
X173.924Y-94.0
X180.924Y-123.4
X181.292Y-92.65
X181.4Y-125.45
X181.875Y-83.8
X184.819Y-122.495
X185.529Y-92.645
X188.724Y-122.99
X190.375Y-126.575
X191.424Y-122.575
T5
X182.924Y-88.7
T6
X178.024Y-109.6
X178.024Y-111.0
X178.724Y-108.9
X178.724Y-111.7
X180.124Y-108.9
X180.124Y-111.7
X180.824Y-109.6
X180.824Y-111.0
T7
X99.265Y-106.975
X99.265Y-120.325
X99.265Y-109.515
X99.265Y-117.785
X109.675Y-109.205
X109.675Y-111.745
X109.675Y-114.285
X109.675Y-116.825
X112.215Y-110.475
X112.215Y-113.015
X112.215Y-115.555
X112.215Y-118.095
T8
X100.5Y-86.675
X100.5Y-90.4
X100.5Y-94.075
X103.04Y-86.675
X103.04Y-90.4
X103.04Y-94.075
X105.52Y-82.9
X105.58Y-86.675
X105.58Y-90.4
X105.58Y-94.075
X108.06Y-82.9
X108.12Y-86.675
X108.12Y-90.4
X108.12Y-94.075
X110.6Y-82.9
X110.66Y-86.675
X110.66Y-90.4
X110.66Y-94.075
X113.14Y-82.9
X113.2Y-86.675
X113.2Y-90.4
X113.2Y-94.075
X115.68Y-82.9
X115.74Y-86.675
X115.74Y-90.4
X115.74Y-94.075
X118.22Y-82.9
X118.28Y-86.675
X118.28Y-90.4
X118.28Y-94.075
X124.207Y-79.903
X124.207Y-128.163
X126.747Y-79.903
X126.747Y-128.163
X129.287Y-79.903
X129.287Y-128.163
X131.827Y-79.903
X131.827Y-128.163
X134.367Y-79.903
X134.367Y-128.163
X136.907Y-79.903
X136.907Y-128.163
X139.447Y-128.163
X141.987Y-79.903
X141.987Y-128.163
X144.527Y-79.903
X146.051Y-128.163
X147.067Y-79.903
X148.591Y-128.163
X149.607Y-79.903
X151.131Y-128.163
X152.147Y-79.903
X153.671Y-128.163
X154.687Y-79.903
X156.211Y-128.163
X157.227Y-79.903
X158.751Y-128.163
X159.767Y-79.903
X161.291Y-128.163
X163.831Y-128.163
X166.371Y-128.163
X168.911Y-128.163
T9
X189.78Y-82.27
X189.78Y-87.35
T10
X106.375Y-105.8
X106.375Y-121.5
T11
X179.424Y-110.3
T12
X188.844Y-93.45
X188.844Y-99.23
T13
X98.065Y-76.624
X98.065Y-131.534
X192.985Y-76.624
X192.985Y-131.544
T14
X103.325Y-107.935
X103.325Y-119.365
T4
G00X187.764Y-92.02
M15
G01X188.864Y-92.02
M16
G05
G00X187.764Y-100.66
M15
G01X188.864Y-100.66
M16
G05
G00X192.194Y-92.02
M15
G01X192.794Y-92.02
M16
G05
G00X192.194Y-100.66
M15
G01X192.794Y-100.66
M16
G05
M30
