%TF.GenerationSoftware,KiCad,Pcbnew,9.0.1*%
%TF.CreationDate,2025-04-25T09:38:52-03:00*%
%TF.ProjectId,A-NET,412d4e45-542e-46b6-9963-61645f706362,rev?*%
%TF.SameCoordinates,Original*%
%TF.FileFunction,Soldermask,Bot*%
%TF.FilePolarity,Negative*%
%FSLAX46Y46*%
G04 Gerber Fmt 4.6, Leading zero omitted, Abs format (unit mm)*
G04 Created by KiCad (PCBNEW 9.0.1) date 2025-04-25 09:38:52*
%MOMM*%
%LPD*%
G01*
G04 APERTURE LIST*
G04 Aperture macros list*
%AMRoundRect*
0 Rectangle with rounded corners*
0 $1 Rounding radius*
0 $2 $3 $4 $5 $6 $7 $8 $9 X,Y pos of 4 corners*
0 Add a 4 corners polygon primitive as box body*
4,1,4,$2,$3,$4,$5,$6,$7,$8,$9,$2,$3,0*
0 Add four circle primitives for the rounded corners*
1,1,$1+$1,$2,$3*
1,1,$1+$1,$4,$5*
1,1,$1+$1,$6,$7*
1,1,$1+$1,$8,$9*
0 Add four rect primitives between the rounded corners*
20,1,$1+$1,$2,$3,$4,$5,0*
20,1,$1+$1,$4,$5,$6,$7,0*
20,1,$1+$1,$6,$7,$8,$9,0*
20,1,$1+$1,$8,$9,$2,$3,0*%
G04 Aperture macros list end*
%ADD10C,0.000000*%
%ADD11R,1.700000X1.700000*%
%ADD12O,1.700000X1.700000*%
%ADD13C,1.397000*%
%ADD14C,2.209800*%
%ADD15C,3.200000*%
%ADD16R,2.500000X2.500000*%
%ADD17C,2.500000*%
%ADD18RoundRect,0.050800X-0.584200X-0.800100X0.584200X-0.800100X0.584200X0.800100X-0.584200X0.800100X0*%
%ADD19C,0.650000*%
%ADD20O,2.100000X1.000000*%
%ADD21O,1.600000X1.000000*%
%ADD22RoundRect,0.237500X0.237500X-0.250000X0.237500X0.250000X-0.237500X0.250000X-0.237500X-0.250000X0*%
%ADD23R,2.000000X2.000000*%
%ADD24O,2.000000X2.200000*%
%ADD25RoundRect,0.200000X-0.200000X-0.275000X0.200000X-0.275000X0.200000X0.275000X-0.200000X0.275000X0*%
G04 APERTURE END LIST*
D10*
%TO.C,SJ1*%
G36*
X129980970Y-113596400D02*
G01*
X129828570Y-113596400D01*
X129828570Y-111767600D01*
X129980970Y-111767600D01*
X129980970Y-113596400D01*
G37*
%TO.C,SJ3*%
G36*
X130006972Y-109067398D02*
G01*
X129854572Y-109067398D01*
X129854572Y-107238598D01*
X130006972Y-107238598D01*
X130006972Y-109067398D01*
G37*
%TO.C,SJ2*%
G36*
X129976575Y-111316400D02*
G01*
X129824175Y-111316400D01*
X129824175Y-109487600D01*
X129976575Y-109487600D01*
X129976575Y-111316400D01*
G37*
%TD*%
D11*
%TO.C,J10*%
X100500000Y-86675000D03*
D12*
X103040000Y-86675000D03*
X105580000Y-86675000D03*
X108120000Y-86675000D03*
X110660000Y-86675000D03*
X113200000Y-86675000D03*
X115740000Y-86675000D03*
X118280000Y-86675000D03*
%TD*%
D11*
%TO.C,J9*%
X100500000Y-90400000D03*
D12*
X103040000Y-90400000D03*
X105580000Y-90400000D03*
X108120000Y-90400000D03*
X110660000Y-90400000D03*
X113200000Y-90400000D03*
X115740000Y-90400000D03*
X118280000Y-90400000D03*
%TD*%
D13*
%TO.C,J3*%
X109675000Y-109205000D03*
X112215000Y-110475000D03*
X109675000Y-111745000D03*
X112215000Y-113015000D03*
X109675000Y-114285000D03*
X112215000Y-115555000D03*
X109675000Y-116825000D03*
X112215000Y-118095000D03*
X99265000Y-106974999D03*
X99265064Y-109514999D03*
X99265064Y-117785001D03*
X99265000Y-120325001D03*
D14*
X106374999Y-105800000D03*
X106374999Y-121500000D03*
%TD*%
D15*
%TO.C,MH2*%
X192984768Y-76624067D03*
%TD*%
%TO.C,MH3*%
X98064968Y-131533787D03*
%TD*%
%TO.C,MH1*%
X192984768Y-131543947D03*
%TD*%
D16*
%TO.C,J1*%
X189780000Y-82270000D03*
D17*
X189780000Y-87350000D03*
%TD*%
D18*
%TO.C,SJ1*%
X129103770Y-112682000D03*
X130703770Y-112670000D03*
%TD*%
D19*
%TO.C,J2*%
X188843770Y-99230000D03*
X188843770Y-93450000D03*
D20*
X188313770Y-100660000D03*
D21*
X192493770Y-100660000D03*
D20*
X188313770Y-92020000D03*
D21*
X192493770Y-92020000D03*
%TD*%
D15*
%TO.C,MH4*%
X98064968Y-76624067D03*
%TD*%
D18*
%TO.C,SJ3*%
X129129772Y-108152998D03*
X130729772Y-108140998D03*
%TD*%
%TO.C,SJ2*%
X129099375Y-110402000D03*
X130699375Y-110390000D03*
%TD*%
D11*
%TO.C,J11*%
X105520000Y-82900000D03*
D12*
X108060000Y-82900000D03*
X110600000Y-82900000D03*
X113140000Y-82900000D03*
X115680000Y-82900000D03*
X118220000Y-82900000D03*
%TD*%
D11*
%TO.C,J8*%
X100500000Y-94075000D03*
D12*
X103040000Y-94075000D03*
X105580000Y-94075000D03*
X108120000Y-94075000D03*
X110660000Y-94075000D03*
X113200000Y-94075000D03*
X115740000Y-94075000D03*
X118280000Y-94075000D03*
%TD*%
D22*
%TO.C,R13*%
X137850000Y-122362500D03*
X137850000Y-120537500D03*
%TD*%
D23*
%TO.C,J5*%
X136906648Y-79903207D03*
D24*
X134366648Y-79903207D03*
X131826648Y-79903207D03*
X129286648Y-79903207D03*
X126746648Y-79903207D03*
X124206648Y-79903207D03*
%TD*%
D23*
%TO.C,J4*%
X159766648Y-79903207D03*
D24*
X157226648Y-79903207D03*
X154686648Y-79903207D03*
X152146648Y-79903207D03*
X149606648Y-79903207D03*
X147066648Y-79903207D03*
X144526648Y-79903207D03*
X141986648Y-79903207D03*
%TD*%
D22*
%TO.C,R14*%
X139400000Y-122362500D03*
X139400000Y-120537500D03*
%TD*%
D23*
%TO.C,J7*%
X141986648Y-128163207D03*
D24*
X139446648Y-128163207D03*
X136906648Y-128163207D03*
X134366648Y-128163207D03*
X131826648Y-128163207D03*
X129286648Y-128163207D03*
X126746648Y-128163207D03*
X124206648Y-128163207D03*
%TD*%
D25*
%TO.C,R18*%
X100698800Y-99999800D03*
X102348800Y-99999800D03*
%TD*%
D22*
%TO.C,R12*%
X141050000Y-122362500D03*
X141050000Y-120537500D03*
%TD*%
D25*
%TO.C,R19*%
X100698800Y-97409000D03*
X102348800Y-97409000D03*
%TD*%
D23*
%TO.C,J6*%
X168910648Y-128163207D03*
D24*
X166370648Y-128163207D03*
X163830648Y-128163207D03*
X161290648Y-128163207D03*
X158750648Y-128163207D03*
X156210648Y-128163207D03*
X153670648Y-128163207D03*
X151130648Y-128163207D03*
X148590648Y-128163207D03*
X146050648Y-128163207D03*
%TD*%
M02*
