%TF.GenerationSoftware,KiCad,Pcbnew,9.0.1*%
%TF.CreationDate,2025-04-25T09:38:52-03:00*%
%TF.ProjectId,A-NET,412d4e45-542e-46b6-9963-61645f706362,rev?*%
%TF.SameCoordinates,Original*%
%TF.FileFunction,Legend,Top*%
%TF.FilePolarity,Positive*%
%FSLAX46Y46*%
G04 Gerber Fmt 4.6, Leading zero omitted, Abs format (unit mm)*
G04 Created by KiCad (PCBNEW 9.0.1) date 2025-04-25 09:38:52*
%MOMM*%
%LPD*%
G01*
G04 APERTURE LIST*
%ADD10C,0.400000*%
%ADD11C,0.150000*%
%ADD12C,0.125000*%
%ADD13C,0.100000*%
%ADD14C,0.075000*%
%ADD15C,0.120000*%
%ADD16C,0.127000*%
%ADD17C,0.152400*%
%ADD18C,0.508000*%
%ADD19C,0.203200*%
%ADD20C,0.406400*%
G04 APERTURE END LIST*
D10*
X98037500Y-80575000D02*
X120875000Y-80575000D01*
X120875000Y-96850000D01*
X98037500Y-96850000D01*
X98037500Y-80575000D01*
D11*
X178082142Y-81734580D02*
X178034523Y-81782200D01*
X178034523Y-81782200D02*
X177891666Y-81829819D01*
X177891666Y-81829819D02*
X177796428Y-81829819D01*
X177796428Y-81829819D02*
X177653571Y-81782200D01*
X177653571Y-81782200D02*
X177558333Y-81686961D01*
X177558333Y-81686961D02*
X177510714Y-81591723D01*
X177510714Y-81591723D02*
X177463095Y-81401247D01*
X177463095Y-81401247D02*
X177463095Y-81258390D01*
X177463095Y-81258390D02*
X177510714Y-81067914D01*
X177510714Y-81067914D02*
X177558333Y-80972676D01*
X177558333Y-80972676D02*
X177653571Y-80877438D01*
X177653571Y-80877438D02*
X177796428Y-80829819D01*
X177796428Y-80829819D02*
X177891666Y-80829819D01*
X177891666Y-80829819D02*
X178034523Y-80877438D01*
X178034523Y-80877438D02*
X178082142Y-80925057D01*
X179034523Y-81829819D02*
X178463095Y-81829819D01*
X178748809Y-81829819D02*
X178748809Y-80829819D01*
X178748809Y-80829819D02*
X178653571Y-80972676D01*
X178653571Y-80972676D02*
X178558333Y-81067914D01*
X178558333Y-81067914D02*
X178463095Y-81115533D01*
X179653571Y-80829819D02*
X179748809Y-80829819D01*
X179748809Y-80829819D02*
X179844047Y-80877438D01*
X179844047Y-80877438D02*
X179891666Y-80925057D01*
X179891666Y-80925057D02*
X179939285Y-81020295D01*
X179939285Y-81020295D02*
X179986904Y-81210771D01*
X179986904Y-81210771D02*
X179986904Y-81448866D01*
X179986904Y-81448866D02*
X179939285Y-81639342D01*
X179939285Y-81639342D02*
X179891666Y-81734580D01*
X179891666Y-81734580D02*
X179844047Y-81782200D01*
X179844047Y-81782200D02*
X179748809Y-81829819D01*
X179748809Y-81829819D02*
X179653571Y-81829819D01*
X179653571Y-81829819D02*
X179558333Y-81782200D01*
X179558333Y-81782200D02*
X179510714Y-81734580D01*
X179510714Y-81734580D02*
X179463095Y-81639342D01*
X179463095Y-81639342D02*
X179415476Y-81448866D01*
X179415476Y-81448866D02*
X179415476Y-81210771D01*
X179415476Y-81210771D02*
X179463095Y-81020295D01*
X179463095Y-81020295D02*
X179510714Y-80925057D01*
X179510714Y-80925057D02*
X179558333Y-80877438D01*
X179558333Y-80877438D02*
X179653571Y-80829819D01*
D12*
X122733334Y-106287904D02*
X122566667Y-106287904D01*
X122566667Y-106549809D02*
X122566667Y-106049809D01*
X122566667Y-106049809D02*
X122804762Y-106049809D01*
X123161905Y-106287904D02*
X123233333Y-106311714D01*
X123233333Y-106311714D02*
X123257143Y-106335523D01*
X123257143Y-106335523D02*
X123280952Y-106383142D01*
X123280952Y-106383142D02*
X123280952Y-106454571D01*
X123280952Y-106454571D02*
X123257143Y-106502190D01*
X123257143Y-106502190D02*
X123233333Y-106526000D01*
X123233333Y-106526000D02*
X123185714Y-106549809D01*
X123185714Y-106549809D02*
X122995238Y-106549809D01*
X122995238Y-106549809D02*
X122995238Y-106049809D01*
X122995238Y-106049809D02*
X123161905Y-106049809D01*
X123161905Y-106049809D02*
X123209524Y-106073619D01*
X123209524Y-106073619D02*
X123233333Y-106097428D01*
X123233333Y-106097428D02*
X123257143Y-106145047D01*
X123257143Y-106145047D02*
X123257143Y-106192666D01*
X123257143Y-106192666D02*
X123233333Y-106240285D01*
X123233333Y-106240285D02*
X123209524Y-106264095D01*
X123209524Y-106264095D02*
X123161905Y-106287904D01*
X123161905Y-106287904D02*
X122995238Y-106287904D01*
X123757143Y-106549809D02*
X123471429Y-106549809D01*
X123614286Y-106549809D02*
X123614286Y-106049809D01*
X123614286Y-106049809D02*
X123566667Y-106121238D01*
X123566667Y-106121238D02*
X123519048Y-106168857D01*
X123519048Y-106168857D02*
X123471429Y-106192666D01*
X170255952Y-88474809D02*
X170255952Y-87974809D01*
X170255952Y-87974809D02*
X170375000Y-87974809D01*
X170375000Y-87974809D02*
X170446428Y-87998619D01*
X170446428Y-87998619D02*
X170494047Y-88046238D01*
X170494047Y-88046238D02*
X170517857Y-88093857D01*
X170517857Y-88093857D02*
X170541666Y-88189095D01*
X170541666Y-88189095D02*
X170541666Y-88260523D01*
X170541666Y-88260523D02*
X170517857Y-88355761D01*
X170517857Y-88355761D02*
X170494047Y-88403380D01*
X170494047Y-88403380D02*
X170446428Y-88451000D01*
X170446428Y-88451000D02*
X170375000Y-88474809D01*
X170375000Y-88474809D02*
X170255952Y-88474809D01*
X170970238Y-88141476D02*
X170970238Y-88474809D01*
X170851190Y-87951000D02*
X170732143Y-88308142D01*
X170732143Y-88308142D02*
X171041666Y-88308142D01*
D11*
X127028350Y-117867857D02*
X127075970Y-117915476D01*
X127075970Y-117915476D02*
X127123589Y-118058333D01*
X127123589Y-118058333D02*
X127123589Y-118153571D01*
X127123589Y-118153571D02*
X127075970Y-118296428D01*
X127075970Y-118296428D02*
X126980731Y-118391666D01*
X126980731Y-118391666D02*
X126885493Y-118439285D01*
X126885493Y-118439285D02*
X126695017Y-118486904D01*
X126695017Y-118486904D02*
X126552160Y-118486904D01*
X126552160Y-118486904D02*
X126361684Y-118439285D01*
X126361684Y-118439285D02*
X126266446Y-118391666D01*
X126266446Y-118391666D02*
X126171208Y-118296428D01*
X126171208Y-118296428D02*
X126123589Y-118153571D01*
X126123589Y-118153571D02*
X126123589Y-118058333D01*
X126123589Y-118058333D02*
X126171208Y-117915476D01*
X126171208Y-117915476D02*
X126218827Y-117867857D01*
X126218827Y-117486904D02*
X126171208Y-117439285D01*
X126171208Y-117439285D02*
X126123589Y-117344047D01*
X126123589Y-117344047D02*
X126123589Y-117105952D01*
X126123589Y-117105952D02*
X126171208Y-117010714D01*
X126171208Y-117010714D02*
X126218827Y-116963095D01*
X126218827Y-116963095D02*
X126314065Y-116915476D01*
X126314065Y-116915476D02*
X126409303Y-116915476D01*
X126409303Y-116915476D02*
X126552160Y-116963095D01*
X126552160Y-116963095D02*
X127123589Y-117534523D01*
X127123589Y-117534523D02*
X127123589Y-116915476D01*
X127123589Y-115963095D02*
X127123589Y-116534523D01*
X127123589Y-116248809D02*
X126123589Y-116248809D01*
X126123589Y-116248809D02*
X126266446Y-116344047D01*
X126266446Y-116344047D02*
X126361684Y-116439285D01*
X126361684Y-116439285D02*
X126409303Y-116534523D01*
D12*
X138649809Y-90019047D02*
X138149809Y-90019047D01*
X138149809Y-90019047D02*
X138149809Y-89899999D01*
X138149809Y-89899999D02*
X138173619Y-89828571D01*
X138173619Y-89828571D02*
X138221238Y-89780952D01*
X138221238Y-89780952D02*
X138268857Y-89757142D01*
X138268857Y-89757142D02*
X138364095Y-89733333D01*
X138364095Y-89733333D02*
X138435523Y-89733333D01*
X138435523Y-89733333D02*
X138530761Y-89757142D01*
X138530761Y-89757142D02*
X138578380Y-89780952D01*
X138578380Y-89780952D02*
X138626000Y-89828571D01*
X138626000Y-89828571D02*
X138649809Y-89899999D01*
X138649809Y-89899999D02*
X138649809Y-90019047D01*
X138649809Y-89257142D02*
X138649809Y-89542856D01*
X138649809Y-89399999D02*
X138149809Y-89399999D01*
X138149809Y-89399999D02*
X138221238Y-89447618D01*
X138221238Y-89447618D02*
X138268857Y-89495237D01*
X138268857Y-89495237D02*
X138292666Y-89542856D01*
D11*
X172813333Y-93264819D02*
X172480000Y-92788628D01*
X172241905Y-93264819D02*
X172241905Y-92264819D01*
X172241905Y-92264819D02*
X172622857Y-92264819D01*
X172622857Y-92264819D02*
X172718095Y-92312438D01*
X172718095Y-92312438D02*
X172765714Y-92360057D01*
X172765714Y-92360057D02*
X172813333Y-92455295D01*
X172813333Y-92455295D02*
X172813333Y-92598152D01*
X172813333Y-92598152D02*
X172765714Y-92693390D01*
X172765714Y-92693390D02*
X172718095Y-92741009D01*
X172718095Y-92741009D02*
X172622857Y-92788628D01*
X172622857Y-92788628D02*
X172241905Y-92788628D01*
X173670476Y-92598152D02*
X173670476Y-93264819D01*
X173432381Y-92217200D02*
X173194286Y-92931485D01*
X173194286Y-92931485D02*
X173813333Y-92931485D01*
X115232886Y-108031819D02*
X114899553Y-107555628D01*
X114661458Y-108031819D02*
X114661458Y-107031819D01*
X114661458Y-107031819D02*
X115042410Y-107031819D01*
X115042410Y-107031819D02*
X115137648Y-107079438D01*
X115137648Y-107079438D02*
X115185267Y-107127057D01*
X115185267Y-107127057D02*
X115232886Y-107222295D01*
X115232886Y-107222295D02*
X115232886Y-107365152D01*
X115232886Y-107365152D02*
X115185267Y-107460390D01*
X115185267Y-107460390D02*
X115137648Y-107508009D01*
X115137648Y-107508009D02*
X115042410Y-107555628D01*
X115042410Y-107555628D02*
X114661458Y-107555628D01*
X115613839Y-107127057D02*
X115661458Y-107079438D01*
X115661458Y-107079438D02*
X115756696Y-107031819D01*
X115756696Y-107031819D02*
X115994791Y-107031819D01*
X115994791Y-107031819D02*
X116090029Y-107079438D01*
X116090029Y-107079438D02*
X116137648Y-107127057D01*
X116137648Y-107127057D02*
X116185267Y-107222295D01*
X116185267Y-107222295D02*
X116185267Y-107317533D01*
X116185267Y-107317533D02*
X116137648Y-107460390D01*
X116137648Y-107460390D02*
X115566220Y-108031819D01*
X115566220Y-108031819D02*
X116185267Y-108031819D01*
X116518601Y-107031819D02*
X117185267Y-107031819D01*
X117185267Y-107031819D02*
X116756696Y-108031819D01*
D12*
X132749809Y-103521428D02*
X132511714Y-103688094D01*
X132749809Y-103807142D02*
X132249809Y-103807142D01*
X132249809Y-103807142D02*
X132249809Y-103616666D01*
X132249809Y-103616666D02*
X132273619Y-103569047D01*
X132273619Y-103569047D02*
X132297428Y-103545237D01*
X132297428Y-103545237D02*
X132345047Y-103521428D01*
X132345047Y-103521428D02*
X132416476Y-103521428D01*
X132416476Y-103521428D02*
X132464095Y-103545237D01*
X132464095Y-103545237D02*
X132487904Y-103569047D01*
X132487904Y-103569047D02*
X132511714Y-103616666D01*
X132511714Y-103616666D02*
X132511714Y-103807142D01*
X132297428Y-103330951D02*
X132273619Y-103307142D01*
X132273619Y-103307142D02*
X132249809Y-103259523D01*
X132249809Y-103259523D02*
X132249809Y-103140475D01*
X132249809Y-103140475D02*
X132273619Y-103092856D01*
X132273619Y-103092856D02*
X132297428Y-103069047D01*
X132297428Y-103069047D02*
X132345047Y-103045237D01*
X132345047Y-103045237D02*
X132392666Y-103045237D01*
X132392666Y-103045237D02*
X132464095Y-103069047D01*
X132464095Y-103069047D02*
X132749809Y-103354761D01*
X132749809Y-103354761D02*
X132749809Y-103045237D01*
X132297428Y-102854761D02*
X132273619Y-102830952D01*
X132273619Y-102830952D02*
X132249809Y-102783333D01*
X132249809Y-102783333D02*
X132249809Y-102664285D01*
X132249809Y-102664285D02*
X132273619Y-102616666D01*
X132273619Y-102616666D02*
X132297428Y-102592857D01*
X132297428Y-102592857D02*
X132345047Y-102569047D01*
X132345047Y-102569047D02*
X132392666Y-102569047D01*
X132392666Y-102569047D02*
X132464095Y-102592857D01*
X132464095Y-102592857D02*
X132749809Y-102878571D01*
X132749809Y-102878571D02*
X132749809Y-102569047D01*
X134553571Y-119852190D02*
X134529762Y-119876000D01*
X134529762Y-119876000D02*
X134458333Y-119899809D01*
X134458333Y-119899809D02*
X134410714Y-119899809D01*
X134410714Y-119899809D02*
X134339286Y-119876000D01*
X134339286Y-119876000D02*
X134291667Y-119828380D01*
X134291667Y-119828380D02*
X134267857Y-119780761D01*
X134267857Y-119780761D02*
X134244048Y-119685523D01*
X134244048Y-119685523D02*
X134244048Y-119614095D01*
X134244048Y-119614095D02*
X134267857Y-119518857D01*
X134267857Y-119518857D02*
X134291667Y-119471238D01*
X134291667Y-119471238D02*
X134339286Y-119423619D01*
X134339286Y-119423619D02*
X134410714Y-119399809D01*
X134410714Y-119399809D02*
X134458333Y-119399809D01*
X134458333Y-119399809D02*
X134529762Y-119423619D01*
X134529762Y-119423619D02*
X134553571Y-119447428D01*
X135029762Y-119899809D02*
X134744048Y-119899809D01*
X134886905Y-119899809D02*
X134886905Y-119399809D01*
X134886905Y-119399809D02*
X134839286Y-119471238D01*
X134839286Y-119471238D02*
X134791667Y-119518857D01*
X134791667Y-119518857D02*
X134744048Y-119542666D01*
X135315476Y-119614095D02*
X135267857Y-119590285D01*
X135267857Y-119590285D02*
X135244047Y-119566476D01*
X135244047Y-119566476D02*
X135220238Y-119518857D01*
X135220238Y-119518857D02*
X135220238Y-119495047D01*
X135220238Y-119495047D02*
X135244047Y-119447428D01*
X135244047Y-119447428D02*
X135267857Y-119423619D01*
X135267857Y-119423619D02*
X135315476Y-119399809D01*
X135315476Y-119399809D02*
X135410714Y-119399809D01*
X135410714Y-119399809D02*
X135458333Y-119423619D01*
X135458333Y-119423619D02*
X135482142Y-119447428D01*
X135482142Y-119447428D02*
X135505952Y-119495047D01*
X135505952Y-119495047D02*
X135505952Y-119518857D01*
X135505952Y-119518857D02*
X135482142Y-119566476D01*
X135482142Y-119566476D02*
X135458333Y-119590285D01*
X135458333Y-119590285D02*
X135410714Y-119614095D01*
X135410714Y-119614095D02*
X135315476Y-119614095D01*
X135315476Y-119614095D02*
X135267857Y-119637904D01*
X135267857Y-119637904D02*
X135244047Y-119661714D01*
X135244047Y-119661714D02*
X135220238Y-119709333D01*
X135220238Y-119709333D02*
X135220238Y-119804571D01*
X135220238Y-119804571D02*
X135244047Y-119852190D01*
X135244047Y-119852190D02*
X135267857Y-119876000D01*
X135267857Y-119876000D02*
X135315476Y-119899809D01*
X135315476Y-119899809D02*
X135410714Y-119899809D01*
X135410714Y-119899809D02*
X135458333Y-119876000D01*
X135458333Y-119876000D02*
X135482142Y-119852190D01*
X135482142Y-119852190D02*
X135505952Y-119804571D01*
X135505952Y-119804571D02*
X135505952Y-119709333D01*
X135505952Y-119709333D02*
X135482142Y-119661714D01*
X135482142Y-119661714D02*
X135458333Y-119637904D01*
X135458333Y-119637904D02*
X135410714Y-119614095D01*
X98449809Y-87029761D02*
X98806952Y-87029761D01*
X98806952Y-87029761D02*
X98878380Y-87053570D01*
X98878380Y-87053570D02*
X98926000Y-87101189D01*
X98926000Y-87101189D02*
X98949809Y-87172618D01*
X98949809Y-87172618D02*
X98949809Y-87220237D01*
X98949809Y-86529761D02*
X98949809Y-86815475D01*
X98949809Y-86672618D02*
X98449809Y-86672618D01*
X98449809Y-86672618D02*
X98521238Y-86720237D01*
X98521238Y-86720237D02*
X98568857Y-86767856D01*
X98568857Y-86767856D02*
X98592666Y-86815475D01*
X98449809Y-86220238D02*
X98449809Y-86172619D01*
X98449809Y-86172619D02*
X98473619Y-86125000D01*
X98473619Y-86125000D02*
X98497428Y-86101190D01*
X98497428Y-86101190D02*
X98545047Y-86077381D01*
X98545047Y-86077381D02*
X98640285Y-86053571D01*
X98640285Y-86053571D02*
X98759333Y-86053571D01*
X98759333Y-86053571D02*
X98854571Y-86077381D01*
X98854571Y-86077381D02*
X98902190Y-86101190D01*
X98902190Y-86101190D02*
X98926000Y-86125000D01*
X98926000Y-86125000D02*
X98949809Y-86172619D01*
X98949809Y-86172619D02*
X98949809Y-86220238D01*
X98949809Y-86220238D02*
X98926000Y-86267857D01*
X98926000Y-86267857D02*
X98902190Y-86291666D01*
X98902190Y-86291666D02*
X98854571Y-86315476D01*
X98854571Y-86315476D02*
X98759333Y-86339285D01*
X98759333Y-86339285D02*
X98640285Y-86339285D01*
X98640285Y-86339285D02*
X98545047Y-86315476D01*
X98545047Y-86315476D02*
X98497428Y-86291666D01*
X98497428Y-86291666D02*
X98473619Y-86267857D01*
X98473619Y-86267857D02*
X98449809Y-86220238D01*
D11*
X179308333Y-82654580D02*
X179260714Y-82702200D01*
X179260714Y-82702200D02*
X179117857Y-82749819D01*
X179117857Y-82749819D02*
X179022619Y-82749819D01*
X179022619Y-82749819D02*
X178879762Y-82702200D01*
X178879762Y-82702200D02*
X178784524Y-82606961D01*
X178784524Y-82606961D02*
X178736905Y-82511723D01*
X178736905Y-82511723D02*
X178689286Y-82321247D01*
X178689286Y-82321247D02*
X178689286Y-82178390D01*
X178689286Y-82178390D02*
X178736905Y-81987914D01*
X178736905Y-81987914D02*
X178784524Y-81892676D01*
X178784524Y-81892676D02*
X178879762Y-81797438D01*
X178879762Y-81797438D02*
X179022619Y-81749819D01*
X179022619Y-81749819D02*
X179117857Y-81749819D01*
X179117857Y-81749819D02*
X179260714Y-81797438D01*
X179260714Y-81797438D02*
X179308333Y-81845057D01*
X180260714Y-82749819D02*
X179689286Y-82749819D01*
X179975000Y-82749819D02*
X179975000Y-81749819D01*
X179975000Y-81749819D02*
X179879762Y-81892676D01*
X179879762Y-81892676D02*
X179784524Y-81987914D01*
X179784524Y-81987914D02*
X179689286Y-82035533D01*
D12*
X172141666Y-82824809D02*
X171903571Y-82824809D01*
X171903571Y-82824809D02*
X171903571Y-82324809D01*
X172570238Y-82824809D02*
X172284524Y-82824809D01*
X172427381Y-82824809D02*
X172427381Y-82324809D01*
X172427381Y-82324809D02*
X172379762Y-82396238D01*
X172379762Y-82396238D02*
X172332143Y-82443857D01*
X172332143Y-82443857D02*
X172284524Y-82467666D01*
X144374809Y-111546428D02*
X144136714Y-111713094D01*
X144374809Y-111832142D02*
X143874809Y-111832142D01*
X143874809Y-111832142D02*
X143874809Y-111641666D01*
X143874809Y-111641666D02*
X143898619Y-111594047D01*
X143898619Y-111594047D02*
X143922428Y-111570237D01*
X143922428Y-111570237D02*
X143970047Y-111546428D01*
X143970047Y-111546428D02*
X144041476Y-111546428D01*
X144041476Y-111546428D02*
X144089095Y-111570237D01*
X144089095Y-111570237D02*
X144112904Y-111594047D01*
X144112904Y-111594047D02*
X144136714Y-111641666D01*
X144136714Y-111641666D02*
X144136714Y-111832142D01*
X144374809Y-111070237D02*
X144374809Y-111355951D01*
X144374809Y-111213094D02*
X143874809Y-111213094D01*
X143874809Y-111213094D02*
X143946238Y-111260713D01*
X143946238Y-111260713D02*
X143993857Y-111308332D01*
X143993857Y-111308332D02*
X144017666Y-111355951D01*
X143874809Y-110617857D02*
X143874809Y-110855952D01*
X143874809Y-110855952D02*
X144112904Y-110879761D01*
X144112904Y-110879761D02*
X144089095Y-110855952D01*
X144089095Y-110855952D02*
X144065285Y-110808333D01*
X144065285Y-110808333D02*
X144065285Y-110689285D01*
X144065285Y-110689285D02*
X144089095Y-110641666D01*
X144089095Y-110641666D02*
X144112904Y-110617857D01*
X144112904Y-110617857D02*
X144160523Y-110594047D01*
X144160523Y-110594047D02*
X144279571Y-110594047D01*
X144279571Y-110594047D02*
X144327190Y-110617857D01*
X144327190Y-110617857D02*
X144351000Y-110641666D01*
X144351000Y-110641666D02*
X144374809Y-110689285D01*
X144374809Y-110689285D02*
X144374809Y-110808333D01*
X144374809Y-110808333D02*
X144351000Y-110855952D01*
X144351000Y-110855952D02*
X144327190Y-110879761D01*
X144628571Y-110002190D02*
X144604762Y-110026000D01*
X144604762Y-110026000D02*
X144533333Y-110049809D01*
X144533333Y-110049809D02*
X144485714Y-110049809D01*
X144485714Y-110049809D02*
X144414286Y-110026000D01*
X144414286Y-110026000D02*
X144366667Y-109978380D01*
X144366667Y-109978380D02*
X144342857Y-109930761D01*
X144342857Y-109930761D02*
X144319048Y-109835523D01*
X144319048Y-109835523D02*
X144319048Y-109764095D01*
X144319048Y-109764095D02*
X144342857Y-109668857D01*
X144342857Y-109668857D02*
X144366667Y-109621238D01*
X144366667Y-109621238D02*
X144414286Y-109573619D01*
X144414286Y-109573619D02*
X144485714Y-109549809D01*
X144485714Y-109549809D02*
X144533333Y-109549809D01*
X144533333Y-109549809D02*
X144604762Y-109573619D01*
X144604762Y-109573619D02*
X144628571Y-109597428D01*
X145104762Y-110049809D02*
X144819048Y-110049809D01*
X144961905Y-110049809D02*
X144961905Y-109549809D01*
X144961905Y-109549809D02*
X144914286Y-109621238D01*
X144914286Y-109621238D02*
X144866667Y-109668857D01*
X144866667Y-109668857D02*
X144819048Y-109692666D01*
X145271428Y-109549809D02*
X145580952Y-109549809D01*
X145580952Y-109549809D02*
X145414285Y-109740285D01*
X145414285Y-109740285D02*
X145485714Y-109740285D01*
X145485714Y-109740285D02*
X145533333Y-109764095D01*
X145533333Y-109764095D02*
X145557142Y-109787904D01*
X145557142Y-109787904D02*
X145580952Y-109835523D01*
X145580952Y-109835523D02*
X145580952Y-109954571D01*
X145580952Y-109954571D02*
X145557142Y-110002190D01*
X145557142Y-110002190D02*
X145533333Y-110026000D01*
X145533333Y-110026000D02*
X145485714Y-110049809D01*
X145485714Y-110049809D02*
X145342857Y-110049809D01*
X145342857Y-110049809D02*
X145295238Y-110026000D01*
X145295238Y-110026000D02*
X145271428Y-110002190D01*
X155553571Y-83499809D02*
X155386905Y-83261714D01*
X155267857Y-83499809D02*
X155267857Y-82999809D01*
X155267857Y-82999809D02*
X155458333Y-82999809D01*
X155458333Y-82999809D02*
X155505952Y-83023619D01*
X155505952Y-83023619D02*
X155529762Y-83047428D01*
X155529762Y-83047428D02*
X155553571Y-83095047D01*
X155553571Y-83095047D02*
X155553571Y-83166476D01*
X155553571Y-83166476D02*
X155529762Y-83214095D01*
X155529762Y-83214095D02*
X155505952Y-83237904D01*
X155505952Y-83237904D02*
X155458333Y-83261714D01*
X155458333Y-83261714D02*
X155267857Y-83261714D01*
X155720238Y-82999809D02*
X156029762Y-82999809D01*
X156029762Y-82999809D02*
X155863095Y-83190285D01*
X155863095Y-83190285D02*
X155934524Y-83190285D01*
X155934524Y-83190285D02*
X155982143Y-83214095D01*
X155982143Y-83214095D02*
X156005952Y-83237904D01*
X156005952Y-83237904D02*
X156029762Y-83285523D01*
X156029762Y-83285523D02*
X156029762Y-83404571D01*
X156029762Y-83404571D02*
X156005952Y-83452190D01*
X156005952Y-83452190D02*
X155982143Y-83476000D01*
X155982143Y-83476000D02*
X155934524Y-83499809D01*
X155934524Y-83499809D02*
X155791667Y-83499809D01*
X155791667Y-83499809D02*
X155744048Y-83476000D01*
X155744048Y-83476000D02*
X155720238Y-83452190D01*
X156339285Y-82999809D02*
X156386904Y-82999809D01*
X156386904Y-82999809D02*
X156434523Y-83023619D01*
X156434523Y-83023619D02*
X156458333Y-83047428D01*
X156458333Y-83047428D02*
X156482142Y-83095047D01*
X156482142Y-83095047D02*
X156505952Y-83190285D01*
X156505952Y-83190285D02*
X156505952Y-83309333D01*
X156505952Y-83309333D02*
X156482142Y-83404571D01*
X156482142Y-83404571D02*
X156458333Y-83452190D01*
X156458333Y-83452190D02*
X156434523Y-83476000D01*
X156434523Y-83476000D02*
X156386904Y-83499809D01*
X156386904Y-83499809D02*
X156339285Y-83499809D01*
X156339285Y-83499809D02*
X156291666Y-83476000D01*
X156291666Y-83476000D02*
X156267857Y-83452190D01*
X156267857Y-83452190D02*
X156244047Y-83404571D01*
X156244047Y-83404571D02*
X156220238Y-83309333D01*
X156220238Y-83309333D02*
X156220238Y-83190285D01*
X156220238Y-83190285D02*
X156244047Y-83095047D01*
X156244047Y-83095047D02*
X156267857Y-83047428D01*
X156267857Y-83047428D02*
X156291666Y-83023619D01*
X156291666Y-83023619D02*
X156339285Y-82999809D01*
D11*
X115232886Y-111036580D02*
X115185267Y-111084200D01*
X115185267Y-111084200D02*
X115042410Y-111131819D01*
X115042410Y-111131819D02*
X114947172Y-111131819D01*
X114947172Y-111131819D02*
X114804315Y-111084200D01*
X114804315Y-111084200D02*
X114709077Y-110988961D01*
X114709077Y-110988961D02*
X114661458Y-110893723D01*
X114661458Y-110893723D02*
X114613839Y-110703247D01*
X114613839Y-110703247D02*
X114613839Y-110560390D01*
X114613839Y-110560390D02*
X114661458Y-110369914D01*
X114661458Y-110369914D02*
X114709077Y-110274676D01*
X114709077Y-110274676D02*
X114804315Y-110179438D01*
X114804315Y-110179438D02*
X114947172Y-110131819D01*
X114947172Y-110131819D02*
X115042410Y-110131819D01*
X115042410Y-110131819D02*
X115185267Y-110179438D01*
X115185267Y-110179438D02*
X115232886Y-110227057D01*
X115613839Y-110227057D02*
X115661458Y-110179438D01*
X115661458Y-110179438D02*
X115756696Y-110131819D01*
X115756696Y-110131819D02*
X115994791Y-110131819D01*
X115994791Y-110131819D02*
X116090029Y-110179438D01*
X116090029Y-110179438D02*
X116137648Y-110227057D01*
X116137648Y-110227057D02*
X116185267Y-110322295D01*
X116185267Y-110322295D02*
X116185267Y-110417533D01*
X116185267Y-110417533D02*
X116137648Y-110560390D01*
X116137648Y-110560390D02*
X115566220Y-111131819D01*
X115566220Y-111131819D02*
X116185267Y-111131819D01*
X117042410Y-110465152D02*
X117042410Y-111131819D01*
X116804315Y-110084200D02*
X116566220Y-110798485D01*
X116566220Y-110798485D02*
X117185267Y-110798485D01*
D12*
X137349809Y-124607142D02*
X136849809Y-124607142D01*
X136849809Y-124607142D02*
X136849809Y-124488094D01*
X136849809Y-124488094D02*
X136873619Y-124416666D01*
X136873619Y-124416666D02*
X136921238Y-124369047D01*
X136921238Y-124369047D02*
X136968857Y-124345237D01*
X136968857Y-124345237D02*
X137064095Y-124321428D01*
X137064095Y-124321428D02*
X137135523Y-124321428D01*
X137135523Y-124321428D02*
X137230761Y-124345237D01*
X137230761Y-124345237D02*
X137278380Y-124369047D01*
X137278380Y-124369047D02*
X137326000Y-124416666D01*
X137326000Y-124416666D02*
X137349809Y-124488094D01*
X137349809Y-124488094D02*
X137349809Y-124607142D01*
X137349809Y-123845237D02*
X137349809Y-124130951D01*
X137349809Y-123988094D02*
X136849809Y-123988094D01*
X136849809Y-123988094D02*
X136921238Y-124035713D01*
X136921238Y-124035713D02*
X136968857Y-124083332D01*
X136968857Y-124083332D02*
X136992666Y-124130951D01*
X136849809Y-123535714D02*
X136849809Y-123488095D01*
X136849809Y-123488095D02*
X136873619Y-123440476D01*
X136873619Y-123440476D02*
X136897428Y-123416666D01*
X136897428Y-123416666D02*
X136945047Y-123392857D01*
X136945047Y-123392857D02*
X137040285Y-123369047D01*
X137040285Y-123369047D02*
X137159333Y-123369047D01*
X137159333Y-123369047D02*
X137254571Y-123392857D01*
X137254571Y-123392857D02*
X137302190Y-123416666D01*
X137302190Y-123416666D02*
X137326000Y-123440476D01*
X137326000Y-123440476D02*
X137349809Y-123488095D01*
X137349809Y-123488095D02*
X137349809Y-123535714D01*
X137349809Y-123535714D02*
X137326000Y-123583333D01*
X137326000Y-123583333D02*
X137302190Y-123607142D01*
X137302190Y-123607142D02*
X137254571Y-123630952D01*
X137254571Y-123630952D02*
X137159333Y-123654761D01*
X137159333Y-123654761D02*
X137040285Y-123654761D01*
X137040285Y-123654761D02*
X136945047Y-123630952D01*
X136945047Y-123630952D02*
X136897428Y-123607142D01*
X136897428Y-123607142D02*
X136873619Y-123583333D01*
X136873619Y-123583333D02*
X136849809Y-123535714D01*
D11*
X179333333Y-84354580D02*
X179285714Y-84402200D01*
X179285714Y-84402200D02*
X179142857Y-84449819D01*
X179142857Y-84449819D02*
X179047619Y-84449819D01*
X179047619Y-84449819D02*
X178904762Y-84402200D01*
X178904762Y-84402200D02*
X178809524Y-84306961D01*
X178809524Y-84306961D02*
X178761905Y-84211723D01*
X178761905Y-84211723D02*
X178714286Y-84021247D01*
X178714286Y-84021247D02*
X178714286Y-83878390D01*
X178714286Y-83878390D02*
X178761905Y-83687914D01*
X178761905Y-83687914D02*
X178809524Y-83592676D01*
X178809524Y-83592676D02*
X178904762Y-83497438D01*
X178904762Y-83497438D02*
X179047619Y-83449819D01*
X179047619Y-83449819D02*
X179142857Y-83449819D01*
X179142857Y-83449819D02*
X179285714Y-83497438D01*
X179285714Y-83497438D02*
X179333333Y-83545057D01*
X179714286Y-83545057D02*
X179761905Y-83497438D01*
X179761905Y-83497438D02*
X179857143Y-83449819D01*
X179857143Y-83449819D02*
X180095238Y-83449819D01*
X180095238Y-83449819D02*
X180190476Y-83497438D01*
X180190476Y-83497438D02*
X180238095Y-83545057D01*
X180238095Y-83545057D02*
X180285714Y-83640295D01*
X180285714Y-83640295D02*
X180285714Y-83735533D01*
X180285714Y-83735533D02*
X180238095Y-83878390D01*
X180238095Y-83878390D02*
X179666667Y-84449819D01*
X179666667Y-84449819D02*
X180285714Y-84449819D01*
D12*
X98374809Y-90541666D02*
X98731952Y-90541666D01*
X98731952Y-90541666D02*
X98803380Y-90565475D01*
X98803380Y-90565475D02*
X98851000Y-90613094D01*
X98851000Y-90613094D02*
X98874809Y-90684523D01*
X98874809Y-90684523D02*
X98874809Y-90732142D01*
X98874809Y-90279761D02*
X98874809Y-90184523D01*
X98874809Y-90184523D02*
X98851000Y-90136904D01*
X98851000Y-90136904D02*
X98827190Y-90113095D01*
X98827190Y-90113095D02*
X98755761Y-90065476D01*
X98755761Y-90065476D02*
X98660523Y-90041666D01*
X98660523Y-90041666D02*
X98470047Y-90041666D01*
X98470047Y-90041666D02*
X98422428Y-90065476D01*
X98422428Y-90065476D02*
X98398619Y-90089285D01*
X98398619Y-90089285D02*
X98374809Y-90136904D01*
X98374809Y-90136904D02*
X98374809Y-90232142D01*
X98374809Y-90232142D02*
X98398619Y-90279761D01*
X98398619Y-90279761D02*
X98422428Y-90303571D01*
X98422428Y-90303571D02*
X98470047Y-90327380D01*
X98470047Y-90327380D02*
X98589095Y-90327380D01*
X98589095Y-90327380D02*
X98636714Y-90303571D01*
X98636714Y-90303571D02*
X98660523Y-90279761D01*
X98660523Y-90279761D02*
X98684333Y-90232142D01*
X98684333Y-90232142D02*
X98684333Y-90136904D01*
X98684333Y-90136904D02*
X98660523Y-90089285D01*
X98660523Y-90089285D02*
X98636714Y-90065476D01*
X98636714Y-90065476D02*
X98589095Y-90041666D01*
X147519047Y-88524809D02*
X147519047Y-88929571D01*
X147519047Y-88929571D02*
X147542857Y-88977190D01*
X147542857Y-88977190D02*
X147566666Y-89001000D01*
X147566666Y-89001000D02*
X147614285Y-89024809D01*
X147614285Y-89024809D02*
X147709523Y-89024809D01*
X147709523Y-89024809D02*
X147757142Y-89001000D01*
X147757142Y-89001000D02*
X147780952Y-88977190D01*
X147780952Y-88977190D02*
X147804761Y-88929571D01*
X147804761Y-88929571D02*
X147804761Y-88524809D01*
X148280952Y-88524809D02*
X148042857Y-88524809D01*
X148042857Y-88524809D02*
X148019048Y-88762904D01*
X148019048Y-88762904D02*
X148042857Y-88739095D01*
X148042857Y-88739095D02*
X148090476Y-88715285D01*
X148090476Y-88715285D02*
X148209524Y-88715285D01*
X148209524Y-88715285D02*
X148257143Y-88739095D01*
X148257143Y-88739095D02*
X148280952Y-88762904D01*
X148280952Y-88762904D02*
X148304762Y-88810523D01*
X148304762Y-88810523D02*
X148304762Y-88929571D01*
X148304762Y-88929571D02*
X148280952Y-88977190D01*
X148280952Y-88977190D02*
X148257143Y-89001000D01*
X148257143Y-89001000D02*
X148209524Y-89024809D01*
X148209524Y-89024809D02*
X148090476Y-89024809D01*
X148090476Y-89024809D02*
X148042857Y-89001000D01*
X148042857Y-89001000D02*
X148019048Y-88977190D01*
X186578571Y-123599809D02*
X186411905Y-123361714D01*
X186292857Y-123599809D02*
X186292857Y-123099809D01*
X186292857Y-123099809D02*
X186483333Y-123099809D01*
X186483333Y-123099809D02*
X186530952Y-123123619D01*
X186530952Y-123123619D02*
X186554762Y-123147428D01*
X186554762Y-123147428D02*
X186578571Y-123195047D01*
X186578571Y-123195047D02*
X186578571Y-123266476D01*
X186578571Y-123266476D02*
X186554762Y-123314095D01*
X186554762Y-123314095D02*
X186530952Y-123337904D01*
X186530952Y-123337904D02*
X186483333Y-123361714D01*
X186483333Y-123361714D02*
X186292857Y-123361714D01*
X187054762Y-123599809D02*
X186769048Y-123599809D01*
X186911905Y-123599809D02*
X186911905Y-123099809D01*
X186911905Y-123099809D02*
X186864286Y-123171238D01*
X186864286Y-123171238D02*
X186816667Y-123218857D01*
X186816667Y-123218857D02*
X186769048Y-123242666D01*
X187364285Y-123099809D02*
X187411904Y-123099809D01*
X187411904Y-123099809D02*
X187459523Y-123123619D01*
X187459523Y-123123619D02*
X187483333Y-123147428D01*
X187483333Y-123147428D02*
X187507142Y-123195047D01*
X187507142Y-123195047D02*
X187530952Y-123290285D01*
X187530952Y-123290285D02*
X187530952Y-123409333D01*
X187530952Y-123409333D02*
X187507142Y-123504571D01*
X187507142Y-123504571D02*
X187483333Y-123552190D01*
X187483333Y-123552190D02*
X187459523Y-123576000D01*
X187459523Y-123576000D02*
X187411904Y-123599809D01*
X187411904Y-123599809D02*
X187364285Y-123599809D01*
X187364285Y-123599809D02*
X187316666Y-123576000D01*
X187316666Y-123576000D02*
X187292857Y-123552190D01*
X187292857Y-123552190D02*
X187269047Y-123504571D01*
X187269047Y-123504571D02*
X187245238Y-123409333D01*
X187245238Y-123409333D02*
X187245238Y-123290285D01*
X187245238Y-123290285D02*
X187269047Y-123195047D01*
X187269047Y-123195047D02*
X187292857Y-123147428D01*
X187292857Y-123147428D02*
X187316666Y-123123619D01*
X187316666Y-123123619D02*
X187364285Y-123099809D01*
D11*
X115207886Y-118911580D02*
X115160267Y-118959200D01*
X115160267Y-118959200D02*
X115017410Y-119006819D01*
X115017410Y-119006819D02*
X114922172Y-119006819D01*
X114922172Y-119006819D02*
X114779315Y-118959200D01*
X114779315Y-118959200D02*
X114684077Y-118863961D01*
X114684077Y-118863961D02*
X114636458Y-118768723D01*
X114636458Y-118768723D02*
X114588839Y-118578247D01*
X114588839Y-118578247D02*
X114588839Y-118435390D01*
X114588839Y-118435390D02*
X114636458Y-118244914D01*
X114636458Y-118244914D02*
X114684077Y-118149676D01*
X114684077Y-118149676D02*
X114779315Y-118054438D01*
X114779315Y-118054438D02*
X114922172Y-118006819D01*
X114922172Y-118006819D02*
X115017410Y-118006819D01*
X115017410Y-118006819D02*
X115160267Y-118054438D01*
X115160267Y-118054438D02*
X115207886Y-118102057D01*
X115588839Y-118102057D02*
X115636458Y-118054438D01*
X115636458Y-118054438D02*
X115731696Y-118006819D01*
X115731696Y-118006819D02*
X115969791Y-118006819D01*
X115969791Y-118006819D02*
X116065029Y-118054438D01*
X116065029Y-118054438D02*
X116112648Y-118102057D01*
X116112648Y-118102057D02*
X116160267Y-118197295D01*
X116160267Y-118197295D02*
X116160267Y-118292533D01*
X116160267Y-118292533D02*
X116112648Y-118435390D01*
X116112648Y-118435390D02*
X115541220Y-119006819D01*
X115541220Y-119006819D02*
X116160267Y-119006819D01*
X116493601Y-118006819D02*
X117160267Y-118006819D01*
X117160267Y-118006819D02*
X116731696Y-119006819D01*
D12*
X123853571Y-114799809D02*
X123686905Y-114561714D01*
X123567857Y-114799809D02*
X123567857Y-114299809D01*
X123567857Y-114299809D02*
X123758333Y-114299809D01*
X123758333Y-114299809D02*
X123805952Y-114323619D01*
X123805952Y-114323619D02*
X123829762Y-114347428D01*
X123829762Y-114347428D02*
X123853571Y-114395047D01*
X123853571Y-114395047D02*
X123853571Y-114466476D01*
X123853571Y-114466476D02*
X123829762Y-114514095D01*
X123829762Y-114514095D02*
X123805952Y-114537904D01*
X123805952Y-114537904D02*
X123758333Y-114561714D01*
X123758333Y-114561714D02*
X123567857Y-114561714D01*
X124044048Y-114347428D02*
X124067857Y-114323619D01*
X124067857Y-114323619D02*
X124115476Y-114299809D01*
X124115476Y-114299809D02*
X124234524Y-114299809D01*
X124234524Y-114299809D02*
X124282143Y-114323619D01*
X124282143Y-114323619D02*
X124305952Y-114347428D01*
X124305952Y-114347428D02*
X124329762Y-114395047D01*
X124329762Y-114395047D02*
X124329762Y-114442666D01*
X124329762Y-114442666D02*
X124305952Y-114514095D01*
X124305952Y-114514095D02*
X124020238Y-114799809D01*
X124020238Y-114799809D02*
X124329762Y-114799809D01*
X124758333Y-114466476D02*
X124758333Y-114799809D01*
X124639285Y-114276000D02*
X124520238Y-114633142D01*
X124520238Y-114633142D02*
X124829761Y-114633142D01*
D11*
X110220180Y-113316666D02*
X109505895Y-113316666D01*
X109505895Y-113316666D02*
X109363038Y-113269047D01*
X109363038Y-113269047D02*
X109267800Y-113173809D01*
X109267800Y-113173809D02*
X109220180Y-113030952D01*
X109220180Y-113030952D02*
X109220180Y-112935714D01*
X110220180Y-113697619D02*
X110220180Y-114316666D01*
X110220180Y-114316666D02*
X109839228Y-113983333D01*
X109839228Y-113983333D02*
X109839228Y-114126190D01*
X109839228Y-114126190D02*
X109791609Y-114221428D01*
X109791609Y-114221428D02*
X109743990Y-114269047D01*
X109743990Y-114269047D02*
X109648752Y-114316666D01*
X109648752Y-114316666D02*
X109410657Y-114316666D01*
X109410657Y-114316666D02*
X109315419Y-114269047D01*
X109315419Y-114269047D02*
X109267800Y-114221428D01*
X109267800Y-114221428D02*
X109220180Y-114126190D01*
X109220180Y-114126190D02*
X109220180Y-113840476D01*
X109220180Y-113840476D02*
X109267800Y-113745238D01*
X109267800Y-113745238D02*
X109315419Y-113697619D01*
D12*
X121800960Y-119796428D02*
X121824770Y-119820237D01*
X121824770Y-119820237D02*
X121848579Y-119891666D01*
X121848579Y-119891666D02*
X121848579Y-119939285D01*
X121848579Y-119939285D02*
X121824770Y-120010713D01*
X121824770Y-120010713D02*
X121777150Y-120058332D01*
X121777150Y-120058332D02*
X121729531Y-120082142D01*
X121729531Y-120082142D02*
X121634293Y-120105951D01*
X121634293Y-120105951D02*
X121562865Y-120105951D01*
X121562865Y-120105951D02*
X121467627Y-120082142D01*
X121467627Y-120082142D02*
X121420008Y-120058332D01*
X121420008Y-120058332D02*
X121372389Y-120010713D01*
X121372389Y-120010713D02*
X121348579Y-119939285D01*
X121348579Y-119939285D02*
X121348579Y-119891666D01*
X121348579Y-119891666D02*
X121372389Y-119820237D01*
X121372389Y-119820237D02*
X121396198Y-119796428D01*
X121396198Y-119605951D02*
X121372389Y-119582142D01*
X121372389Y-119582142D02*
X121348579Y-119534523D01*
X121348579Y-119534523D02*
X121348579Y-119415475D01*
X121348579Y-119415475D02*
X121372389Y-119367856D01*
X121372389Y-119367856D02*
X121396198Y-119344047D01*
X121396198Y-119344047D02*
X121443817Y-119320237D01*
X121443817Y-119320237D02*
X121491436Y-119320237D01*
X121491436Y-119320237D02*
X121562865Y-119344047D01*
X121562865Y-119344047D02*
X121848579Y-119629761D01*
X121848579Y-119629761D02*
X121848579Y-119320237D01*
X121396198Y-119129761D02*
X121372389Y-119105952D01*
X121372389Y-119105952D02*
X121348579Y-119058333D01*
X121348579Y-119058333D02*
X121348579Y-118939285D01*
X121348579Y-118939285D02*
X121372389Y-118891666D01*
X121372389Y-118891666D02*
X121396198Y-118867857D01*
X121396198Y-118867857D02*
X121443817Y-118844047D01*
X121443817Y-118844047D02*
X121491436Y-118844047D01*
X121491436Y-118844047D02*
X121562865Y-118867857D01*
X121562865Y-118867857D02*
X121848579Y-119153571D01*
X121848579Y-119153571D02*
X121848579Y-118844047D01*
X146676760Y-105521428D02*
X146700570Y-105545237D01*
X146700570Y-105545237D02*
X146724379Y-105616666D01*
X146724379Y-105616666D02*
X146724379Y-105664285D01*
X146724379Y-105664285D02*
X146700570Y-105735713D01*
X146700570Y-105735713D02*
X146652950Y-105783332D01*
X146652950Y-105783332D02*
X146605331Y-105807142D01*
X146605331Y-105807142D02*
X146510093Y-105830951D01*
X146510093Y-105830951D02*
X146438665Y-105830951D01*
X146438665Y-105830951D02*
X146343427Y-105807142D01*
X146343427Y-105807142D02*
X146295808Y-105783332D01*
X146295808Y-105783332D02*
X146248189Y-105735713D01*
X146248189Y-105735713D02*
X146224379Y-105664285D01*
X146224379Y-105664285D02*
X146224379Y-105616666D01*
X146224379Y-105616666D02*
X146248189Y-105545237D01*
X146248189Y-105545237D02*
X146271998Y-105521428D01*
X146724379Y-105045237D02*
X146724379Y-105330951D01*
X146724379Y-105188094D02*
X146224379Y-105188094D01*
X146224379Y-105188094D02*
X146295808Y-105235713D01*
X146295808Y-105235713D02*
X146343427Y-105283332D01*
X146343427Y-105283332D02*
X146367236Y-105330951D01*
X146391046Y-104616666D02*
X146724379Y-104616666D01*
X146200570Y-104735714D02*
X146557712Y-104854761D01*
X146557712Y-104854761D02*
X146557712Y-104545238D01*
X137724809Y-103521428D02*
X137486714Y-103688094D01*
X137724809Y-103807142D02*
X137224809Y-103807142D01*
X137224809Y-103807142D02*
X137224809Y-103616666D01*
X137224809Y-103616666D02*
X137248619Y-103569047D01*
X137248619Y-103569047D02*
X137272428Y-103545237D01*
X137272428Y-103545237D02*
X137320047Y-103521428D01*
X137320047Y-103521428D02*
X137391476Y-103521428D01*
X137391476Y-103521428D02*
X137439095Y-103545237D01*
X137439095Y-103545237D02*
X137462904Y-103569047D01*
X137462904Y-103569047D02*
X137486714Y-103616666D01*
X137486714Y-103616666D02*
X137486714Y-103807142D01*
X137272428Y-103330951D02*
X137248619Y-103307142D01*
X137248619Y-103307142D02*
X137224809Y-103259523D01*
X137224809Y-103259523D02*
X137224809Y-103140475D01*
X137224809Y-103140475D02*
X137248619Y-103092856D01*
X137248619Y-103092856D02*
X137272428Y-103069047D01*
X137272428Y-103069047D02*
X137320047Y-103045237D01*
X137320047Y-103045237D02*
X137367666Y-103045237D01*
X137367666Y-103045237D02*
X137439095Y-103069047D01*
X137439095Y-103069047D02*
X137724809Y-103354761D01*
X137724809Y-103354761D02*
X137724809Y-103045237D01*
X137224809Y-102735714D02*
X137224809Y-102688095D01*
X137224809Y-102688095D02*
X137248619Y-102640476D01*
X137248619Y-102640476D02*
X137272428Y-102616666D01*
X137272428Y-102616666D02*
X137320047Y-102592857D01*
X137320047Y-102592857D02*
X137415285Y-102569047D01*
X137415285Y-102569047D02*
X137534333Y-102569047D01*
X137534333Y-102569047D02*
X137629571Y-102592857D01*
X137629571Y-102592857D02*
X137677190Y-102616666D01*
X137677190Y-102616666D02*
X137701000Y-102640476D01*
X137701000Y-102640476D02*
X137724809Y-102688095D01*
X137724809Y-102688095D02*
X137724809Y-102735714D01*
X137724809Y-102735714D02*
X137701000Y-102783333D01*
X137701000Y-102783333D02*
X137677190Y-102807142D01*
X137677190Y-102807142D02*
X137629571Y-102830952D01*
X137629571Y-102830952D02*
X137534333Y-102854761D01*
X137534333Y-102854761D02*
X137415285Y-102854761D01*
X137415285Y-102854761D02*
X137320047Y-102830952D01*
X137320047Y-102830952D02*
X137272428Y-102807142D01*
X137272428Y-102807142D02*
X137248619Y-102783333D01*
X137248619Y-102783333D02*
X137224809Y-102735714D01*
X148402190Y-105546428D02*
X148426000Y-105570237D01*
X148426000Y-105570237D02*
X148449809Y-105641666D01*
X148449809Y-105641666D02*
X148449809Y-105689285D01*
X148449809Y-105689285D02*
X148426000Y-105760713D01*
X148426000Y-105760713D02*
X148378380Y-105808332D01*
X148378380Y-105808332D02*
X148330761Y-105832142D01*
X148330761Y-105832142D02*
X148235523Y-105855951D01*
X148235523Y-105855951D02*
X148164095Y-105855951D01*
X148164095Y-105855951D02*
X148068857Y-105832142D01*
X148068857Y-105832142D02*
X148021238Y-105808332D01*
X148021238Y-105808332D02*
X147973619Y-105760713D01*
X147973619Y-105760713D02*
X147949809Y-105689285D01*
X147949809Y-105689285D02*
X147949809Y-105641666D01*
X147949809Y-105641666D02*
X147973619Y-105570237D01*
X147973619Y-105570237D02*
X147997428Y-105546428D01*
X148449809Y-105070237D02*
X148449809Y-105355951D01*
X148449809Y-105213094D02*
X147949809Y-105213094D01*
X147949809Y-105213094D02*
X148021238Y-105260713D01*
X148021238Y-105260713D02*
X148068857Y-105308332D01*
X148068857Y-105308332D02*
X148092666Y-105355951D01*
X147949809Y-104641666D02*
X147949809Y-104736904D01*
X147949809Y-104736904D02*
X147973619Y-104784523D01*
X147973619Y-104784523D02*
X147997428Y-104808333D01*
X147997428Y-104808333D02*
X148068857Y-104855952D01*
X148068857Y-104855952D02*
X148164095Y-104879761D01*
X148164095Y-104879761D02*
X148354571Y-104879761D01*
X148354571Y-104879761D02*
X148402190Y-104855952D01*
X148402190Y-104855952D02*
X148426000Y-104832142D01*
X148426000Y-104832142D02*
X148449809Y-104784523D01*
X148449809Y-104784523D02*
X148449809Y-104689285D01*
X148449809Y-104689285D02*
X148426000Y-104641666D01*
X148426000Y-104641666D02*
X148402190Y-104617857D01*
X148402190Y-104617857D02*
X148354571Y-104594047D01*
X148354571Y-104594047D02*
X148235523Y-104594047D01*
X148235523Y-104594047D02*
X148187904Y-104617857D01*
X148187904Y-104617857D02*
X148164095Y-104641666D01*
X148164095Y-104641666D02*
X148140285Y-104689285D01*
X148140285Y-104689285D02*
X148140285Y-104784523D01*
X148140285Y-104784523D02*
X148164095Y-104832142D01*
X148164095Y-104832142D02*
X148187904Y-104855952D01*
X148187904Y-104855952D02*
X148235523Y-104879761D01*
D11*
X183981789Y-97156494D02*
X182981789Y-97156494D01*
X182981789Y-97156494D02*
X182981789Y-96918399D01*
X182981789Y-96918399D02*
X183029408Y-96775542D01*
X183029408Y-96775542D02*
X183124646Y-96680304D01*
X183124646Y-96680304D02*
X183219884Y-96632685D01*
X183219884Y-96632685D02*
X183410360Y-96585066D01*
X183410360Y-96585066D02*
X183553217Y-96585066D01*
X183553217Y-96585066D02*
X183743693Y-96632685D01*
X183743693Y-96632685D02*
X183838931Y-96680304D01*
X183838931Y-96680304D02*
X183934170Y-96775542D01*
X183934170Y-96775542D02*
X183981789Y-96918399D01*
X183981789Y-96918399D02*
X183981789Y-97156494D01*
X183410360Y-96013637D02*
X183362741Y-96108875D01*
X183362741Y-96108875D02*
X183315122Y-96156494D01*
X183315122Y-96156494D02*
X183219884Y-96204113D01*
X183219884Y-96204113D02*
X183172265Y-96204113D01*
X183172265Y-96204113D02*
X183077027Y-96156494D01*
X183077027Y-96156494D02*
X183029408Y-96108875D01*
X183029408Y-96108875D02*
X182981789Y-96013637D01*
X182981789Y-96013637D02*
X182981789Y-95823161D01*
X182981789Y-95823161D02*
X183029408Y-95727923D01*
X183029408Y-95727923D02*
X183077027Y-95680304D01*
X183077027Y-95680304D02*
X183172265Y-95632685D01*
X183172265Y-95632685D02*
X183219884Y-95632685D01*
X183219884Y-95632685D02*
X183315122Y-95680304D01*
X183315122Y-95680304D02*
X183362741Y-95727923D01*
X183362741Y-95727923D02*
X183410360Y-95823161D01*
X183410360Y-95823161D02*
X183410360Y-96013637D01*
X183410360Y-96013637D02*
X183457979Y-96108875D01*
X183457979Y-96108875D02*
X183505598Y-96156494D01*
X183505598Y-96156494D02*
X183600836Y-96204113D01*
X183600836Y-96204113D02*
X183791312Y-96204113D01*
X183791312Y-96204113D02*
X183886550Y-96156494D01*
X183886550Y-96156494D02*
X183934170Y-96108875D01*
X183934170Y-96108875D02*
X183981789Y-96013637D01*
X183981789Y-96013637D02*
X183981789Y-95823161D01*
X183981789Y-95823161D02*
X183934170Y-95727923D01*
X183934170Y-95727923D02*
X183886550Y-95680304D01*
X183886550Y-95680304D02*
X183791312Y-95632685D01*
X183791312Y-95632685D02*
X183600836Y-95632685D01*
X183600836Y-95632685D02*
X183505598Y-95680304D01*
X183505598Y-95680304D02*
X183457979Y-95727923D01*
X183457979Y-95727923D02*
X183410360Y-95823161D01*
D12*
X178196543Y-123599809D02*
X178029877Y-123361714D01*
X177910829Y-123599809D02*
X177910829Y-123099809D01*
X177910829Y-123099809D02*
X178101305Y-123099809D01*
X178101305Y-123099809D02*
X178148924Y-123123619D01*
X178148924Y-123123619D02*
X178172734Y-123147428D01*
X178172734Y-123147428D02*
X178196543Y-123195047D01*
X178196543Y-123195047D02*
X178196543Y-123266476D01*
X178196543Y-123266476D02*
X178172734Y-123314095D01*
X178172734Y-123314095D02*
X178148924Y-123337904D01*
X178148924Y-123337904D02*
X178101305Y-123361714D01*
X178101305Y-123361714D02*
X177910829Y-123361714D01*
X178672734Y-123599809D02*
X178387020Y-123599809D01*
X178529877Y-123599809D02*
X178529877Y-123099809D01*
X178529877Y-123099809D02*
X178482258Y-123171238D01*
X178482258Y-123171238D02*
X178434639Y-123218857D01*
X178434639Y-123218857D02*
X178387020Y-123242666D01*
X179148924Y-123599809D02*
X178863210Y-123599809D01*
X179006067Y-123599809D02*
X179006067Y-123099809D01*
X179006067Y-123099809D02*
X178958448Y-123171238D01*
X178958448Y-123171238D02*
X178910829Y-123218857D01*
X178910829Y-123218857D02*
X178863210Y-123242666D01*
D11*
X115232886Y-114161580D02*
X115185267Y-114209200D01*
X115185267Y-114209200D02*
X115042410Y-114256819D01*
X115042410Y-114256819D02*
X114947172Y-114256819D01*
X114947172Y-114256819D02*
X114804315Y-114209200D01*
X114804315Y-114209200D02*
X114709077Y-114113961D01*
X114709077Y-114113961D02*
X114661458Y-114018723D01*
X114661458Y-114018723D02*
X114613839Y-113828247D01*
X114613839Y-113828247D02*
X114613839Y-113685390D01*
X114613839Y-113685390D02*
X114661458Y-113494914D01*
X114661458Y-113494914D02*
X114709077Y-113399676D01*
X114709077Y-113399676D02*
X114804315Y-113304438D01*
X114804315Y-113304438D02*
X114947172Y-113256819D01*
X114947172Y-113256819D02*
X115042410Y-113256819D01*
X115042410Y-113256819D02*
X115185267Y-113304438D01*
X115185267Y-113304438D02*
X115232886Y-113352057D01*
X115613839Y-113352057D02*
X115661458Y-113304438D01*
X115661458Y-113304438D02*
X115756696Y-113256819D01*
X115756696Y-113256819D02*
X115994791Y-113256819D01*
X115994791Y-113256819D02*
X116090029Y-113304438D01*
X116090029Y-113304438D02*
X116137648Y-113352057D01*
X116137648Y-113352057D02*
X116185267Y-113447295D01*
X116185267Y-113447295D02*
X116185267Y-113542533D01*
X116185267Y-113542533D02*
X116137648Y-113685390D01*
X116137648Y-113685390D02*
X115566220Y-114256819D01*
X115566220Y-114256819D02*
X116185267Y-114256819D01*
X117042410Y-113256819D02*
X116851934Y-113256819D01*
X116851934Y-113256819D02*
X116756696Y-113304438D01*
X116756696Y-113304438D02*
X116709077Y-113352057D01*
X116709077Y-113352057D02*
X116613839Y-113494914D01*
X116613839Y-113494914D02*
X116566220Y-113685390D01*
X116566220Y-113685390D02*
X116566220Y-114066342D01*
X116566220Y-114066342D02*
X116613839Y-114161580D01*
X116613839Y-114161580D02*
X116661458Y-114209200D01*
X116661458Y-114209200D02*
X116756696Y-114256819D01*
X116756696Y-114256819D02*
X116947172Y-114256819D01*
X116947172Y-114256819D02*
X117042410Y-114209200D01*
X117042410Y-114209200D02*
X117090029Y-114161580D01*
X117090029Y-114161580D02*
X117137648Y-114066342D01*
X117137648Y-114066342D02*
X117137648Y-113828247D01*
X117137648Y-113828247D02*
X117090029Y-113733009D01*
X117090029Y-113733009D02*
X117042410Y-113685390D01*
X117042410Y-113685390D02*
X116947172Y-113637771D01*
X116947172Y-113637771D02*
X116756696Y-113637771D01*
X116756696Y-113637771D02*
X116661458Y-113685390D01*
X116661458Y-113685390D02*
X116613839Y-113733009D01*
X116613839Y-113733009D02*
X116566220Y-113828247D01*
D12*
X190741666Y-123624809D02*
X190575000Y-123386714D01*
X190455952Y-123624809D02*
X190455952Y-123124809D01*
X190455952Y-123124809D02*
X190646428Y-123124809D01*
X190646428Y-123124809D02*
X190694047Y-123148619D01*
X190694047Y-123148619D02*
X190717857Y-123172428D01*
X190717857Y-123172428D02*
X190741666Y-123220047D01*
X190741666Y-123220047D02*
X190741666Y-123291476D01*
X190741666Y-123291476D02*
X190717857Y-123339095D01*
X190717857Y-123339095D02*
X190694047Y-123362904D01*
X190694047Y-123362904D02*
X190646428Y-123386714D01*
X190646428Y-123386714D02*
X190455952Y-123386714D01*
X190908333Y-123124809D02*
X191241666Y-123124809D01*
X191241666Y-123124809D02*
X191027381Y-123624809D01*
X144478571Y-117577190D02*
X144454762Y-117601000D01*
X144454762Y-117601000D02*
X144383333Y-117624809D01*
X144383333Y-117624809D02*
X144335714Y-117624809D01*
X144335714Y-117624809D02*
X144264286Y-117601000D01*
X144264286Y-117601000D02*
X144216667Y-117553380D01*
X144216667Y-117553380D02*
X144192857Y-117505761D01*
X144192857Y-117505761D02*
X144169048Y-117410523D01*
X144169048Y-117410523D02*
X144169048Y-117339095D01*
X144169048Y-117339095D02*
X144192857Y-117243857D01*
X144192857Y-117243857D02*
X144216667Y-117196238D01*
X144216667Y-117196238D02*
X144264286Y-117148619D01*
X144264286Y-117148619D02*
X144335714Y-117124809D01*
X144335714Y-117124809D02*
X144383333Y-117124809D01*
X144383333Y-117124809D02*
X144454762Y-117148619D01*
X144454762Y-117148619D02*
X144478571Y-117172428D01*
X144954762Y-117624809D02*
X144669048Y-117624809D01*
X144811905Y-117624809D02*
X144811905Y-117124809D01*
X144811905Y-117124809D02*
X144764286Y-117196238D01*
X144764286Y-117196238D02*
X144716667Y-117243857D01*
X144716667Y-117243857D02*
X144669048Y-117267666D01*
X145407142Y-117124809D02*
X145169047Y-117124809D01*
X145169047Y-117124809D02*
X145145238Y-117362904D01*
X145145238Y-117362904D02*
X145169047Y-117339095D01*
X145169047Y-117339095D02*
X145216666Y-117315285D01*
X145216666Y-117315285D02*
X145335714Y-117315285D01*
X145335714Y-117315285D02*
X145383333Y-117339095D01*
X145383333Y-117339095D02*
X145407142Y-117362904D01*
X145407142Y-117362904D02*
X145430952Y-117410523D01*
X145430952Y-117410523D02*
X145430952Y-117529571D01*
X145430952Y-117529571D02*
X145407142Y-117577190D01*
X145407142Y-117577190D02*
X145383333Y-117601000D01*
X145383333Y-117601000D02*
X145335714Y-117624809D01*
X145335714Y-117624809D02*
X145216666Y-117624809D01*
X145216666Y-117624809D02*
X145169047Y-117601000D01*
X145169047Y-117601000D02*
X145145238Y-117577190D01*
D11*
X178845939Y-92309166D02*
X178369748Y-92642499D01*
X178845939Y-92880594D02*
X177845939Y-92880594D01*
X177845939Y-92880594D02*
X177845939Y-92499642D01*
X177845939Y-92499642D02*
X177893558Y-92404404D01*
X177893558Y-92404404D02*
X177941177Y-92356785D01*
X177941177Y-92356785D02*
X178036415Y-92309166D01*
X178036415Y-92309166D02*
X178179272Y-92309166D01*
X178179272Y-92309166D02*
X178274510Y-92356785D01*
X178274510Y-92356785D02*
X178322129Y-92404404D01*
X178322129Y-92404404D02*
X178369748Y-92499642D01*
X178369748Y-92499642D02*
X178369748Y-92880594D01*
X177845939Y-91404404D02*
X177845939Y-91880594D01*
X177845939Y-91880594D02*
X178322129Y-91928213D01*
X178322129Y-91928213D02*
X178274510Y-91880594D01*
X178274510Y-91880594D02*
X178226891Y-91785356D01*
X178226891Y-91785356D02*
X178226891Y-91547261D01*
X178226891Y-91547261D02*
X178274510Y-91452023D01*
X178274510Y-91452023D02*
X178322129Y-91404404D01*
X178322129Y-91404404D02*
X178417367Y-91356785D01*
X178417367Y-91356785D02*
X178655462Y-91356785D01*
X178655462Y-91356785D02*
X178750700Y-91404404D01*
X178750700Y-91404404D02*
X178798320Y-91452023D01*
X178798320Y-91452023D02*
X178845939Y-91547261D01*
X178845939Y-91547261D02*
X178845939Y-91785356D01*
X178845939Y-91785356D02*
X178798320Y-91880594D01*
X178798320Y-91880594D02*
X178750700Y-91928213D01*
X176032103Y-96314580D02*
X175984484Y-96362200D01*
X175984484Y-96362200D02*
X175841627Y-96409819D01*
X175841627Y-96409819D02*
X175746389Y-96409819D01*
X175746389Y-96409819D02*
X175603532Y-96362200D01*
X175603532Y-96362200D02*
X175508294Y-96266961D01*
X175508294Y-96266961D02*
X175460675Y-96171723D01*
X175460675Y-96171723D02*
X175413056Y-95981247D01*
X175413056Y-95981247D02*
X175413056Y-95838390D01*
X175413056Y-95838390D02*
X175460675Y-95647914D01*
X175460675Y-95647914D02*
X175508294Y-95552676D01*
X175508294Y-95552676D02*
X175603532Y-95457438D01*
X175603532Y-95457438D02*
X175746389Y-95409819D01*
X175746389Y-95409819D02*
X175841627Y-95409819D01*
X175841627Y-95409819D02*
X175984484Y-95457438D01*
X175984484Y-95457438D02*
X176032103Y-95505057D01*
X176508294Y-96409819D02*
X176698770Y-96409819D01*
X176698770Y-96409819D02*
X176794008Y-96362200D01*
X176794008Y-96362200D02*
X176841627Y-96314580D01*
X176841627Y-96314580D02*
X176936865Y-96171723D01*
X176936865Y-96171723D02*
X176984484Y-95981247D01*
X176984484Y-95981247D02*
X176984484Y-95600295D01*
X176984484Y-95600295D02*
X176936865Y-95505057D01*
X176936865Y-95505057D02*
X176889246Y-95457438D01*
X176889246Y-95457438D02*
X176794008Y-95409819D01*
X176794008Y-95409819D02*
X176603532Y-95409819D01*
X176603532Y-95409819D02*
X176508294Y-95457438D01*
X176508294Y-95457438D02*
X176460675Y-95505057D01*
X176460675Y-95505057D02*
X176413056Y-95600295D01*
X176413056Y-95600295D02*
X176413056Y-95838390D01*
X176413056Y-95838390D02*
X176460675Y-95933628D01*
X176460675Y-95933628D02*
X176508294Y-95981247D01*
X176508294Y-95981247D02*
X176603532Y-96028866D01*
X176603532Y-96028866D02*
X176794008Y-96028866D01*
X176794008Y-96028866D02*
X176889246Y-95981247D01*
X176889246Y-95981247D02*
X176936865Y-95933628D01*
X176936865Y-95933628D02*
X176984484Y-95838390D01*
D12*
X138974809Y-119507142D02*
X138474809Y-119507142D01*
X138474809Y-119507142D02*
X138474809Y-119388094D01*
X138474809Y-119388094D02*
X138498619Y-119316666D01*
X138498619Y-119316666D02*
X138546238Y-119269047D01*
X138546238Y-119269047D02*
X138593857Y-119245237D01*
X138593857Y-119245237D02*
X138689095Y-119221428D01*
X138689095Y-119221428D02*
X138760523Y-119221428D01*
X138760523Y-119221428D02*
X138855761Y-119245237D01*
X138855761Y-119245237D02*
X138903380Y-119269047D01*
X138903380Y-119269047D02*
X138951000Y-119316666D01*
X138951000Y-119316666D02*
X138974809Y-119388094D01*
X138974809Y-119388094D02*
X138974809Y-119507142D01*
X138974809Y-118745237D02*
X138974809Y-119030951D01*
X138974809Y-118888094D02*
X138474809Y-118888094D01*
X138474809Y-118888094D02*
X138546238Y-118935713D01*
X138546238Y-118935713D02*
X138593857Y-118983332D01*
X138593857Y-118983332D02*
X138617666Y-119030951D01*
X138974809Y-118269047D02*
X138974809Y-118554761D01*
X138974809Y-118411904D02*
X138474809Y-118411904D01*
X138474809Y-118411904D02*
X138546238Y-118459523D01*
X138546238Y-118459523D02*
X138593857Y-118507142D01*
X138593857Y-118507142D02*
X138617666Y-118554761D01*
D11*
X122178350Y-117842857D02*
X122225970Y-117890476D01*
X122225970Y-117890476D02*
X122273589Y-118033333D01*
X122273589Y-118033333D02*
X122273589Y-118128571D01*
X122273589Y-118128571D02*
X122225970Y-118271428D01*
X122225970Y-118271428D02*
X122130731Y-118366666D01*
X122130731Y-118366666D02*
X122035493Y-118414285D01*
X122035493Y-118414285D02*
X121845017Y-118461904D01*
X121845017Y-118461904D02*
X121702160Y-118461904D01*
X121702160Y-118461904D02*
X121511684Y-118414285D01*
X121511684Y-118414285D02*
X121416446Y-118366666D01*
X121416446Y-118366666D02*
X121321208Y-118271428D01*
X121321208Y-118271428D02*
X121273589Y-118128571D01*
X121273589Y-118128571D02*
X121273589Y-118033333D01*
X121273589Y-118033333D02*
X121321208Y-117890476D01*
X121321208Y-117890476D02*
X121368827Y-117842857D01*
X121368827Y-117461904D02*
X121321208Y-117414285D01*
X121321208Y-117414285D02*
X121273589Y-117319047D01*
X121273589Y-117319047D02*
X121273589Y-117080952D01*
X121273589Y-117080952D02*
X121321208Y-116985714D01*
X121321208Y-116985714D02*
X121368827Y-116938095D01*
X121368827Y-116938095D02*
X121464065Y-116890476D01*
X121464065Y-116890476D02*
X121559303Y-116890476D01*
X121559303Y-116890476D02*
X121702160Y-116938095D01*
X121702160Y-116938095D02*
X122273589Y-117509523D01*
X122273589Y-117509523D02*
X122273589Y-116890476D01*
X121273589Y-116271428D02*
X121273589Y-116176190D01*
X121273589Y-116176190D02*
X121321208Y-116080952D01*
X121321208Y-116080952D02*
X121368827Y-116033333D01*
X121368827Y-116033333D02*
X121464065Y-115985714D01*
X121464065Y-115985714D02*
X121654541Y-115938095D01*
X121654541Y-115938095D02*
X121892636Y-115938095D01*
X121892636Y-115938095D02*
X122083112Y-115985714D01*
X122083112Y-115985714D02*
X122178350Y-116033333D01*
X122178350Y-116033333D02*
X122225970Y-116080952D01*
X122225970Y-116080952D02*
X122273589Y-116176190D01*
X122273589Y-116176190D02*
X122273589Y-116271428D01*
X122273589Y-116271428D02*
X122225970Y-116366666D01*
X122225970Y-116366666D02*
X122178350Y-116414285D01*
X122178350Y-116414285D02*
X122083112Y-116461904D01*
X122083112Y-116461904D02*
X121892636Y-116509523D01*
X121892636Y-116509523D02*
X121654541Y-116509523D01*
X121654541Y-116509523D02*
X121464065Y-116461904D01*
X121464065Y-116461904D02*
X121368827Y-116414285D01*
X121368827Y-116414285D02*
X121321208Y-116366666D01*
X121321208Y-116366666D02*
X121273589Y-116271428D01*
D12*
X151949809Y-105346428D02*
X151711714Y-105513094D01*
X151949809Y-105632142D02*
X151449809Y-105632142D01*
X151449809Y-105632142D02*
X151449809Y-105441666D01*
X151449809Y-105441666D02*
X151473619Y-105394047D01*
X151473619Y-105394047D02*
X151497428Y-105370237D01*
X151497428Y-105370237D02*
X151545047Y-105346428D01*
X151545047Y-105346428D02*
X151616476Y-105346428D01*
X151616476Y-105346428D02*
X151664095Y-105370237D01*
X151664095Y-105370237D02*
X151687904Y-105394047D01*
X151687904Y-105394047D02*
X151711714Y-105441666D01*
X151711714Y-105441666D02*
X151711714Y-105632142D01*
X151949809Y-104870237D02*
X151949809Y-105155951D01*
X151949809Y-105013094D02*
X151449809Y-105013094D01*
X151449809Y-105013094D02*
X151521238Y-105060713D01*
X151521238Y-105060713D02*
X151568857Y-105108332D01*
X151568857Y-105108332D02*
X151592666Y-105155951D01*
X151449809Y-104703571D02*
X151449809Y-104370238D01*
X151449809Y-104370238D02*
X151949809Y-104584523D01*
X122378571Y-109099809D02*
X122211905Y-108861714D01*
X122092857Y-109099809D02*
X122092857Y-108599809D01*
X122092857Y-108599809D02*
X122283333Y-108599809D01*
X122283333Y-108599809D02*
X122330952Y-108623619D01*
X122330952Y-108623619D02*
X122354762Y-108647428D01*
X122354762Y-108647428D02*
X122378571Y-108695047D01*
X122378571Y-108695047D02*
X122378571Y-108766476D01*
X122378571Y-108766476D02*
X122354762Y-108814095D01*
X122354762Y-108814095D02*
X122330952Y-108837904D01*
X122330952Y-108837904D02*
X122283333Y-108861714D01*
X122283333Y-108861714D02*
X122092857Y-108861714D01*
X122569048Y-108647428D02*
X122592857Y-108623619D01*
X122592857Y-108623619D02*
X122640476Y-108599809D01*
X122640476Y-108599809D02*
X122759524Y-108599809D01*
X122759524Y-108599809D02*
X122807143Y-108623619D01*
X122807143Y-108623619D02*
X122830952Y-108647428D01*
X122830952Y-108647428D02*
X122854762Y-108695047D01*
X122854762Y-108695047D02*
X122854762Y-108742666D01*
X122854762Y-108742666D02*
X122830952Y-108814095D01*
X122830952Y-108814095D02*
X122545238Y-109099809D01*
X122545238Y-109099809D02*
X122854762Y-109099809D01*
X123021428Y-108599809D02*
X123330952Y-108599809D01*
X123330952Y-108599809D02*
X123164285Y-108790285D01*
X123164285Y-108790285D02*
X123235714Y-108790285D01*
X123235714Y-108790285D02*
X123283333Y-108814095D01*
X123283333Y-108814095D02*
X123307142Y-108837904D01*
X123307142Y-108837904D02*
X123330952Y-108885523D01*
X123330952Y-108885523D02*
X123330952Y-109004571D01*
X123330952Y-109004571D02*
X123307142Y-109052190D01*
X123307142Y-109052190D02*
X123283333Y-109076000D01*
X123283333Y-109076000D02*
X123235714Y-109099809D01*
X123235714Y-109099809D02*
X123092857Y-109099809D01*
X123092857Y-109099809D02*
X123045238Y-109076000D01*
X123045238Y-109076000D02*
X123021428Y-109052190D01*
D11*
X182971905Y-95464819D02*
X182971905Y-94464819D01*
X182971905Y-94464819D02*
X183210000Y-94464819D01*
X183210000Y-94464819D02*
X183352857Y-94512438D01*
X183352857Y-94512438D02*
X183448095Y-94607676D01*
X183448095Y-94607676D02*
X183495714Y-94702914D01*
X183495714Y-94702914D02*
X183543333Y-94893390D01*
X183543333Y-94893390D02*
X183543333Y-95036247D01*
X183543333Y-95036247D02*
X183495714Y-95226723D01*
X183495714Y-95226723D02*
X183448095Y-95321961D01*
X183448095Y-95321961D02*
X183352857Y-95417200D01*
X183352857Y-95417200D02*
X183210000Y-95464819D01*
X183210000Y-95464819D02*
X182971905Y-95464819D01*
X184400476Y-94464819D02*
X184210000Y-94464819D01*
X184210000Y-94464819D02*
X184114762Y-94512438D01*
X184114762Y-94512438D02*
X184067143Y-94560057D01*
X184067143Y-94560057D02*
X183971905Y-94702914D01*
X183971905Y-94702914D02*
X183924286Y-94893390D01*
X183924286Y-94893390D02*
X183924286Y-95274342D01*
X183924286Y-95274342D02*
X183971905Y-95369580D01*
X183971905Y-95369580D02*
X184019524Y-95417200D01*
X184019524Y-95417200D02*
X184114762Y-95464819D01*
X184114762Y-95464819D02*
X184305238Y-95464819D01*
X184305238Y-95464819D02*
X184400476Y-95417200D01*
X184400476Y-95417200D02*
X184448095Y-95369580D01*
X184448095Y-95369580D02*
X184495714Y-95274342D01*
X184495714Y-95274342D02*
X184495714Y-95036247D01*
X184495714Y-95036247D02*
X184448095Y-94941009D01*
X184448095Y-94941009D02*
X184400476Y-94893390D01*
X184400476Y-94893390D02*
X184305238Y-94845771D01*
X184305238Y-94845771D02*
X184114762Y-94845771D01*
X184114762Y-94845771D02*
X184019524Y-94893390D01*
X184019524Y-94893390D02*
X183971905Y-94941009D01*
X183971905Y-94941009D02*
X183924286Y-95036247D01*
D12*
X149411714Y-113363094D02*
X149649809Y-113363094D01*
X149149809Y-113529760D02*
X149411714Y-113363094D01*
X149411714Y-113363094D02*
X149149809Y-113196427D01*
X149649809Y-112767856D02*
X149649809Y-113053570D01*
X149649809Y-112910713D02*
X149149809Y-112910713D01*
X149149809Y-112910713D02*
X149221238Y-112958332D01*
X149221238Y-112958332D02*
X149268857Y-113005951D01*
X149268857Y-113005951D02*
X149292666Y-113053570D01*
X153924809Y-110196428D02*
X153686714Y-110363094D01*
X153924809Y-110482142D02*
X153424809Y-110482142D01*
X153424809Y-110482142D02*
X153424809Y-110291666D01*
X153424809Y-110291666D02*
X153448619Y-110244047D01*
X153448619Y-110244047D02*
X153472428Y-110220237D01*
X153472428Y-110220237D02*
X153520047Y-110196428D01*
X153520047Y-110196428D02*
X153591476Y-110196428D01*
X153591476Y-110196428D02*
X153639095Y-110220237D01*
X153639095Y-110220237D02*
X153662904Y-110244047D01*
X153662904Y-110244047D02*
X153686714Y-110291666D01*
X153686714Y-110291666D02*
X153686714Y-110482142D01*
X153924809Y-109720237D02*
X153924809Y-110005951D01*
X153924809Y-109863094D02*
X153424809Y-109863094D01*
X153424809Y-109863094D02*
X153496238Y-109910713D01*
X153496238Y-109910713D02*
X153543857Y-109958332D01*
X153543857Y-109958332D02*
X153567666Y-110005951D01*
X153424809Y-109291666D02*
X153424809Y-109386904D01*
X153424809Y-109386904D02*
X153448619Y-109434523D01*
X153448619Y-109434523D02*
X153472428Y-109458333D01*
X153472428Y-109458333D02*
X153543857Y-109505952D01*
X153543857Y-109505952D02*
X153639095Y-109529761D01*
X153639095Y-109529761D02*
X153829571Y-109529761D01*
X153829571Y-109529761D02*
X153877190Y-109505952D01*
X153877190Y-109505952D02*
X153901000Y-109482142D01*
X153901000Y-109482142D02*
X153924809Y-109434523D01*
X153924809Y-109434523D02*
X153924809Y-109339285D01*
X153924809Y-109339285D02*
X153901000Y-109291666D01*
X153901000Y-109291666D02*
X153877190Y-109267857D01*
X153877190Y-109267857D02*
X153829571Y-109244047D01*
X153829571Y-109244047D02*
X153710523Y-109244047D01*
X153710523Y-109244047D02*
X153662904Y-109267857D01*
X153662904Y-109267857D02*
X153639095Y-109291666D01*
X153639095Y-109291666D02*
X153615285Y-109339285D01*
X153615285Y-109339285D02*
X153615285Y-109434523D01*
X153615285Y-109434523D02*
X153639095Y-109482142D01*
X153639095Y-109482142D02*
X153662904Y-109505952D01*
X153662904Y-109505952D02*
X153710523Y-109529761D01*
X139661905Y-107849809D02*
X139661905Y-107349809D01*
X140185714Y-107802190D02*
X140161905Y-107826000D01*
X140161905Y-107826000D02*
X140090476Y-107849809D01*
X140090476Y-107849809D02*
X140042857Y-107849809D01*
X140042857Y-107849809D02*
X139971429Y-107826000D01*
X139971429Y-107826000D02*
X139923810Y-107778380D01*
X139923810Y-107778380D02*
X139900000Y-107730761D01*
X139900000Y-107730761D02*
X139876191Y-107635523D01*
X139876191Y-107635523D02*
X139876191Y-107564095D01*
X139876191Y-107564095D02*
X139900000Y-107468857D01*
X139900000Y-107468857D02*
X139923810Y-107421238D01*
X139923810Y-107421238D02*
X139971429Y-107373619D01*
X139971429Y-107373619D02*
X140042857Y-107349809D01*
X140042857Y-107349809D02*
X140090476Y-107349809D01*
X140090476Y-107349809D02*
X140161905Y-107373619D01*
X140161905Y-107373619D02*
X140185714Y-107397428D01*
X140661905Y-107849809D02*
X140376191Y-107849809D01*
X140519048Y-107849809D02*
X140519048Y-107349809D01*
X140519048Y-107349809D02*
X140471429Y-107421238D01*
X140471429Y-107421238D02*
X140423810Y-107468857D01*
X140423810Y-107468857D02*
X140376191Y-107492666D01*
D11*
X115232886Y-117311580D02*
X115185267Y-117359200D01*
X115185267Y-117359200D02*
X115042410Y-117406819D01*
X115042410Y-117406819D02*
X114947172Y-117406819D01*
X114947172Y-117406819D02*
X114804315Y-117359200D01*
X114804315Y-117359200D02*
X114709077Y-117263961D01*
X114709077Y-117263961D02*
X114661458Y-117168723D01*
X114661458Y-117168723D02*
X114613839Y-116978247D01*
X114613839Y-116978247D02*
X114613839Y-116835390D01*
X114613839Y-116835390D02*
X114661458Y-116644914D01*
X114661458Y-116644914D02*
X114709077Y-116549676D01*
X114709077Y-116549676D02*
X114804315Y-116454438D01*
X114804315Y-116454438D02*
X114947172Y-116406819D01*
X114947172Y-116406819D02*
X115042410Y-116406819D01*
X115042410Y-116406819D02*
X115185267Y-116454438D01*
X115185267Y-116454438D02*
X115232886Y-116502057D01*
X115613839Y-116502057D02*
X115661458Y-116454438D01*
X115661458Y-116454438D02*
X115756696Y-116406819D01*
X115756696Y-116406819D02*
X115994791Y-116406819D01*
X115994791Y-116406819D02*
X116090029Y-116454438D01*
X116090029Y-116454438D02*
X116137648Y-116502057D01*
X116137648Y-116502057D02*
X116185267Y-116597295D01*
X116185267Y-116597295D02*
X116185267Y-116692533D01*
X116185267Y-116692533D02*
X116137648Y-116835390D01*
X116137648Y-116835390D02*
X115566220Y-117406819D01*
X115566220Y-117406819D02*
X116185267Y-117406819D01*
X117090029Y-116406819D02*
X116613839Y-116406819D01*
X116613839Y-116406819D02*
X116566220Y-116883009D01*
X116566220Y-116883009D02*
X116613839Y-116835390D01*
X116613839Y-116835390D02*
X116709077Y-116787771D01*
X116709077Y-116787771D02*
X116947172Y-116787771D01*
X116947172Y-116787771D02*
X117042410Y-116835390D01*
X117042410Y-116835390D02*
X117090029Y-116883009D01*
X117090029Y-116883009D02*
X117137648Y-116978247D01*
X117137648Y-116978247D02*
X117137648Y-117216342D01*
X117137648Y-117216342D02*
X117090029Y-117311580D01*
X117090029Y-117311580D02*
X117042410Y-117359200D01*
X117042410Y-117359200D02*
X116947172Y-117406819D01*
X116947172Y-117406819D02*
X116709077Y-117406819D01*
X116709077Y-117406819D02*
X116613839Y-117359200D01*
X116613839Y-117359200D02*
X116566220Y-117311580D01*
D12*
X180216666Y-92474809D02*
X180050000Y-92236714D01*
X179930952Y-92474809D02*
X179930952Y-91974809D01*
X179930952Y-91974809D02*
X180121428Y-91974809D01*
X180121428Y-91974809D02*
X180169047Y-91998619D01*
X180169047Y-91998619D02*
X180192857Y-92022428D01*
X180192857Y-92022428D02*
X180216666Y-92070047D01*
X180216666Y-92070047D02*
X180216666Y-92141476D01*
X180216666Y-92141476D02*
X180192857Y-92189095D01*
X180192857Y-92189095D02*
X180169047Y-92212904D01*
X180169047Y-92212904D02*
X180121428Y-92236714D01*
X180121428Y-92236714D02*
X179930952Y-92236714D01*
X180407143Y-92022428D02*
X180430952Y-91998619D01*
X180430952Y-91998619D02*
X180478571Y-91974809D01*
X180478571Y-91974809D02*
X180597619Y-91974809D01*
X180597619Y-91974809D02*
X180645238Y-91998619D01*
X180645238Y-91998619D02*
X180669047Y-92022428D01*
X180669047Y-92022428D02*
X180692857Y-92070047D01*
X180692857Y-92070047D02*
X180692857Y-92117666D01*
X180692857Y-92117666D02*
X180669047Y-92189095D01*
X180669047Y-92189095D02*
X180383333Y-92474809D01*
X180383333Y-92474809D02*
X180692857Y-92474809D01*
D11*
X115232886Y-112656819D02*
X114899553Y-112180628D01*
X114661458Y-112656819D02*
X114661458Y-111656819D01*
X114661458Y-111656819D02*
X115042410Y-111656819D01*
X115042410Y-111656819D02*
X115137648Y-111704438D01*
X115137648Y-111704438D02*
X115185267Y-111752057D01*
X115185267Y-111752057D02*
X115232886Y-111847295D01*
X115232886Y-111847295D02*
X115232886Y-111990152D01*
X115232886Y-111990152D02*
X115185267Y-112085390D01*
X115185267Y-112085390D02*
X115137648Y-112133009D01*
X115137648Y-112133009D02*
X115042410Y-112180628D01*
X115042410Y-112180628D02*
X114661458Y-112180628D01*
X115613839Y-111752057D02*
X115661458Y-111704438D01*
X115661458Y-111704438D02*
X115756696Y-111656819D01*
X115756696Y-111656819D02*
X115994791Y-111656819D01*
X115994791Y-111656819D02*
X116090029Y-111704438D01*
X116090029Y-111704438D02*
X116137648Y-111752057D01*
X116137648Y-111752057D02*
X116185267Y-111847295D01*
X116185267Y-111847295D02*
X116185267Y-111942533D01*
X116185267Y-111942533D02*
X116137648Y-112085390D01*
X116137648Y-112085390D02*
X115566220Y-112656819D01*
X115566220Y-112656819D02*
X116185267Y-112656819D01*
X116756696Y-112085390D02*
X116661458Y-112037771D01*
X116661458Y-112037771D02*
X116613839Y-111990152D01*
X116613839Y-111990152D02*
X116566220Y-111894914D01*
X116566220Y-111894914D02*
X116566220Y-111847295D01*
X116566220Y-111847295D02*
X116613839Y-111752057D01*
X116613839Y-111752057D02*
X116661458Y-111704438D01*
X116661458Y-111704438D02*
X116756696Y-111656819D01*
X116756696Y-111656819D02*
X116947172Y-111656819D01*
X116947172Y-111656819D02*
X117042410Y-111704438D01*
X117042410Y-111704438D02*
X117090029Y-111752057D01*
X117090029Y-111752057D02*
X117137648Y-111847295D01*
X117137648Y-111847295D02*
X117137648Y-111894914D01*
X117137648Y-111894914D02*
X117090029Y-111990152D01*
X117090029Y-111990152D02*
X117042410Y-112037771D01*
X117042410Y-112037771D02*
X116947172Y-112085390D01*
X116947172Y-112085390D02*
X116756696Y-112085390D01*
X116756696Y-112085390D02*
X116661458Y-112133009D01*
X116661458Y-112133009D02*
X116613839Y-112180628D01*
X116613839Y-112180628D02*
X116566220Y-112275866D01*
X116566220Y-112275866D02*
X116566220Y-112466342D01*
X116566220Y-112466342D02*
X116613839Y-112561580D01*
X116613839Y-112561580D02*
X116661458Y-112609200D01*
X116661458Y-112609200D02*
X116756696Y-112656819D01*
X116756696Y-112656819D02*
X116947172Y-112656819D01*
X116947172Y-112656819D02*
X117042410Y-112609200D01*
X117042410Y-112609200D02*
X117090029Y-112561580D01*
X117090029Y-112561580D02*
X117137648Y-112466342D01*
X117137648Y-112466342D02*
X117137648Y-112275866D01*
X117137648Y-112275866D02*
X117090029Y-112180628D01*
X117090029Y-112180628D02*
X117042410Y-112133009D01*
X117042410Y-112133009D02*
X116947172Y-112085390D01*
X172813333Y-88784819D02*
X172480000Y-88308628D01*
X172241905Y-88784819D02*
X172241905Y-87784819D01*
X172241905Y-87784819D02*
X172622857Y-87784819D01*
X172622857Y-87784819D02*
X172718095Y-87832438D01*
X172718095Y-87832438D02*
X172765714Y-87880057D01*
X172765714Y-87880057D02*
X172813333Y-87975295D01*
X172813333Y-87975295D02*
X172813333Y-88118152D01*
X172813333Y-88118152D02*
X172765714Y-88213390D01*
X172765714Y-88213390D02*
X172718095Y-88261009D01*
X172718095Y-88261009D02*
X172622857Y-88308628D01*
X172622857Y-88308628D02*
X172241905Y-88308628D01*
X173670476Y-87784819D02*
X173480000Y-87784819D01*
X173480000Y-87784819D02*
X173384762Y-87832438D01*
X173384762Y-87832438D02*
X173337143Y-87880057D01*
X173337143Y-87880057D02*
X173241905Y-88022914D01*
X173241905Y-88022914D02*
X173194286Y-88213390D01*
X173194286Y-88213390D02*
X173194286Y-88594342D01*
X173194286Y-88594342D02*
X173241905Y-88689580D01*
X173241905Y-88689580D02*
X173289524Y-88737200D01*
X173289524Y-88737200D02*
X173384762Y-88784819D01*
X173384762Y-88784819D02*
X173575238Y-88784819D01*
X173575238Y-88784819D02*
X173670476Y-88737200D01*
X173670476Y-88737200D02*
X173718095Y-88689580D01*
X173718095Y-88689580D02*
X173765714Y-88594342D01*
X173765714Y-88594342D02*
X173765714Y-88356247D01*
X173765714Y-88356247D02*
X173718095Y-88261009D01*
X173718095Y-88261009D02*
X173670476Y-88213390D01*
X173670476Y-88213390D02*
X173575238Y-88165771D01*
X173575238Y-88165771D02*
X173384762Y-88165771D01*
X173384762Y-88165771D02*
X173289524Y-88213390D01*
X173289524Y-88213390D02*
X173241905Y-88261009D01*
X173241905Y-88261009D02*
X173194286Y-88356247D01*
D12*
X183378571Y-123702190D02*
X183354762Y-123726000D01*
X183354762Y-123726000D02*
X183283333Y-123749809D01*
X183283333Y-123749809D02*
X183235714Y-123749809D01*
X183235714Y-123749809D02*
X183164286Y-123726000D01*
X183164286Y-123726000D02*
X183116667Y-123678380D01*
X183116667Y-123678380D02*
X183092857Y-123630761D01*
X183092857Y-123630761D02*
X183069048Y-123535523D01*
X183069048Y-123535523D02*
X183069048Y-123464095D01*
X183069048Y-123464095D02*
X183092857Y-123368857D01*
X183092857Y-123368857D02*
X183116667Y-123321238D01*
X183116667Y-123321238D02*
X183164286Y-123273619D01*
X183164286Y-123273619D02*
X183235714Y-123249809D01*
X183235714Y-123249809D02*
X183283333Y-123249809D01*
X183283333Y-123249809D02*
X183354762Y-123273619D01*
X183354762Y-123273619D02*
X183378571Y-123297428D01*
X183854762Y-123749809D02*
X183569048Y-123749809D01*
X183711905Y-123749809D02*
X183711905Y-123249809D01*
X183711905Y-123249809D02*
X183664286Y-123321238D01*
X183664286Y-123321238D02*
X183616667Y-123368857D01*
X183616667Y-123368857D02*
X183569048Y-123392666D01*
X184330952Y-123749809D02*
X184045238Y-123749809D01*
X184188095Y-123749809D02*
X184188095Y-123249809D01*
X184188095Y-123249809D02*
X184140476Y-123321238D01*
X184140476Y-123321238D02*
X184092857Y-123368857D01*
X184092857Y-123368857D02*
X184045238Y-123392666D01*
D11*
X185414819Y-85303333D02*
X186129104Y-85303333D01*
X186129104Y-85303333D02*
X186271961Y-85350952D01*
X186271961Y-85350952D02*
X186367200Y-85446190D01*
X186367200Y-85446190D02*
X186414819Y-85589047D01*
X186414819Y-85589047D02*
X186414819Y-85684285D01*
X186414819Y-84303333D02*
X186414819Y-84874761D01*
X186414819Y-84589047D02*
X185414819Y-84589047D01*
X185414819Y-84589047D02*
X185557676Y-84684285D01*
X185557676Y-84684285D02*
X185652914Y-84779523D01*
X185652914Y-84779523D02*
X185700533Y-84874761D01*
D13*
X131646824Y-113785805D02*
X131503967Y-113738185D01*
X131503967Y-113738185D02*
X131265872Y-113738185D01*
X131265872Y-113738185D02*
X131170634Y-113785805D01*
X131170634Y-113785805D02*
X131123015Y-113833424D01*
X131123015Y-113833424D02*
X131075396Y-113928662D01*
X131075396Y-113928662D02*
X131075396Y-114023900D01*
X131075396Y-114023900D02*
X131123015Y-114119138D01*
X131123015Y-114119138D02*
X131170634Y-114166757D01*
X131170634Y-114166757D02*
X131265872Y-114214376D01*
X131265872Y-114214376D02*
X131456348Y-114261995D01*
X131456348Y-114261995D02*
X131551586Y-114309614D01*
X131551586Y-114309614D02*
X131599205Y-114357233D01*
X131599205Y-114357233D02*
X131646824Y-114452471D01*
X131646824Y-114452471D02*
X131646824Y-114547709D01*
X131646824Y-114547709D02*
X131599205Y-114642947D01*
X131599205Y-114642947D02*
X131551586Y-114690566D01*
X131551586Y-114690566D02*
X131456348Y-114738185D01*
X131456348Y-114738185D02*
X131218253Y-114738185D01*
X131218253Y-114738185D02*
X131075396Y-114690566D01*
X130361110Y-114738185D02*
X130361110Y-114023900D01*
X130361110Y-114023900D02*
X130408729Y-113881043D01*
X130408729Y-113881043D02*
X130503967Y-113785805D01*
X130503967Y-113785805D02*
X130646824Y-113738185D01*
X130646824Y-113738185D02*
X130742062Y-113738185D01*
X129361110Y-113738185D02*
X129932538Y-113738185D01*
X129646824Y-113738185D02*
X129646824Y-114738185D01*
X129646824Y-114738185D02*
X129742062Y-114595328D01*
X129742062Y-114595328D02*
X129837300Y-114500090D01*
X129837300Y-114500090D02*
X129932538Y-114452471D01*
D11*
X177704819Y-88606666D02*
X177228628Y-88939999D01*
X177704819Y-89178094D02*
X176704819Y-89178094D01*
X176704819Y-89178094D02*
X176704819Y-88797142D01*
X176704819Y-88797142D02*
X176752438Y-88701904D01*
X176752438Y-88701904D02*
X176800057Y-88654285D01*
X176800057Y-88654285D02*
X176895295Y-88606666D01*
X176895295Y-88606666D02*
X177038152Y-88606666D01*
X177038152Y-88606666D02*
X177133390Y-88654285D01*
X177133390Y-88654285D02*
X177181009Y-88701904D01*
X177181009Y-88701904D02*
X177228628Y-88797142D01*
X177228628Y-88797142D02*
X177228628Y-89178094D01*
X177704819Y-87654285D02*
X177704819Y-88225713D01*
X177704819Y-87939999D02*
X176704819Y-87939999D01*
X176704819Y-87939999D02*
X176847676Y-88035237D01*
X176847676Y-88035237D02*
X176942914Y-88130475D01*
X176942914Y-88130475D02*
X176990533Y-88225713D01*
D12*
X193827190Y-126033333D02*
X193851000Y-126057142D01*
X193851000Y-126057142D02*
X193874809Y-126128571D01*
X193874809Y-126128571D02*
X193874809Y-126176190D01*
X193874809Y-126176190D02*
X193851000Y-126247618D01*
X193851000Y-126247618D02*
X193803380Y-126295237D01*
X193803380Y-126295237D02*
X193755761Y-126319047D01*
X193755761Y-126319047D02*
X193660523Y-126342856D01*
X193660523Y-126342856D02*
X193589095Y-126342856D01*
X193589095Y-126342856D02*
X193493857Y-126319047D01*
X193493857Y-126319047D02*
X193446238Y-126295237D01*
X193446238Y-126295237D02*
X193398619Y-126247618D01*
X193398619Y-126247618D02*
X193374809Y-126176190D01*
X193374809Y-126176190D02*
X193374809Y-126128571D01*
X193374809Y-126128571D02*
X193398619Y-126057142D01*
X193398619Y-126057142D02*
X193422428Y-126033333D01*
X193374809Y-125866666D02*
X193374809Y-125533333D01*
X193374809Y-125533333D02*
X193874809Y-125747618D01*
X132228571Y-122202190D02*
X132204762Y-122226000D01*
X132204762Y-122226000D02*
X132133333Y-122249809D01*
X132133333Y-122249809D02*
X132085714Y-122249809D01*
X132085714Y-122249809D02*
X132014286Y-122226000D01*
X132014286Y-122226000D02*
X131966667Y-122178380D01*
X131966667Y-122178380D02*
X131942857Y-122130761D01*
X131942857Y-122130761D02*
X131919048Y-122035523D01*
X131919048Y-122035523D02*
X131919048Y-121964095D01*
X131919048Y-121964095D02*
X131942857Y-121868857D01*
X131942857Y-121868857D02*
X131966667Y-121821238D01*
X131966667Y-121821238D02*
X132014286Y-121773619D01*
X132014286Y-121773619D02*
X132085714Y-121749809D01*
X132085714Y-121749809D02*
X132133333Y-121749809D01*
X132133333Y-121749809D02*
X132204762Y-121773619D01*
X132204762Y-121773619D02*
X132228571Y-121797428D01*
X132704762Y-122249809D02*
X132419048Y-122249809D01*
X132561905Y-122249809D02*
X132561905Y-121749809D01*
X132561905Y-121749809D02*
X132514286Y-121821238D01*
X132514286Y-121821238D02*
X132466667Y-121868857D01*
X132466667Y-121868857D02*
X132419048Y-121892666D01*
X132871428Y-121749809D02*
X133204761Y-121749809D01*
X133204761Y-121749809D02*
X132990476Y-122249809D01*
D11*
X177548589Y-93866666D02*
X177072398Y-94199999D01*
X177548589Y-94438094D02*
X176548589Y-94438094D01*
X176548589Y-94438094D02*
X176548589Y-94057142D01*
X176548589Y-94057142D02*
X176596208Y-93961904D01*
X176596208Y-93961904D02*
X176643827Y-93914285D01*
X176643827Y-93914285D02*
X176739065Y-93866666D01*
X176739065Y-93866666D02*
X176881922Y-93866666D01*
X176881922Y-93866666D02*
X176977160Y-93914285D01*
X176977160Y-93914285D02*
X177024779Y-93961904D01*
X177024779Y-93961904D02*
X177072398Y-94057142D01*
X177072398Y-94057142D02*
X177072398Y-94438094D01*
X176548589Y-93533332D02*
X176548589Y-92914285D01*
X176548589Y-92914285D02*
X176929541Y-93247618D01*
X176929541Y-93247618D02*
X176929541Y-93104761D01*
X176929541Y-93104761D02*
X176977160Y-93009523D01*
X176977160Y-93009523D02*
X177024779Y-92961904D01*
X177024779Y-92961904D02*
X177120017Y-92914285D01*
X177120017Y-92914285D02*
X177358112Y-92914285D01*
X177358112Y-92914285D02*
X177453350Y-92961904D01*
X177453350Y-92961904D02*
X177500970Y-93009523D01*
X177500970Y-93009523D02*
X177548589Y-93104761D01*
X177548589Y-93104761D02*
X177548589Y-93390475D01*
X177548589Y-93390475D02*
X177500970Y-93485713D01*
X177500970Y-93485713D02*
X177453350Y-93533332D01*
D12*
X174993139Y-123502190D02*
X174969330Y-123526000D01*
X174969330Y-123526000D02*
X174897901Y-123549809D01*
X174897901Y-123549809D02*
X174850282Y-123549809D01*
X174850282Y-123549809D02*
X174778854Y-123526000D01*
X174778854Y-123526000D02*
X174731235Y-123478380D01*
X174731235Y-123478380D02*
X174707425Y-123430761D01*
X174707425Y-123430761D02*
X174683616Y-123335523D01*
X174683616Y-123335523D02*
X174683616Y-123264095D01*
X174683616Y-123264095D02*
X174707425Y-123168857D01*
X174707425Y-123168857D02*
X174731235Y-123121238D01*
X174731235Y-123121238D02*
X174778854Y-123073619D01*
X174778854Y-123073619D02*
X174850282Y-123049809D01*
X174850282Y-123049809D02*
X174897901Y-123049809D01*
X174897901Y-123049809D02*
X174969330Y-123073619D01*
X174969330Y-123073619D02*
X174993139Y-123097428D01*
X175469330Y-123549809D02*
X175183616Y-123549809D01*
X175326473Y-123549809D02*
X175326473Y-123049809D01*
X175326473Y-123049809D02*
X175278854Y-123121238D01*
X175278854Y-123121238D02*
X175231235Y-123168857D01*
X175231235Y-123168857D02*
X175183616Y-123192666D01*
X175659806Y-123097428D02*
X175683615Y-123073619D01*
X175683615Y-123073619D02*
X175731234Y-123049809D01*
X175731234Y-123049809D02*
X175850282Y-123049809D01*
X175850282Y-123049809D02*
X175897901Y-123073619D01*
X175897901Y-123073619D02*
X175921710Y-123097428D01*
X175921710Y-123097428D02*
X175945520Y-123145047D01*
X175945520Y-123145047D02*
X175945520Y-123192666D01*
X175945520Y-123192666D02*
X175921710Y-123264095D01*
X175921710Y-123264095D02*
X175635996Y-123549809D01*
X175635996Y-123549809D02*
X175945520Y-123549809D01*
X134274809Y-103446428D02*
X134036714Y-103613094D01*
X134274809Y-103732142D02*
X133774809Y-103732142D01*
X133774809Y-103732142D02*
X133774809Y-103541666D01*
X133774809Y-103541666D02*
X133798619Y-103494047D01*
X133798619Y-103494047D02*
X133822428Y-103470237D01*
X133822428Y-103470237D02*
X133870047Y-103446428D01*
X133870047Y-103446428D02*
X133941476Y-103446428D01*
X133941476Y-103446428D02*
X133989095Y-103470237D01*
X133989095Y-103470237D02*
X134012904Y-103494047D01*
X134012904Y-103494047D02*
X134036714Y-103541666D01*
X134036714Y-103541666D02*
X134036714Y-103732142D01*
X133822428Y-103255951D02*
X133798619Y-103232142D01*
X133798619Y-103232142D02*
X133774809Y-103184523D01*
X133774809Y-103184523D02*
X133774809Y-103065475D01*
X133774809Y-103065475D02*
X133798619Y-103017856D01*
X133798619Y-103017856D02*
X133822428Y-102994047D01*
X133822428Y-102994047D02*
X133870047Y-102970237D01*
X133870047Y-102970237D02*
X133917666Y-102970237D01*
X133917666Y-102970237D02*
X133989095Y-102994047D01*
X133989095Y-102994047D02*
X134274809Y-103279761D01*
X134274809Y-103279761D02*
X134274809Y-102970237D01*
X134274809Y-102494047D02*
X134274809Y-102779761D01*
X134274809Y-102636904D02*
X133774809Y-102636904D01*
X133774809Y-102636904D02*
X133846238Y-102684523D01*
X133846238Y-102684523D02*
X133893857Y-102732142D01*
X133893857Y-102732142D02*
X133917666Y-102779761D01*
D11*
X115232886Y-115856819D02*
X114899553Y-115380628D01*
X114661458Y-115856819D02*
X114661458Y-114856819D01*
X114661458Y-114856819D02*
X115042410Y-114856819D01*
X115042410Y-114856819D02*
X115137648Y-114904438D01*
X115137648Y-114904438D02*
X115185267Y-114952057D01*
X115185267Y-114952057D02*
X115232886Y-115047295D01*
X115232886Y-115047295D02*
X115232886Y-115190152D01*
X115232886Y-115190152D02*
X115185267Y-115285390D01*
X115185267Y-115285390D02*
X115137648Y-115333009D01*
X115137648Y-115333009D02*
X115042410Y-115380628D01*
X115042410Y-115380628D02*
X114661458Y-115380628D01*
X115613839Y-114952057D02*
X115661458Y-114904438D01*
X115661458Y-114904438D02*
X115756696Y-114856819D01*
X115756696Y-114856819D02*
X115994791Y-114856819D01*
X115994791Y-114856819D02*
X116090029Y-114904438D01*
X116090029Y-114904438D02*
X116137648Y-114952057D01*
X116137648Y-114952057D02*
X116185267Y-115047295D01*
X116185267Y-115047295D02*
X116185267Y-115142533D01*
X116185267Y-115142533D02*
X116137648Y-115285390D01*
X116137648Y-115285390D02*
X115566220Y-115856819D01*
X115566220Y-115856819D02*
X116185267Y-115856819D01*
X117042410Y-114856819D02*
X116851934Y-114856819D01*
X116851934Y-114856819D02*
X116756696Y-114904438D01*
X116756696Y-114904438D02*
X116709077Y-114952057D01*
X116709077Y-114952057D02*
X116613839Y-115094914D01*
X116613839Y-115094914D02*
X116566220Y-115285390D01*
X116566220Y-115285390D02*
X116566220Y-115666342D01*
X116566220Y-115666342D02*
X116613839Y-115761580D01*
X116613839Y-115761580D02*
X116661458Y-115809200D01*
X116661458Y-115809200D02*
X116756696Y-115856819D01*
X116756696Y-115856819D02*
X116947172Y-115856819D01*
X116947172Y-115856819D02*
X117042410Y-115809200D01*
X117042410Y-115809200D02*
X117090029Y-115761580D01*
X117090029Y-115761580D02*
X117137648Y-115666342D01*
X117137648Y-115666342D02*
X117137648Y-115428247D01*
X117137648Y-115428247D02*
X117090029Y-115333009D01*
X117090029Y-115333009D02*
X117042410Y-115285390D01*
X117042410Y-115285390D02*
X116947172Y-115237771D01*
X116947172Y-115237771D02*
X116756696Y-115237771D01*
X116756696Y-115237771D02*
X116661458Y-115285390D01*
X116661458Y-115285390D02*
X116613839Y-115333009D01*
X116613839Y-115333009D02*
X116566220Y-115428247D01*
X168423333Y-85459580D02*
X168375714Y-85507200D01*
X168375714Y-85507200D02*
X168232857Y-85554819D01*
X168232857Y-85554819D02*
X168137619Y-85554819D01*
X168137619Y-85554819D02*
X167994762Y-85507200D01*
X167994762Y-85507200D02*
X167899524Y-85411961D01*
X167899524Y-85411961D02*
X167851905Y-85316723D01*
X167851905Y-85316723D02*
X167804286Y-85126247D01*
X167804286Y-85126247D02*
X167804286Y-84983390D01*
X167804286Y-84983390D02*
X167851905Y-84792914D01*
X167851905Y-84792914D02*
X167899524Y-84697676D01*
X167899524Y-84697676D02*
X167994762Y-84602438D01*
X167994762Y-84602438D02*
X168137619Y-84554819D01*
X168137619Y-84554819D02*
X168232857Y-84554819D01*
X168232857Y-84554819D02*
X168375714Y-84602438D01*
X168375714Y-84602438D02*
X168423333Y-84650057D01*
X169280476Y-84554819D02*
X169090000Y-84554819D01*
X169090000Y-84554819D02*
X168994762Y-84602438D01*
X168994762Y-84602438D02*
X168947143Y-84650057D01*
X168947143Y-84650057D02*
X168851905Y-84792914D01*
X168851905Y-84792914D02*
X168804286Y-84983390D01*
X168804286Y-84983390D02*
X168804286Y-85364342D01*
X168804286Y-85364342D02*
X168851905Y-85459580D01*
X168851905Y-85459580D02*
X168899524Y-85507200D01*
X168899524Y-85507200D02*
X168994762Y-85554819D01*
X168994762Y-85554819D02*
X169185238Y-85554819D01*
X169185238Y-85554819D02*
X169280476Y-85507200D01*
X169280476Y-85507200D02*
X169328095Y-85459580D01*
X169328095Y-85459580D02*
X169375714Y-85364342D01*
X169375714Y-85364342D02*
X169375714Y-85126247D01*
X169375714Y-85126247D02*
X169328095Y-85031009D01*
X169328095Y-85031009D02*
X169280476Y-84983390D01*
X169280476Y-84983390D02*
X169185238Y-84935771D01*
X169185238Y-84935771D02*
X168994762Y-84935771D01*
X168994762Y-84935771D02*
X168899524Y-84983390D01*
X168899524Y-84983390D02*
X168851905Y-85031009D01*
X168851905Y-85031009D02*
X168804286Y-85126247D01*
D12*
X155628571Y-85102190D02*
X155604762Y-85126000D01*
X155604762Y-85126000D02*
X155533333Y-85149809D01*
X155533333Y-85149809D02*
X155485714Y-85149809D01*
X155485714Y-85149809D02*
X155414286Y-85126000D01*
X155414286Y-85126000D02*
X155366667Y-85078380D01*
X155366667Y-85078380D02*
X155342857Y-85030761D01*
X155342857Y-85030761D02*
X155319048Y-84935523D01*
X155319048Y-84935523D02*
X155319048Y-84864095D01*
X155319048Y-84864095D02*
X155342857Y-84768857D01*
X155342857Y-84768857D02*
X155366667Y-84721238D01*
X155366667Y-84721238D02*
X155414286Y-84673619D01*
X155414286Y-84673619D02*
X155485714Y-84649809D01*
X155485714Y-84649809D02*
X155533333Y-84649809D01*
X155533333Y-84649809D02*
X155604762Y-84673619D01*
X155604762Y-84673619D02*
X155628571Y-84697428D01*
X155819048Y-84697428D02*
X155842857Y-84673619D01*
X155842857Y-84673619D02*
X155890476Y-84649809D01*
X155890476Y-84649809D02*
X156009524Y-84649809D01*
X156009524Y-84649809D02*
X156057143Y-84673619D01*
X156057143Y-84673619D02*
X156080952Y-84697428D01*
X156080952Y-84697428D02*
X156104762Y-84745047D01*
X156104762Y-84745047D02*
X156104762Y-84792666D01*
X156104762Y-84792666D02*
X156080952Y-84864095D01*
X156080952Y-84864095D02*
X155795238Y-85149809D01*
X155795238Y-85149809D02*
X156104762Y-85149809D01*
X156390476Y-84864095D02*
X156342857Y-84840285D01*
X156342857Y-84840285D02*
X156319047Y-84816476D01*
X156319047Y-84816476D02*
X156295238Y-84768857D01*
X156295238Y-84768857D02*
X156295238Y-84745047D01*
X156295238Y-84745047D02*
X156319047Y-84697428D01*
X156319047Y-84697428D02*
X156342857Y-84673619D01*
X156342857Y-84673619D02*
X156390476Y-84649809D01*
X156390476Y-84649809D02*
X156485714Y-84649809D01*
X156485714Y-84649809D02*
X156533333Y-84673619D01*
X156533333Y-84673619D02*
X156557142Y-84697428D01*
X156557142Y-84697428D02*
X156580952Y-84745047D01*
X156580952Y-84745047D02*
X156580952Y-84768857D01*
X156580952Y-84768857D02*
X156557142Y-84816476D01*
X156557142Y-84816476D02*
X156533333Y-84840285D01*
X156533333Y-84840285D02*
X156485714Y-84864095D01*
X156485714Y-84864095D02*
X156390476Y-84864095D01*
X156390476Y-84864095D02*
X156342857Y-84887904D01*
X156342857Y-84887904D02*
X156319047Y-84911714D01*
X156319047Y-84911714D02*
X156295238Y-84959333D01*
X156295238Y-84959333D02*
X156295238Y-85054571D01*
X156295238Y-85054571D02*
X156319047Y-85102190D01*
X156319047Y-85102190D02*
X156342857Y-85126000D01*
X156342857Y-85126000D02*
X156390476Y-85149809D01*
X156390476Y-85149809D02*
X156485714Y-85149809D01*
X156485714Y-85149809D02*
X156533333Y-85126000D01*
X156533333Y-85126000D02*
X156557142Y-85102190D01*
X156557142Y-85102190D02*
X156580952Y-85054571D01*
X156580952Y-85054571D02*
X156580952Y-84959333D01*
X156580952Y-84959333D02*
X156557142Y-84911714D01*
X156557142Y-84911714D02*
X156533333Y-84887904D01*
X156533333Y-84887904D02*
X156485714Y-84864095D01*
D11*
X168544603Y-87214580D02*
X168496984Y-87262200D01*
X168496984Y-87262200D02*
X168354127Y-87309819D01*
X168354127Y-87309819D02*
X168258889Y-87309819D01*
X168258889Y-87309819D02*
X168116032Y-87262200D01*
X168116032Y-87262200D02*
X168020794Y-87166961D01*
X168020794Y-87166961D02*
X167973175Y-87071723D01*
X167973175Y-87071723D02*
X167925556Y-86881247D01*
X167925556Y-86881247D02*
X167925556Y-86738390D01*
X167925556Y-86738390D02*
X167973175Y-86547914D01*
X167973175Y-86547914D02*
X168020794Y-86452676D01*
X168020794Y-86452676D02*
X168116032Y-86357438D01*
X168116032Y-86357438D02*
X168258889Y-86309819D01*
X168258889Y-86309819D02*
X168354127Y-86309819D01*
X168354127Y-86309819D02*
X168496984Y-86357438D01*
X168496984Y-86357438D02*
X168544603Y-86405057D01*
X169449365Y-86309819D02*
X168973175Y-86309819D01*
X168973175Y-86309819D02*
X168925556Y-86786009D01*
X168925556Y-86786009D02*
X168973175Y-86738390D01*
X168973175Y-86738390D02*
X169068413Y-86690771D01*
X169068413Y-86690771D02*
X169306508Y-86690771D01*
X169306508Y-86690771D02*
X169401746Y-86738390D01*
X169401746Y-86738390D02*
X169449365Y-86786009D01*
X169449365Y-86786009D02*
X169496984Y-86881247D01*
X169496984Y-86881247D02*
X169496984Y-87119342D01*
X169496984Y-87119342D02*
X169449365Y-87214580D01*
X169449365Y-87214580D02*
X169401746Y-87262200D01*
X169401746Y-87262200D02*
X169306508Y-87309819D01*
X169306508Y-87309819D02*
X169068413Y-87309819D01*
X169068413Y-87309819D02*
X168973175Y-87262200D01*
X168973175Y-87262200D02*
X168925556Y-87214580D01*
X185253589Y-96673333D02*
X185967874Y-96673333D01*
X185967874Y-96673333D02*
X186110731Y-96720952D01*
X186110731Y-96720952D02*
X186205970Y-96816190D01*
X186205970Y-96816190D02*
X186253589Y-96959047D01*
X186253589Y-96959047D02*
X186253589Y-97054285D01*
X185348827Y-96244761D02*
X185301208Y-96197142D01*
X185301208Y-96197142D02*
X185253589Y-96101904D01*
X185253589Y-96101904D02*
X185253589Y-95863809D01*
X185253589Y-95863809D02*
X185301208Y-95768571D01*
X185301208Y-95768571D02*
X185348827Y-95720952D01*
X185348827Y-95720952D02*
X185444065Y-95673333D01*
X185444065Y-95673333D02*
X185539303Y-95673333D01*
X185539303Y-95673333D02*
X185682160Y-95720952D01*
X185682160Y-95720952D02*
X186253589Y-96292380D01*
X186253589Y-96292380D02*
X186253589Y-95673333D01*
X182991905Y-94584819D02*
X182991905Y-93584819D01*
X182991905Y-93584819D02*
X183230000Y-93584819D01*
X183230000Y-93584819D02*
X183372857Y-93632438D01*
X183372857Y-93632438D02*
X183468095Y-93727676D01*
X183468095Y-93727676D02*
X183515714Y-93822914D01*
X183515714Y-93822914D02*
X183563333Y-94013390D01*
X183563333Y-94013390D02*
X183563333Y-94156247D01*
X183563333Y-94156247D02*
X183515714Y-94346723D01*
X183515714Y-94346723D02*
X183468095Y-94441961D01*
X183468095Y-94441961D02*
X183372857Y-94537200D01*
X183372857Y-94537200D02*
X183230000Y-94584819D01*
X183230000Y-94584819D02*
X182991905Y-94584819D01*
X183896667Y-93584819D02*
X184563333Y-93584819D01*
X184563333Y-93584819D02*
X184134762Y-94584819D01*
D12*
X117928571Y-107724809D02*
X117761905Y-107486714D01*
X117642857Y-107724809D02*
X117642857Y-107224809D01*
X117642857Y-107224809D02*
X117833333Y-107224809D01*
X117833333Y-107224809D02*
X117880952Y-107248619D01*
X117880952Y-107248619D02*
X117904762Y-107272428D01*
X117904762Y-107272428D02*
X117928571Y-107320047D01*
X117928571Y-107320047D02*
X117928571Y-107391476D01*
X117928571Y-107391476D02*
X117904762Y-107439095D01*
X117904762Y-107439095D02*
X117880952Y-107462904D01*
X117880952Y-107462904D02*
X117833333Y-107486714D01*
X117833333Y-107486714D02*
X117642857Y-107486714D01*
X118119048Y-107272428D02*
X118142857Y-107248619D01*
X118142857Y-107248619D02*
X118190476Y-107224809D01*
X118190476Y-107224809D02*
X118309524Y-107224809D01*
X118309524Y-107224809D02*
X118357143Y-107248619D01*
X118357143Y-107248619D02*
X118380952Y-107272428D01*
X118380952Y-107272428D02*
X118404762Y-107320047D01*
X118404762Y-107320047D02*
X118404762Y-107367666D01*
X118404762Y-107367666D02*
X118380952Y-107439095D01*
X118380952Y-107439095D02*
X118095238Y-107724809D01*
X118095238Y-107724809D02*
X118404762Y-107724809D01*
X118857142Y-107224809D02*
X118619047Y-107224809D01*
X118619047Y-107224809D02*
X118595238Y-107462904D01*
X118595238Y-107462904D02*
X118619047Y-107439095D01*
X118619047Y-107439095D02*
X118666666Y-107415285D01*
X118666666Y-107415285D02*
X118785714Y-107415285D01*
X118785714Y-107415285D02*
X118833333Y-107439095D01*
X118833333Y-107439095D02*
X118857142Y-107462904D01*
X118857142Y-107462904D02*
X118880952Y-107510523D01*
X118880952Y-107510523D02*
X118880952Y-107629571D01*
X118880952Y-107629571D02*
X118857142Y-107677190D01*
X118857142Y-107677190D02*
X118833333Y-107701000D01*
X118833333Y-107701000D02*
X118785714Y-107724809D01*
X118785714Y-107724809D02*
X118666666Y-107724809D01*
X118666666Y-107724809D02*
X118619047Y-107701000D01*
X118619047Y-107701000D02*
X118595238Y-107677190D01*
D11*
X167945180Y-102138095D02*
X167135657Y-102138095D01*
X167135657Y-102138095D02*
X167040419Y-102185714D01*
X167040419Y-102185714D02*
X166992800Y-102233333D01*
X166992800Y-102233333D02*
X166945180Y-102328571D01*
X166945180Y-102328571D02*
X166945180Y-102519047D01*
X166945180Y-102519047D02*
X166992800Y-102614285D01*
X166992800Y-102614285D02*
X167040419Y-102661904D01*
X167040419Y-102661904D02*
X167135657Y-102709523D01*
X167135657Y-102709523D02*
X167945180Y-102709523D01*
X167849942Y-103138095D02*
X167897561Y-103185714D01*
X167897561Y-103185714D02*
X167945180Y-103280952D01*
X167945180Y-103280952D02*
X167945180Y-103519047D01*
X167945180Y-103519047D02*
X167897561Y-103614285D01*
X167897561Y-103614285D02*
X167849942Y-103661904D01*
X167849942Y-103661904D02*
X167754704Y-103709523D01*
X167754704Y-103709523D02*
X167659466Y-103709523D01*
X167659466Y-103709523D02*
X167516609Y-103661904D01*
X167516609Y-103661904D02*
X166945180Y-103090476D01*
X166945180Y-103090476D02*
X166945180Y-103709523D01*
X183533333Y-98649819D02*
X183200000Y-98173628D01*
X182961905Y-98649819D02*
X182961905Y-97649819D01*
X182961905Y-97649819D02*
X183342857Y-97649819D01*
X183342857Y-97649819D02*
X183438095Y-97697438D01*
X183438095Y-97697438D02*
X183485714Y-97745057D01*
X183485714Y-97745057D02*
X183533333Y-97840295D01*
X183533333Y-97840295D02*
X183533333Y-97983152D01*
X183533333Y-97983152D02*
X183485714Y-98078390D01*
X183485714Y-98078390D02*
X183438095Y-98126009D01*
X183438095Y-98126009D02*
X183342857Y-98173628D01*
X183342857Y-98173628D02*
X182961905Y-98173628D01*
X184009524Y-98649819D02*
X184200000Y-98649819D01*
X184200000Y-98649819D02*
X184295238Y-98602200D01*
X184295238Y-98602200D02*
X184342857Y-98554580D01*
X184342857Y-98554580D02*
X184438095Y-98411723D01*
X184438095Y-98411723D02*
X184485714Y-98221247D01*
X184485714Y-98221247D02*
X184485714Y-97840295D01*
X184485714Y-97840295D02*
X184438095Y-97745057D01*
X184438095Y-97745057D02*
X184390476Y-97697438D01*
X184390476Y-97697438D02*
X184295238Y-97649819D01*
X184295238Y-97649819D02*
X184104762Y-97649819D01*
X184104762Y-97649819D02*
X184009524Y-97697438D01*
X184009524Y-97697438D02*
X183961905Y-97745057D01*
X183961905Y-97745057D02*
X183914286Y-97840295D01*
X183914286Y-97840295D02*
X183914286Y-98078390D01*
X183914286Y-98078390D02*
X183961905Y-98173628D01*
X183961905Y-98173628D02*
X184009524Y-98221247D01*
X184009524Y-98221247D02*
X184104762Y-98268866D01*
X184104762Y-98268866D02*
X184295238Y-98268866D01*
X184295238Y-98268866D02*
X184390476Y-98221247D01*
X184390476Y-98221247D02*
X184438095Y-98173628D01*
X184438095Y-98173628D02*
X184485714Y-98078390D01*
D12*
X178216666Y-96202190D02*
X178192857Y-96226000D01*
X178192857Y-96226000D02*
X178121428Y-96249809D01*
X178121428Y-96249809D02*
X178073809Y-96249809D01*
X178073809Y-96249809D02*
X178002381Y-96226000D01*
X178002381Y-96226000D02*
X177954762Y-96178380D01*
X177954762Y-96178380D02*
X177930952Y-96130761D01*
X177930952Y-96130761D02*
X177907143Y-96035523D01*
X177907143Y-96035523D02*
X177907143Y-95964095D01*
X177907143Y-95964095D02*
X177930952Y-95868857D01*
X177930952Y-95868857D02*
X177954762Y-95821238D01*
X177954762Y-95821238D02*
X178002381Y-95773619D01*
X178002381Y-95773619D02*
X178073809Y-95749809D01*
X178073809Y-95749809D02*
X178121428Y-95749809D01*
X178121428Y-95749809D02*
X178192857Y-95773619D01*
X178192857Y-95773619D02*
X178216666Y-95797428D01*
X178502381Y-95964095D02*
X178454762Y-95940285D01*
X178454762Y-95940285D02*
X178430952Y-95916476D01*
X178430952Y-95916476D02*
X178407143Y-95868857D01*
X178407143Y-95868857D02*
X178407143Y-95845047D01*
X178407143Y-95845047D02*
X178430952Y-95797428D01*
X178430952Y-95797428D02*
X178454762Y-95773619D01*
X178454762Y-95773619D02*
X178502381Y-95749809D01*
X178502381Y-95749809D02*
X178597619Y-95749809D01*
X178597619Y-95749809D02*
X178645238Y-95773619D01*
X178645238Y-95773619D02*
X178669047Y-95797428D01*
X178669047Y-95797428D02*
X178692857Y-95845047D01*
X178692857Y-95845047D02*
X178692857Y-95868857D01*
X178692857Y-95868857D02*
X178669047Y-95916476D01*
X178669047Y-95916476D02*
X178645238Y-95940285D01*
X178645238Y-95940285D02*
X178597619Y-95964095D01*
X178597619Y-95964095D02*
X178502381Y-95964095D01*
X178502381Y-95964095D02*
X178454762Y-95987904D01*
X178454762Y-95987904D02*
X178430952Y-96011714D01*
X178430952Y-96011714D02*
X178407143Y-96059333D01*
X178407143Y-96059333D02*
X178407143Y-96154571D01*
X178407143Y-96154571D02*
X178430952Y-96202190D01*
X178430952Y-96202190D02*
X178454762Y-96226000D01*
X178454762Y-96226000D02*
X178502381Y-96249809D01*
X178502381Y-96249809D02*
X178597619Y-96249809D01*
X178597619Y-96249809D02*
X178645238Y-96226000D01*
X178645238Y-96226000D02*
X178669047Y-96202190D01*
X178669047Y-96202190D02*
X178692857Y-96154571D01*
X178692857Y-96154571D02*
X178692857Y-96059333D01*
X178692857Y-96059333D02*
X178669047Y-96011714D01*
X178669047Y-96011714D02*
X178645238Y-95987904D01*
X178645238Y-95987904D02*
X178597619Y-95964095D01*
D14*
X125054790Y-119846428D02*
X125078600Y-119870237D01*
X125078600Y-119870237D02*
X125102409Y-119941666D01*
X125102409Y-119941666D02*
X125102409Y-119989285D01*
X125102409Y-119989285D02*
X125078600Y-120060713D01*
X125078600Y-120060713D02*
X125030980Y-120108332D01*
X125030980Y-120108332D02*
X124983361Y-120132142D01*
X124983361Y-120132142D02*
X124888123Y-120155951D01*
X124888123Y-120155951D02*
X124816695Y-120155951D01*
X124816695Y-120155951D02*
X124721457Y-120132142D01*
X124721457Y-120132142D02*
X124673838Y-120108332D01*
X124673838Y-120108332D02*
X124626219Y-120060713D01*
X124626219Y-120060713D02*
X124602409Y-119989285D01*
X124602409Y-119989285D02*
X124602409Y-119941666D01*
X124602409Y-119941666D02*
X124626219Y-119870237D01*
X124626219Y-119870237D02*
X124650028Y-119846428D01*
X125102409Y-119370237D02*
X125102409Y-119655951D01*
X125102409Y-119513094D02*
X124602409Y-119513094D01*
X124602409Y-119513094D02*
X124673838Y-119560713D01*
X124673838Y-119560713D02*
X124721457Y-119608332D01*
X124721457Y-119608332D02*
X124745266Y-119655951D01*
X125102409Y-119132142D02*
X125102409Y-119036904D01*
X125102409Y-119036904D02*
X125078600Y-118989285D01*
X125078600Y-118989285D02*
X125054790Y-118965476D01*
X125054790Y-118965476D02*
X124983361Y-118917857D01*
X124983361Y-118917857D02*
X124888123Y-118894047D01*
X124888123Y-118894047D02*
X124697647Y-118894047D01*
X124697647Y-118894047D02*
X124650028Y-118917857D01*
X124650028Y-118917857D02*
X124626219Y-118941666D01*
X124626219Y-118941666D02*
X124602409Y-118989285D01*
X124602409Y-118989285D02*
X124602409Y-119084523D01*
X124602409Y-119084523D02*
X124626219Y-119132142D01*
X124626219Y-119132142D02*
X124650028Y-119155952D01*
X124650028Y-119155952D02*
X124697647Y-119179761D01*
X124697647Y-119179761D02*
X124816695Y-119179761D01*
X124816695Y-119179761D02*
X124864314Y-119155952D01*
X124864314Y-119155952D02*
X124888123Y-119132142D01*
X124888123Y-119132142D02*
X124911933Y-119084523D01*
X124911933Y-119084523D02*
X124911933Y-118989285D01*
X124911933Y-118989285D02*
X124888123Y-118941666D01*
X124888123Y-118941666D02*
X124864314Y-118917857D01*
X124864314Y-118917857D02*
X124816695Y-118894047D01*
D12*
X177644047Y-132099809D02*
X177644047Y-132504571D01*
X177644047Y-132504571D02*
X177667857Y-132552190D01*
X177667857Y-132552190D02*
X177691666Y-132576000D01*
X177691666Y-132576000D02*
X177739285Y-132599809D01*
X177739285Y-132599809D02*
X177834523Y-132599809D01*
X177834523Y-132599809D02*
X177882142Y-132576000D01*
X177882142Y-132576000D02*
X177905952Y-132552190D01*
X177905952Y-132552190D02*
X177929761Y-132504571D01*
X177929761Y-132504571D02*
X177929761Y-132099809D01*
X178382143Y-132266476D02*
X178382143Y-132599809D01*
X178263095Y-132076000D02*
X178144048Y-132433142D01*
X178144048Y-132433142D02*
X178453571Y-132433142D01*
D11*
X115232886Y-109581819D02*
X114899553Y-109105628D01*
X114661458Y-109581819D02*
X114661458Y-108581819D01*
X114661458Y-108581819D02*
X115042410Y-108581819D01*
X115042410Y-108581819D02*
X115137648Y-108629438D01*
X115137648Y-108629438D02*
X115185267Y-108677057D01*
X115185267Y-108677057D02*
X115232886Y-108772295D01*
X115232886Y-108772295D02*
X115232886Y-108915152D01*
X115232886Y-108915152D02*
X115185267Y-109010390D01*
X115185267Y-109010390D02*
X115137648Y-109058009D01*
X115137648Y-109058009D02*
X115042410Y-109105628D01*
X115042410Y-109105628D02*
X114661458Y-109105628D01*
X115613839Y-108677057D02*
X115661458Y-108629438D01*
X115661458Y-108629438D02*
X115756696Y-108581819D01*
X115756696Y-108581819D02*
X115994791Y-108581819D01*
X115994791Y-108581819D02*
X116090029Y-108629438D01*
X116090029Y-108629438D02*
X116137648Y-108677057D01*
X116137648Y-108677057D02*
X116185267Y-108772295D01*
X116185267Y-108772295D02*
X116185267Y-108867533D01*
X116185267Y-108867533D02*
X116137648Y-109010390D01*
X116137648Y-109010390D02*
X115566220Y-109581819D01*
X115566220Y-109581819D02*
X116185267Y-109581819D01*
X116661458Y-109581819D02*
X116851934Y-109581819D01*
X116851934Y-109581819D02*
X116947172Y-109534200D01*
X116947172Y-109534200D02*
X116994791Y-109486580D01*
X116994791Y-109486580D02*
X117090029Y-109343723D01*
X117090029Y-109343723D02*
X117137648Y-109153247D01*
X117137648Y-109153247D02*
X117137648Y-108772295D01*
X117137648Y-108772295D02*
X117090029Y-108677057D01*
X117090029Y-108677057D02*
X117042410Y-108629438D01*
X117042410Y-108629438D02*
X116947172Y-108581819D01*
X116947172Y-108581819D02*
X116756696Y-108581819D01*
X116756696Y-108581819D02*
X116661458Y-108629438D01*
X116661458Y-108629438D02*
X116613839Y-108677057D01*
X116613839Y-108677057D02*
X116566220Y-108772295D01*
X116566220Y-108772295D02*
X116566220Y-109010390D01*
X116566220Y-109010390D02*
X116613839Y-109105628D01*
X116613839Y-109105628D02*
X116661458Y-109153247D01*
X116661458Y-109153247D02*
X116756696Y-109200866D01*
X116756696Y-109200866D02*
X116947172Y-109200866D01*
X116947172Y-109200866D02*
X117042410Y-109153247D01*
X117042410Y-109153247D02*
X117090029Y-109105628D01*
X117090029Y-109105628D02*
X117137648Y-109010390D01*
D12*
X176955952Y-79624809D02*
X176955952Y-79124809D01*
X176955952Y-79124809D02*
X177075000Y-79124809D01*
X177075000Y-79124809D02*
X177146428Y-79148619D01*
X177146428Y-79148619D02*
X177194047Y-79196238D01*
X177194047Y-79196238D02*
X177217857Y-79243857D01*
X177217857Y-79243857D02*
X177241666Y-79339095D01*
X177241666Y-79339095D02*
X177241666Y-79410523D01*
X177241666Y-79410523D02*
X177217857Y-79505761D01*
X177217857Y-79505761D02*
X177194047Y-79553380D01*
X177194047Y-79553380D02*
X177146428Y-79601000D01*
X177146428Y-79601000D02*
X177075000Y-79624809D01*
X177075000Y-79624809D02*
X176955952Y-79624809D01*
X177408333Y-79124809D02*
X177717857Y-79124809D01*
X177717857Y-79124809D02*
X177551190Y-79315285D01*
X177551190Y-79315285D02*
X177622619Y-79315285D01*
X177622619Y-79315285D02*
X177670238Y-79339095D01*
X177670238Y-79339095D02*
X177694047Y-79362904D01*
X177694047Y-79362904D02*
X177717857Y-79410523D01*
X177717857Y-79410523D02*
X177717857Y-79529571D01*
X177717857Y-79529571D02*
X177694047Y-79577190D01*
X177694047Y-79577190D02*
X177670238Y-79601000D01*
X177670238Y-79601000D02*
X177622619Y-79624809D01*
X177622619Y-79624809D02*
X177479762Y-79624809D01*
X177479762Y-79624809D02*
X177432143Y-79601000D01*
X177432143Y-79601000D02*
X177408333Y-79577190D01*
X129287904Y-123316665D02*
X129287904Y-123483332D01*
X129549809Y-123483332D02*
X129049809Y-123483332D01*
X129049809Y-123483332D02*
X129049809Y-123245237D01*
X129287904Y-122888094D02*
X129311714Y-122816666D01*
X129311714Y-122816666D02*
X129335523Y-122792856D01*
X129335523Y-122792856D02*
X129383142Y-122769047D01*
X129383142Y-122769047D02*
X129454571Y-122769047D01*
X129454571Y-122769047D02*
X129502190Y-122792856D01*
X129502190Y-122792856D02*
X129526000Y-122816666D01*
X129526000Y-122816666D02*
X129549809Y-122864285D01*
X129549809Y-122864285D02*
X129549809Y-123054761D01*
X129549809Y-123054761D02*
X129049809Y-123054761D01*
X129049809Y-123054761D02*
X129049809Y-122888094D01*
X129049809Y-122888094D02*
X129073619Y-122840475D01*
X129073619Y-122840475D02*
X129097428Y-122816666D01*
X129097428Y-122816666D02*
X129145047Y-122792856D01*
X129145047Y-122792856D02*
X129192666Y-122792856D01*
X129192666Y-122792856D02*
X129240285Y-122816666D01*
X129240285Y-122816666D02*
X129264095Y-122840475D01*
X129264095Y-122840475D02*
X129287904Y-122888094D01*
X129287904Y-122888094D02*
X129287904Y-123054761D01*
X129097428Y-122578570D02*
X129073619Y-122554761D01*
X129073619Y-122554761D02*
X129049809Y-122507142D01*
X129049809Y-122507142D02*
X129049809Y-122388094D01*
X129049809Y-122388094D02*
X129073619Y-122340475D01*
X129073619Y-122340475D02*
X129097428Y-122316666D01*
X129097428Y-122316666D02*
X129145047Y-122292856D01*
X129145047Y-122292856D02*
X129192666Y-122292856D01*
X129192666Y-122292856D02*
X129264095Y-122316666D01*
X129264095Y-122316666D02*
X129549809Y-122602380D01*
X129549809Y-122602380D02*
X129549809Y-122292856D01*
D11*
X177166000Y-92396666D02*
X177213620Y-92444285D01*
X177213620Y-92444285D02*
X177261239Y-92587142D01*
X177261239Y-92587142D02*
X177261239Y-92682380D01*
X177261239Y-92682380D02*
X177213620Y-92825237D01*
X177213620Y-92825237D02*
X177118381Y-92920475D01*
X177118381Y-92920475D02*
X177023143Y-92968094D01*
X177023143Y-92968094D02*
X176832667Y-93015713D01*
X176832667Y-93015713D02*
X176689810Y-93015713D01*
X176689810Y-93015713D02*
X176499334Y-92968094D01*
X176499334Y-92968094D02*
X176404096Y-92920475D01*
X176404096Y-92920475D02*
X176308858Y-92825237D01*
X176308858Y-92825237D02*
X176261239Y-92682380D01*
X176261239Y-92682380D02*
X176261239Y-92587142D01*
X176261239Y-92587142D02*
X176308858Y-92444285D01*
X176308858Y-92444285D02*
X176356477Y-92396666D01*
X176594572Y-91539523D02*
X177261239Y-91539523D01*
X176213620Y-91777618D02*
X176927905Y-92015713D01*
X176927905Y-92015713D02*
X176927905Y-91396666D01*
D12*
X141049809Y-87144047D02*
X140549809Y-87144047D01*
X140549809Y-87144047D02*
X140549809Y-87024999D01*
X140549809Y-87024999D02*
X140573619Y-86953571D01*
X140573619Y-86953571D02*
X140621238Y-86905952D01*
X140621238Y-86905952D02*
X140668857Y-86882142D01*
X140668857Y-86882142D02*
X140764095Y-86858333D01*
X140764095Y-86858333D02*
X140835523Y-86858333D01*
X140835523Y-86858333D02*
X140930761Y-86882142D01*
X140930761Y-86882142D02*
X140978380Y-86905952D01*
X140978380Y-86905952D02*
X141026000Y-86953571D01*
X141026000Y-86953571D02*
X141049809Y-87024999D01*
X141049809Y-87024999D02*
X141049809Y-87144047D01*
X140597428Y-86667856D02*
X140573619Y-86644047D01*
X140573619Y-86644047D02*
X140549809Y-86596428D01*
X140549809Y-86596428D02*
X140549809Y-86477380D01*
X140549809Y-86477380D02*
X140573619Y-86429761D01*
X140573619Y-86429761D02*
X140597428Y-86405952D01*
X140597428Y-86405952D02*
X140645047Y-86382142D01*
X140645047Y-86382142D02*
X140692666Y-86382142D01*
X140692666Y-86382142D02*
X140764095Y-86405952D01*
X140764095Y-86405952D02*
X141049809Y-86691666D01*
X141049809Y-86691666D02*
X141049809Y-86382142D01*
D13*
X131672826Y-109256803D02*
X131529969Y-109209183D01*
X131529969Y-109209183D02*
X131291874Y-109209183D01*
X131291874Y-109209183D02*
X131196636Y-109256803D01*
X131196636Y-109256803D02*
X131149017Y-109304422D01*
X131149017Y-109304422D02*
X131101398Y-109399660D01*
X131101398Y-109399660D02*
X131101398Y-109494898D01*
X131101398Y-109494898D02*
X131149017Y-109590136D01*
X131149017Y-109590136D02*
X131196636Y-109637755D01*
X131196636Y-109637755D02*
X131291874Y-109685374D01*
X131291874Y-109685374D02*
X131482350Y-109732993D01*
X131482350Y-109732993D02*
X131577588Y-109780612D01*
X131577588Y-109780612D02*
X131625207Y-109828231D01*
X131625207Y-109828231D02*
X131672826Y-109923469D01*
X131672826Y-109923469D02*
X131672826Y-110018707D01*
X131672826Y-110018707D02*
X131625207Y-110113945D01*
X131625207Y-110113945D02*
X131577588Y-110161564D01*
X131577588Y-110161564D02*
X131482350Y-110209183D01*
X131482350Y-110209183D02*
X131244255Y-110209183D01*
X131244255Y-110209183D02*
X131101398Y-110161564D01*
X130387112Y-110209183D02*
X130387112Y-109494898D01*
X130387112Y-109494898D02*
X130434731Y-109352041D01*
X130434731Y-109352041D02*
X130529969Y-109256803D01*
X130529969Y-109256803D02*
X130672826Y-109209183D01*
X130672826Y-109209183D02*
X130768064Y-109209183D01*
X130006159Y-110209183D02*
X129387112Y-110209183D01*
X129387112Y-110209183D02*
X129720445Y-109828231D01*
X129720445Y-109828231D02*
X129577588Y-109828231D01*
X129577588Y-109828231D02*
X129482350Y-109780612D01*
X129482350Y-109780612D02*
X129434731Y-109732993D01*
X129434731Y-109732993D02*
X129387112Y-109637755D01*
X129387112Y-109637755D02*
X129387112Y-109399660D01*
X129387112Y-109399660D02*
X129434731Y-109304422D01*
X129434731Y-109304422D02*
X129482350Y-109256803D01*
X129482350Y-109256803D02*
X129577588Y-109209183D01*
X129577588Y-109209183D02*
X129863302Y-109209183D01*
X129863302Y-109209183D02*
X129958540Y-109256803D01*
X129958540Y-109256803D02*
X130006159Y-109304422D01*
D12*
X141699809Y-124044047D02*
X141199809Y-124044047D01*
X141199809Y-124044047D02*
X141199809Y-123924999D01*
X141199809Y-123924999D02*
X141223619Y-123853571D01*
X141223619Y-123853571D02*
X141271238Y-123805952D01*
X141271238Y-123805952D02*
X141318857Y-123782142D01*
X141318857Y-123782142D02*
X141414095Y-123758333D01*
X141414095Y-123758333D02*
X141485523Y-123758333D01*
X141485523Y-123758333D02*
X141580761Y-123782142D01*
X141580761Y-123782142D02*
X141628380Y-123805952D01*
X141628380Y-123805952D02*
X141676000Y-123853571D01*
X141676000Y-123853571D02*
X141699809Y-123924999D01*
X141699809Y-123924999D02*
X141699809Y-124044047D01*
X141699809Y-123520237D02*
X141699809Y-123424999D01*
X141699809Y-123424999D02*
X141676000Y-123377380D01*
X141676000Y-123377380D02*
X141652190Y-123353571D01*
X141652190Y-123353571D02*
X141580761Y-123305952D01*
X141580761Y-123305952D02*
X141485523Y-123282142D01*
X141485523Y-123282142D02*
X141295047Y-123282142D01*
X141295047Y-123282142D02*
X141247428Y-123305952D01*
X141247428Y-123305952D02*
X141223619Y-123329761D01*
X141223619Y-123329761D02*
X141199809Y-123377380D01*
X141199809Y-123377380D02*
X141199809Y-123472618D01*
X141199809Y-123472618D02*
X141223619Y-123520237D01*
X141223619Y-123520237D02*
X141247428Y-123544047D01*
X141247428Y-123544047D02*
X141295047Y-123567856D01*
X141295047Y-123567856D02*
X141414095Y-123567856D01*
X141414095Y-123567856D02*
X141461714Y-123544047D01*
X141461714Y-123544047D02*
X141485523Y-123520237D01*
X141485523Y-123520237D02*
X141509333Y-123472618D01*
X141509333Y-123472618D02*
X141509333Y-123377380D01*
X141509333Y-123377380D02*
X141485523Y-123329761D01*
X141485523Y-123329761D02*
X141461714Y-123305952D01*
X141461714Y-123305952D02*
X141414095Y-123282142D01*
X126627190Y-119871428D02*
X126651000Y-119895237D01*
X126651000Y-119895237D02*
X126674809Y-119966666D01*
X126674809Y-119966666D02*
X126674809Y-120014285D01*
X126674809Y-120014285D02*
X126651000Y-120085713D01*
X126651000Y-120085713D02*
X126603380Y-120133332D01*
X126603380Y-120133332D02*
X126555761Y-120157142D01*
X126555761Y-120157142D02*
X126460523Y-120180951D01*
X126460523Y-120180951D02*
X126389095Y-120180951D01*
X126389095Y-120180951D02*
X126293857Y-120157142D01*
X126293857Y-120157142D02*
X126246238Y-120133332D01*
X126246238Y-120133332D02*
X126198619Y-120085713D01*
X126198619Y-120085713D02*
X126174809Y-120014285D01*
X126174809Y-120014285D02*
X126174809Y-119966666D01*
X126174809Y-119966666D02*
X126198619Y-119895237D01*
X126198619Y-119895237D02*
X126222428Y-119871428D01*
X126222428Y-119680951D02*
X126198619Y-119657142D01*
X126198619Y-119657142D02*
X126174809Y-119609523D01*
X126174809Y-119609523D02*
X126174809Y-119490475D01*
X126174809Y-119490475D02*
X126198619Y-119442856D01*
X126198619Y-119442856D02*
X126222428Y-119419047D01*
X126222428Y-119419047D02*
X126270047Y-119395237D01*
X126270047Y-119395237D02*
X126317666Y-119395237D01*
X126317666Y-119395237D02*
X126389095Y-119419047D01*
X126389095Y-119419047D02*
X126674809Y-119704761D01*
X126674809Y-119704761D02*
X126674809Y-119395237D01*
X126174809Y-119228571D02*
X126174809Y-118919047D01*
X126174809Y-118919047D02*
X126365285Y-119085714D01*
X126365285Y-119085714D02*
X126365285Y-119014285D01*
X126365285Y-119014285D02*
X126389095Y-118966666D01*
X126389095Y-118966666D02*
X126412904Y-118942857D01*
X126412904Y-118942857D02*
X126460523Y-118919047D01*
X126460523Y-118919047D02*
X126579571Y-118919047D01*
X126579571Y-118919047D02*
X126627190Y-118942857D01*
X126627190Y-118942857D02*
X126651000Y-118966666D01*
X126651000Y-118966666D02*
X126674809Y-119014285D01*
X126674809Y-119014285D02*
X126674809Y-119157142D01*
X126674809Y-119157142D02*
X126651000Y-119204761D01*
X126651000Y-119204761D02*
X126627190Y-119228571D01*
D11*
X183029405Y-97584819D02*
X183029405Y-96584819D01*
X183029405Y-96584819D02*
X183267500Y-96584819D01*
X183267500Y-96584819D02*
X183410357Y-96632438D01*
X183410357Y-96632438D02*
X183505595Y-96727676D01*
X183505595Y-96727676D02*
X183553214Y-96822914D01*
X183553214Y-96822914D02*
X183600833Y-97013390D01*
X183600833Y-97013390D02*
X183600833Y-97156247D01*
X183600833Y-97156247D02*
X183553214Y-97346723D01*
X183553214Y-97346723D02*
X183505595Y-97441961D01*
X183505595Y-97441961D02*
X183410357Y-97537200D01*
X183410357Y-97537200D02*
X183267500Y-97584819D01*
X183267500Y-97584819D02*
X183029405Y-97584819D01*
X184505595Y-96584819D02*
X184029405Y-96584819D01*
X184029405Y-96584819D02*
X183981786Y-97061009D01*
X183981786Y-97061009D02*
X184029405Y-97013390D01*
X184029405Y-97013390D02*
X184124643Y-96965771D01*
X184124643Y-96965771D02*
X184362738Y-96965771D01*
X184362738Y-96965771D02*
X184457976Y-97013390D01*
X184457976Y-97013390D02*
X184505595Y-97061009D01*
X184505595Y-97061009D02*
X184553214Y-97156247D01*
X184553214Y-97156247D02*
X184553214Y-97394342D01*
X184553214Y-97394342D02*
X184505595Y-97489580D01*
X184505595Y-97489580D02*
X184457976Y-97537200D01*
X184457976Y-97537200D02*
X184362738Y-97584819D01*
X184362738Y-97584819D02*
X184124643Y-97584819D01*
X184124643Y-97584819D02*
X184029405Y-97537200D01*
X184029405Y-97537200D02*
X183981786Y-97489580D01*
D13*
X175544008Y-87129847D02*
X175544008Y-87453657D01*
X175544008Y-87453657D02*
X175563055Y-87491752D01*
X175563055Y-87491752D02*
X175582103Y-87510800D01*
X175582103Y-87510800D02*
X175620198Y-87529847D01*
X175620198Y-87529847D02*
X175696389Y-87529847D01*
X175696389Y-87529847D02*
X175734484Y-87510800D01*
X175734484Y-87510800D02*
X175753531Y-87491752D01*
X175753531Y-87491752D02*
X175772579Y-87453657D01*
X175772579Y-87453657D02*
X175772579Y-87129847D01*
X176172579Y-87529847D02*
X175944008Y-87529847D01*
X176058294Y-87529847D02*
X176058294Y-87129847D01*
X176058294Y-87129847D02*
X176020198Y-87186990D01*
X176020198Y-87186990D02*
X175982103Y-87225085D01*
X175982103Y-87225085D02*
X175944008Y-87244133D01*
D12*
X185567817Y-132024809D02*
X185567817Y-132429571D01*
X185567817Y-132429571D02*
X185591627Y-132477190D01*
X185591627Y-132477190D02*
X185615436Y-132501000D01*
X185615436Y-132501000D02*
X185663055Y-132524809D01*
X185663055Y-132524809D02*
X185758293Y-132524809D01*
X185758293Y-132524809D02*
X185805912Y-132501000D01*
X185805912Y-132501000D02*
X185829722Y-132477190D01*
X185829722Y-132477190D02*
X185853531Y-132429571D01*
X185853531Y-132429571D02*
X185853531Y-132024809D01*
X186044008Y-132024809D02*
X186353532Y-132024809D01*
X186353532Y-132024809D02*
X186186865Y-132215285D01*
X186186865Y-132215285D02*
X186258294Y-132215285D01*
X186258294Y-132215285D02*
X186305913Y-132239095D01*
X186305913Y-132239095D02*
X186329722Y-132262904D01*
X186329722Y-132262904D02*
X186353532Y-132310523D01*
X186353532Y-132310523D02*
X186353532Y-132429571D01*
X186353532Y-132429571D02*
X186329722Y-132477190D01*
X186329722Y-132477190D02*
X186305913Y-132501000D01*
X186305913Y-132501000D02*
X186258294Y-132524809D01*
X186258294Y-132524809D02*
X186115437Y-132524809D01*
X186115437Y-132524809D02*
X186067818Y-132501000D01*
X186067818Y-132501000D02*
X186044008Y-132477190D01*
D13*
X131642429Y-111505805D02*
X131499572Y-111458185D01*
X131499572Y-111458185D02*
X131261477Y-111458185D01*
X131261477Y-111458185D02*
X131166239Y-111505805D01*
X131166239Y-111505805D02*
X131118620Y-111553424D01*
X131118620Y-111553424D02*
X131071001Y-111648662D01*
X131071001Y-111648662D02*
X131071001Y-111743900D01*
X131071001Y-111743900D02*
X131118620Y-111839138D01*
X131118620Y-111839138D02*
X131166239Y-111886757D01*
X131166239Y-111886757D02*
X131261477Y-111934376D01*
X131261477Y-111934376D02*
X131451953Y-111981995D01*
X131451953Y-111981995D02*
X131547191Y-112029614D01*
X131547191Y-112029614D02*
X131594810Y-112077233D01*
X131594810Y-112077233D02*
X131642429Y-112172471D01*
X131642429Y-112172471D02*
X131642429Y-112267709D01*
X131642429Y-112267709D02*
X131594810Y-112362947D01*
X131594810Y-112362947D02*
X131547191Y-112410566D01*
X131547191Y-112410566D02*
X131451953Y-112458185D01*
X131451953Y-112458185D02*
X131213858Y-112458185D01*
X131213858Y-112458185D02*
X131071001Y-112410566D01*
X130356715Y-112458185D02*
X130356715Y-111743900D01*
X130356715Y-111743900D02*
X130404334Y-111601043D01*
X130404334Y-111601043D02*
X130499572Y-111505805D01*
X130499572Y-111505805D02*
X130642429Y-111458185D01*
X130642429Y-111458185D02*
X130737667Y-111458185D01*
X129928143Y-112362947D02*
X129880524Y-112410566D01*
X129880524Y-112410566D02*
X129785286Y-112458185D01*
X129785286Y-112458185D02*
X129547191Y-112458185D01*
X129547191Y-112458185D02*
X129451953Y-112410566D01*
X129451953Y-112410566D02*
X129404334Y-112362947D01*
X129404334Y-112362947D02*
X129356715Y-112267709D01*
X129356715Y-112267709D02*
X129356715Y-112172471D01*
X129356715Y-112172471D02*
X129404334Y-112029614D01*
X129404334Y-112029614D02*
X129975762Y-111458185D01*
X129975762Y-111458185D02*
X129356715Y-111458185D01*
D11*
X183578333Y-95899819D02*
X183245000Y-95423628D01*
X183006905Y-95899819D02*
X183006905Y-94899819D01*
X183006905Y-94899819D02*
X183387857Y-94899819D01*
X183387857Y-94899819D02*
X183483095Y-94947438D01*
X183483095Y-94947438D02*
X183530714Y-94995057D01*
X183530714Y-94995057D02*
X183578333Y-95090295D01*
X183578333Y-95090295D02*
X183578333Y-95233152D01*
X183578333Y-95233152D02*
X183530714Y-95328390D01*
X183530714Y-95328390D02*
X183483095Y-95376009D01*
X183483095Y-95376009D02*
X183387857Y-95423628D01*
X183387857Y-95423628D02*
X183006905Y-95423628D01*
X184149762Y-95328390D02*
X184054524Y-95280771D01*
X184054524Y-95280771D02*
X184006905Y-95233152D01*
X184006905Y-95233152D02*
X183959286Y-95137914D01*
X183959286Y-95137914D02*
X183959286Y-95090295D01*
X183959286Y-95090295D02*
X184006905Y-94995057D01*
X184006905Y-94995057D02*
X184054524Y-94947438D01*
X184054524Y-94947438D02*
X184149762Y-94899819D01*
X184149762Y-94899819D02*
X184340238Y-94899819D01*
X184340238Y-94899819D02*
X184435476Y-94947438D01*
X184435476Y-94947438D02*
X184483095Y-94995057D01*
X184483095Y-94995057D02*
X184530714Y-95090295D01*
X184530714Y-95090295D02*
X184530714Y-95137914D01*
X184530714Y-95137914D02*
X184483095Y-95233152D01*
X184483095Y-95233152D02*
X184435476Y-95280771D01*
X184435476Y-95280771D02*
X184340238Y-95328390D01*
X184340238Y-95328390D02*
X184149762Y-95328390D01*
X184149762Y-95328390D02*
X184054524Y-95376009D01*
X184054524Y-95376009D02*
X184006905Y-95423628D01*
X184006905Y-95423628D02*
X183959286Y-95518866D01*
X183959286Y-95518866D02*
X183959286Y-95709342D01*
X183959286Y-95709342D02*
X184006905Y-95804580D01*
X184006905Y-95804580D02*
X184054524Y-95852200D01*
X184054524Y-95852200D02*
X184149762Y-95899819D01*
X184149762Y-95899819D02*
X184340238Y-95899819D01*
X184340238Y-95899819D02*
X184435476Y-95852200D01*
X184435476Y-95852200D02*
X184483095Y-95804580D01*
X184483095Y-95804580D02*
X184530714Y-95709342D01*
X184530714Y-95709342D02*
X184530714Y-95518866D01*
X184530714Y-95518866D02*
X184483095Y-95423628D01*
X184483095Y-95423628D02*
X184435476Y-95376009D01*
X184435476Y-95376009D02*
X184340238Y-95328390D01*
D12*
X103374809Y-83479761D02*
X103731952Y-83479761D01*
X103731952Y-83479761D02*
X103803380Y-83503570D01*
X103803380Y-83503570D02*
X103851000Y-83551189D01*
X103851000Y-83551189D02*
X103874809Y-83622618D01*
X103874809Y-83622618D02*
X103874809Y-83670237D01*
X103874809Y-82979761D02*
X103874809Y-83265475D01*
X103874809Y-83122618D02*
X103374809Y-83122618D01*
X103374809Y-83122618D02*
X103446238Y-83170237D01*
X103446238Y-83170237D02*
X103493857Y-83217856D01*
X103493857Y-83217856D02*
X103517666Y-83265475D01*
X103874809Y-82503571D02*
X103874809Y-82789285D01*
X103874809Y-82646428D02*
X103374809Y-82646428D01*
X103374809Y-82646428D02*
X103446238Y-82694047D01*
X103446238Y-82694047D02*
X103493857Y-82741666D01*
X103493857Y-82741666D02*
X103517666Y-82789285D01*
X180677190Y-86533333D02*
X180701000Y-86557142D01*
X180701000Y-86557142D02*
X180724809Y-86628571D01*
X180724809Y-86628571D02*
X180724809Y-86676190D01*
X180724809Y-86676190D02*
X180701000Y-86747618D01*
X180701000Y-86747618D02*
X180653380Y-86795237D01*
X180653380Y-86795237D02*
X180605761Y-86819047D01*
X180605761Y-86819047D02*
X180510523Y-86842856D01*
X180510523Y-86842856D02*
X180439095Y-86842856D01*
X180439095Y-86842856D02*
X180343857Y-86819047D01*
X180343857Y-86819047D02*
X180296238Y-86795237D01*
X180296238Y-86795237D02*
X180248619Y-86747618D01*
X180248619Y-86747618D02*
X180224809Y-86676190D01*
X180224809Y-86676190D02*
X180224809Y-86628571D01*
X180224809Y-86628571D02*
X180248619Y-86557142D01*
X180248619Y-86557142D02*
X180272428Y-86533333D01*
X180224809Y-86366666D02*
X180224809Y-86057142D01*
X180224809Y-86057142D02*
X180415285Y-86223809D01*
X180415285Y-86223809D02*
X180415285Y-86152380D01*
X180415285Y-86152380D02*
X180439095Y-86104761D01*
X180439095Y-86104761D02*
X180462904Y-86080952D01*
X180462904Y-86080952D02*
X180510523Y-86057142D01*
X180510523Y-86057142D02*
X180629571Y-86057142D01*
X180629571Y-86057142D02*
X180677190Y-86080952D01*
X180677190Y-86080952D02*
X180701000Y-86104761D01*
X180701000Y-86104761D02*
X180724809Y-86152380D01*
X180724809Y-86152380D02*
X180724809Y-86295237D01*
X180724809Y-86295237D02*
X180701000Y-86342856D01*
X180701000Y-86342856D02*
X180677190Y-86366666D01*
X98449809Y-94166666D02*
X98806952Y-94166666D01*
X98806952Y-94166666D02*
X98878380Y-94190475D01*
X98878380Y-94190475D02*
X98926000Y-94238094D01*
X98926000Y-94238094D02*
X98949809Y-94309523D01*
X98949809Y-94309523D02*
X98949809Y-94357142D01*
X98664095Y-93857142D02*
X98640285Y-93904761D01*
X98640285Y-93904761D02*
X98616476Y-93928571D01*
X98616476Y-93928571D02*
X98568857Y-93952380D01*
X98568857Y-93952380D02*
X98545047Y-93952380D01*
X98545047Y-93952380D02*
X98497428Y-93928571D01*
X98497428Y-93928571D02*
X98473619Y-93904761D01*
X98473619Y-93904761D02*
X98449809Y-93857142D01*
X98449809Y-93857142D02*
X98449809Y-93761904D01*
X98449809Y-93761904D02*
X98473619Y-93714285D01*
X98473619Y-93714285D02*
X98497428Y-93690476D01*
X98497428Y-93690476D02*
X98545047Y-93666666D01*
X98545047Y-93666666D02*
X98568857Y-93666666D01*
X98568857Y-93666666D02*
X98616476Y-93690476D01*
X98616476Y-93690476D02*
X98640285Y-93714285D01*
X98640285Y-93714285D02*
X98664095Y-93761904D01*
X98664095Y-93761904D02*
X98664095Y-93857142D01*
X98664095Y-93857142D02*
X98687904Y-93904761D01*
X98687904Y-93904761D02*
X98711714Y-93928571D01*
X98711714Y-93928571D02*
X98759333Y-93952380D01*
X98759333Y-93952380D02*
X98854571Y-93952380D01*
X98854571Y-93952380D02*
X98902190Y-93928571D01*
X98902190Y-93928571D02*
X98926000Y-93904761D01*
X98926000Y-93904761D02*
X98949809Y-93857142D01*
X98949809Y-93857142D02*
X98949809Y-93761904D01*
X98949809Y-93761904D02*
X98926000Y-93714285D01*
X98926000Y-93714285D02*
X98902190Y-93690476D01*
X98902190Y-93690476D02*
X98854571Y-93666666D01*
X98854571Y-93666666D02*
X98759333Y-93666666D01*
X98759333Y-93666666D02*
X98711714Y-93690476D01*
X98711714Y-93690476D02*
X98687904Y-93714285D01*
X98687904Y-93714285D02*
X98664095Y-93761904D01*
D15*
%TO.C,C10*%
X175340580Y-78990000D02*
X175059420Y-78990000D01*
X175340580Y-80010000D02*
X175059420Y-80010000D01*
%TO.C,FB1*%
X123261549Y-106965000D02*
X122935991Y-106965000D01*
X123261549Y-107985000D02*
X122935991Y-107985000D01*
%TO.C,D4*%
X171490000Y-87540000D02*
X171490000Y-89010000D01*
X171490000Y-89010000D02*
X173775000Y-89010000D01*
X173775000Y-87540000D02*
X171490000Y-87540000D01*
%TO.C,C21*%
X127588770Y-117365580D02*
X127588770Y-117084420D01*
X128608770Y-117365580D02*
X128608770Y-117084420D01*
%TO.C,D1*%
X137525000Y-84590000D02*
X137525000Y-88450000D01*
X139525000Y-84590000D02*
X137525000Y-84590000D01*
X139525000Y-84590000D02*
X139525000Y-88450000D01*
%TO.C,R4*%
X173217258Y-90857500D02*
X172742742Y-90857500D01*
X173217258Y-91902500D02*
X172742742Y-91902500D01*
%TO.C,R27*%
X115638486Y-108484500D02*
X116113002Y-108484500D01*
X115638486Y-109529500D02*
X116113002Y-109529500D01*
%TO.C,R22*%
X131976270Y-105262742D02*
X131976270Y-105737258D01*
X133021270Y-105262742D02*
X133021270Y-105737258D01*
%TO.C,C18*%
X132714350Y-119140000D02*
X132433190Y-119140000D01*
X132714350Y-120160000D02*
X132433190Y-120160000D01*
%TO.C,J10*%
X99170000Y-88005000D02*
X99170000Y-86675000D01*
X100500000Y-88005000D02*
X99170000Y-88005000D01*
X101770000Y-85345000D02*
X119610000Y-85345000D01*
X101770000Y-88005000D02*
X101770000Y-85345000D01*
X101770000Y-88005000D02*
X119610000Y-88005000D01*
X119610000Y-88005000D02*
X119610000Y-85345000D01*
%TO.C,C1*%
X179334420Y-83215000D02*
X179615580Y-83215000D01*
X179334420Y-84235000D02*
X179615580Y-84235000D01*
D16*
%TO.C,L1*%
X173025000Y-82455000D02*
X177225000Y-82455000D01*
X173025000Y-86795000D02*
X177225000Y-86795000D01*
D15*
%TO.C,R15*%
X143797500Y-113312742D02*
X143797500Y-113787258D01*
X144842500Y-113312742D02*
X144842500Y-113787258D01*
%TO.C,C13*%
X147139420Y-109380000D02*
X147420580Y-109380000D01*
X147139420Y-110400000D02*
X147420580Y-110400000D01*
%TO.C,R30*%
X153729724Y-82752500D02*
X153220276Y-82752500D01*
X153729724Y-83797500D02*
X153220276Y-83797500D01*
%TO.C,C24*%
X115735164Y-111597000D02*
X116016324Y-111597000D01*
X115735164Y-112617000D02*
X116016324Y-112617000D01*
%TO.C,D10*%
X137115000Y-120650000D02*
X137115000Y-123110000D01*
X137115000Y-123110000D02*
X138585000Y-123110000D01*
X138585000Y-123110000D02*
X138585000Y-120650000D01*
%TO.C,C2*%
X179359420Y-84915000D02*
X179640580Y-84915000D01*
X179359420Y-85935000D02*
X179640580Y-85935000D01*
%TO.C,J9*%
X99170000Y-91730000D02*
X99170000Y-90400000D01*
X100500000Y-91730000D02*
X99170000Y-91730000D01*
X101770000Y-89070000D02*
X119610000Y-89070000D01*
X101770000Y-91730000D02*
X101770000Y-89070000D01*
X101770000Y-91730000D02*
X119610000Y-91730000D01*
X119610000Y-91730000D02*
X119610000Y-89070000D01*
%TO.C,U5*%
X145225000Y-86350000D02*
X145225000Y-84350000D01*
X146225000Y-83050000D02*
X146675000Y-82600000D01*
X146225000Y-87650000D02*
X146675000Y-88100000D01*
X149275000Y-82600000D02*
X146675000Y-82600000D01*
X149275000Y-88100000D02*
X146675000Y-88100000D01*
X149725000Y-83050000D02*
X149275000Y-82600000D01*
X149725000Y-87650000D02*
X149275000Y-88100000D01*
X150725000Y-86350000D02*
X150725000Y-84350000D01*
%TO.C,R10*%
X186619046Y-124052500D02*
X187128494Y-124052500D01*
X186619046Y-125097500D02*
X187128494Y-125097500D01*
%TO.C,C27*%
X115710164Y-119472000D02*
X115991324Y-119472000D01*
X115710164Y-120492000D02*
X115991324Y-120492000D01*
%TO.C,R24*%
X126761028Y-114052500D02*
X126286512Y-114052500D01*
X126761028Y-115097500D02*
X126286512Y-115097500D01*
D17*
%TO.C,J3*%
X92593500Y-105572800D02*
X92593500Y-121727200D01*
X92593500Y-121727200D02*
X104955426Y-121727200D01*
X104955426Y-105572800D02*
X92593500Y-105572800D01*
X107794572Y-121727200D02*
X114056500Y-121727200D01*
X114056500Y-105572800D02*
X107794572Y-105572800D01*
X114056500Y-121727200D02*
X114056500Y-105572800D01*
D18*
X110056000Y-103794800D02*
G75*
G02*
X109294000Y-103794800I-381000J0D01*
G01*
X109294000Y-103794800D02*
G75*
G02*
X110056000Y-103794800I381000J0D01*
G01*
D15*
%TO.C,C22*%
X121138770Y-117340580D02*
X121138770Y-117059420D01*
X122158770Y-117340580D02*
X122158770Y-117059420D01*
%TO.C,C14*%
X145939570Y-107377620D02*
X145939570Y-107658780D01*
X146959570Y-107377620D02*
X146959570Y-107658780D01*
%TO.C,R20*%
X137037070Y-105426742D02*
X137037070Y-105901258D01*
X138082070Y-105426742D02*
X138082070Y-105901258D01*
%TO.C,C16*%
X147641370Y-107403020D02*
X147641370Y-107684180D01*
X148661370Y-107403020D02*
X148661370Y-107684180D01*
%TO.C,D8*%
X180576970Y-94158400D02*
X180576970Y-97818400D01*
X182476970Y-94158400D02*
X180576970Y-94158400D01*
X182476970Y-94158400D02*
X182476970Y-97818400D01*
%TO.C,R11*%
X178263248Y-124027500D02*
X178772696Y-124027500D01*
X178263248Y-125072500D02*
X178772696Y-125072500D01*
%TO.C,C26*%
X115735164Y-114722000D02*
X116016324Y-114722000D01*
X115735164Y-115742000D02*
X116016324Y-115742000D01*
%TO.C,R7*%
X191095994Y-124027500D02*
X190586546Y-124027500D01*
X191095994Y-125072500D02*
X190586546Y-125072500D01*
%TO.C,C15*%
X147257380Y-117269800D02*
X146976220Y-117269800D01*
X147257380Y-118289800D02*
X146976220Y-118289800D01*
%TO.C,R5*%
X176438620Y-91905242D02*
X176438620Y-92379758D01*
X177483620Y-91905242D02*
X177483620Y-92379758D01*
%TO.C,C9*%
X176339350Y-94015000D02*
X176058190Y-94015000D01*
X176339350Y-95035000D02*
X176058190Y-95035000D01*
%TO.C,D11*%
X138691230Y-120650000D02*
X138691230Y-123110000D01*
X138691230Y-123110000D02*
X140161230Y-123110000D01*
X140161230Y-123110000D02*
X140161230Y-120650000D01*
%TO.C,C20*%
X122738770Y-117340580D02*
X122738770Y-117059420D01*
X123758770Y-117340580D02*
X123758770Y-117059420D01*
%TO.C,R17*%
X151286470Y-107704658D02*
X151286470Y-107230142D01*
X152331470Y-107704658D02*
X152331470Y-107230142D01*
%TO.C,R23*%
X124711512Y-108302500D02*
X125186028Y-108302500D01*
X124711512Y-109347500D02*
X125186028Y-109347500D01*
D13*
%TO.C,D6*%
X182670000Y-96180000D02*
G75*
G02*
X182570000Y-96180000I-50000J0D01*
G01*
X182570000Y-96180000D02*
G75*
G02*
X182670000Y-96180000I50000J0D01*
G01*
D15*
%TO.C,Y1*%
X145529400Y-110787200D02*
X145529400Y-114987200D01*
X148779400Y-110787200D02*
X145529400Y-110787200D01*
%TO.C,R16*%
X153140670Y-107704658D02*
X153140670Y-107230142D01*
X154185670Y-107704658D02*
X154185670Y-107230142D01*
%TO.C,IC1*%
X141115000Y-108335000D02*
X141115000Y-106925000D01*
X143435000Y-108325000D02*
X143435000Y-106925000D01*
X141165000Y-108705000D02*
X140835000Y-108945000D01*
X140835000Y-108465000D01*
X141165000Y-108705000D01*
G36*
X141165000Y-108705000D02*
G01*
X140835000Y-108945000D01*
X140835000Y-108465000D01*
X141165000Y-108705000D01*
G37*
%TO.C,C25*%
X115735164Y-117872000D02*
X116016324Y-117872000D01*
X115735164Y-118892000D02*
X116016324Y-118892000D01*
%TO.C,R2*%
X180617258Y-90557500D02*
X180142742Y-90557500D01*
X180617258Y-91602500D02*
X180142742Y-91602500D01*
%TO.C,R28*%
X115638486Y-113109500D02*
X116113002Y-113109500D01*
X115638486Y-114154500D02*
X116113002Y-114154500D01*
%TO.C,R6*%
X172742742Y-89237500D02*
X173217258Y-89237500D01*
X172742742Y-90282500D02*
X173217258Y-90282500D01*
%TO.C,C11*%
X183815580Y-124115000D02*
X183534420Y-124115000D01*
X183815580Y-125135000D02*
X183534420Y-125135000D01*
%TO.C,J1*%
X184180000Y-79430000D02*
X184180000Y-80030000D01*
X184420000Y-79670000D02*
X184420000Y-89950000D01*
X185020000Y-79430000D02*
X184180000Y-79430000D01*
X185080000Y-79670000D02*
X185080000Y-89950000D01*
X187280000Y-79670000D02*
X187280000Y-89950000D01*
X188564000Y-86340000D02*
X188506000Y-86281000D01*
X188804000Y-86170000D02*
X188711000Y-86076000D01*
X190849000Y-88625000D02*
X190756000Y-88531000D01*
X191055000Y-88420000D02*
X190996000Y-88361000D01*
X193080000Y-79670000D02*
X193080000Y-89950000D01*
X194330000Y-81020000D02*
X194330000Y-83520000D01*
X194330000Y-86100000D02*
X194330000Y-88600000D01*
X194830000Y-81020000D02*
X194330000Y-81020000D01*
X194830000Y-81020000D02*
X194830000Y-83520000D01*
X194830000Y-83520000D02*
X194330000Y-83520000D01*
X194830000Y-86100000D02*
X194330000Y-86100000D01*
X194830000Y-86100000D02*
X194830000Y-88600000D01*
X194830000Y-88600000D02*
X194330000Y-88600000D01*
X195140000Y-79670000D02*
X184420000Y-79670000D01*
X195140000Y-79670000D02*
X195140000Y-89950000D01*
X195140000Y-89950000D02*
X184420000Y-89950000D01*
X188099550Y-82299383D02*
G75*
G02*
X188296000Y-81481000I1680445J29385D01*
G01*
X188296648Y-83058712D02*
G75*
G02*
X188100000Y-82270000I1483352J788712D01*
G01*
X188990911Y-80786047D02*
G75*
G02*
X190569000Y-80786000I789089J-1483948D01*
G01*
X190569089Y-83753953D02*
G75*
G02*
X188991000Y-83754000I-789089J1483957D01*
G01*
X191263953Y-81480911D02*
G75*
G02*
X191264000Y-83059000I-1483948J-789089D01*
G01*
X191460000Y-87350000D02*
G75*
G02*
X188100000Y-87350000I-1680000J0D01*
G01*
X188100000Y-87350000D02*
G75*
G02*
X191460000Y-87350000I1680000J0D01*
G01*
%TO.C,R1*%
X178157500Y-88677258D02*
X178157500Y-88202742D01*
X179202500Y-88677258D02*
X179202500Y-88202742D01*
%TO.C,C7*%
X193158170Y-123990980D02*
X193158170Y-123709820D01*
X194178170Y-123990980D02*
X194178170Y-123709820D01*
%TO.C,C17*%
X134733420Y-121486200D02*
X135014580Y-121486200D01*
X134733420Y-122506200D02*
X135014580Y-122506200D01*
%TO.C,R3*%
X178001270Y-93937258D02*
X178001270Y-93462742D01*
X179046270Y-93937258D02*
X179046270Y-93462742D01*
%TO.C,C12*%
X175469350Y-124040000D02*
X175188190Y-124040000D01*
X175469350Y-125060000D02*
X175188190Y-125060000D01*
%TO.C,R21*%
X133501270Y-105262742D02*
X133501270Y-105737258D01*
X134546270Y-105262742D02*
X134546270Y-105737258D01*
%TO.C,R26*%
X115638486Y-116309500D02*
X116113002Y-116309500D01*
X115638486Y-117354500D02*
X116113002Y-117354500D01*
%TO.C,C6*%
X168730580Y-83160000D02*
X168449420Y-83160000D01*
X168730580Y-84180000D02*
X168449420Y-84180000D01*
%TO.C,C28*%
X153345003Y-84320000D02*
X153637537Y-84320000D01*
X153345003Y-85340000D02*
X153637537Y-85340000D01*
%TO.C,C5*%
X168851850Y-84915000D02*
X168570690Y-84915000D01*
X168851850Y-85935000D02*
X168570690Y-85935000D01*
%TO.C,J2*%
X189543770Y-91640000D02*
X191543770Y-91640000D01*
X189543770Y-101040000D02*
X191543770Y-101040000D01*
X193443770Y-91640000D02*
X195343770Y-91640000D01*
X193443770Y-101040000D02*
X195343770Y-101040000D01*
X195343770Y-101040000D02*
X195343770Y-91640000D01*
D13*
%TO.C,D7*%
X182690000Y-95300000D02*
G75*
G02*
X182590000Y-95300000I-50000J0D01*
G01*
X182590000Y-95300000D02*
G75*
G02*
X182690000Y-95300000I50000J0D01*
G01*
D15*
%TO.C,R25*%
X115613486Y-106959500D02*
X116088002Y-106959500D01*
X115613486Y-108004500D02*
X116088002Y-108004500D01*
%TO.C,U2*%
X168933770Y-102600000D02*
X168933770Y-104100000D01*
X168933770Y-121000000D02*
X168933770Y-119500000D01*
X168933770Y-121000000D02*
X169933770Y-121000000D01*
X169933770Y-102600000D02*
X168933770Y-102600000D01*
X194783770Y-102600000D02*
X188583770Y-102600000D01*
X194783770Y-102600000D02*
X194783770Y-121000000D01*
X194783770Y-121000000D02*
X188583770Y-121000000D01*
X188408770Y-102600000D02*
X187908770Y-102600000D01*
X187908770Y-102100000D01*
X188408770Y-102600000D01*
G36*
X188408770Y-102600000D02*
G01*
X187908770Y-102600000D01*
X187908770Y-102100000D01*
X188408770Y-102600000D01*
G37*
%TO.C,R9*%
X183853641Y-96645000D02*
X183546359Y-96645000D01*
X183853641Y-97405000D02*
X183546359Y-97405000D01*
%TO.C,C8*%
X176339350Y-95565000D02*
X176058190Y-95565000D01*
X176339350Y-96585000D02*
X176058190Y-96585000D01*
%TO.C,C19*%
X124338770Y-117340580D02*
X124338770Y-117059420D01*
X125358770Y-117340580D02*
X125358770Y-117059420D01*
%TO.C,U4*%
X175250000Y-127800000D02*
X175250000Y-129800000D01*
X176250000Y-126500000D02*
X176700000Y-126050000D01*
X176250000Y-131100000D02*
X176700000Y-131550000D01*
X176700000Y-126050000D02*
X179300000Y-126050000D01*
X176700000Y-131550000D02*
X179300000Y-131550000D01*
X179750000Y-126500000D02*
X179300000Y-126050000D01*
X179750000Y-131100000D02*
X179300000Y-131550000D01*
X180750000Y-127800000D02*
X180750000Y-129800000D01*
%TO.C,R29*%
X115638486Y-110034500D02*
X116113002Y-110034500D01*
X115638486Y-111079500D02*
X116113002Y-111079500D01*
%TO.C,D3*%
X177160000Y-80425000D02*
X173900000Y-80425000D01*
X177160000Y-82125000D02*
X173900000Y-82125000D01*
X177160000Y-82125000D02*
X177160000Y-80425000D01*
%TO.C,FB2*%
X128791270Y-120837258D02*
X128791270Y-120362742D01*
X129836270Y-120837258D02*
X129836270Y-120362742D01*
%TO.C,C4*%
X174866420Y-92089420D02*
X174866420Y-92370580D01*
X175886420Y-92089420D02*
X175886420Y-92370580D01*
%TO.C,D2*%
X139875000Y-81765000D02*
X139875000Y-85625000D01*
X141875000Y-81765000D02*
X139875000Y-81765000D01*
X141875000Y-81765000D02*
X141875000Y-85625000D01*
D19*
%TO.C,U$1*%
X130173770Y-109550000D02*
X130173770Y-115550000D01*
X130173770Y-115550000D02*
X130473770Y-115850000D01*
X130473770Y-109250000D02*
X130173770Y-109550000D01*
X130473770Y-115850000D02*
X136473770Y-115850000D01*
X136473770Y-109250000D02*
X130473770Y-109250000D01*
X136473770Y-115850000D02*
X136773770Y-115550000D01*
X136773770Y-109550000D02*
X136473770Y-109250000D01*
X136773770Y-115550000D02*
X136773770Y-109550000D01*
D20*
X137923770Y-116254000D02*
G75*
G02*
X137623770Y-116254000I-150000J0D01*
G01*
X137623770Y-116254000D02*
G75*
G02*
X137923770Y-116254000I150000J0D01*
G01*
D15*
%TO.C,D9*%
X140316230Y-120650000D02*
X140316230Y-123110000D01*
X140316230Y-123110000D02*
X141786230Y-123110000D01*
X141786230Y-123110000D02*
X141786230Y-120650000D01*
%TO.C,C23*%
X125988770Y-117340580D02*
X125988770Y-117059420D01*
X127008770Y-117340580D02*
X127008770Y-117059420D01*
D13*
%TO.C,D5*%
X182727500Y-98300000D02*
G75*
G02*
X182627500Y-98300000I-50000J0D01*
G01*
X182627500Y-98300000D02*
G75*
G02*
X182727500Y-98300000I50000J0D01*
G01*
D17*
%TO.C,U1*%
X175533346Y-88144600D02*
X175533346Y-89694000D01*
X177489146Y-89694000D02*
X177489146Y-88144600D01*
X177112972Y-87314274D02*
G75*
G02*
X176909772Y-87314274I-101600J0D01*
G01*
X176909772Y-87314274D02*
G75*
G02*
X177112972Y-87314274I101600J0D01*
G01*
D15*
%TO.C,U3*%
X183198770Y-127775000D02*
X183198770Y-129775000D01*
X184198770Y-126475000D02*
X184648770Y-126025000D01*
X184198770Y-131075000D02*
X184648770Y-131525000D01*
X184648770Y-126025000D02*
X187248770Y-126025000D01*
X184648770Y-131525000D02*
X187248770Y-131525000D01*
X187698770Y-126475000D02*
X187248770Y-126025000D01*
X187698770Y-131075000D02*
X187248770Y-131525000D01*
X188698770Y-127775000D02*
X188698770Y-129775000D01*
%TO.C,R8*%
X183898641Y-93895000D02*
X183591359Y-93895000D01*
X183898641Y-94655000D02*
X183591359Y-94655000D01*
%TO.C,J11*%
X104190000Y-84230000D02*
X104190000Y-82900000D01*
X105520000Y-84230000D02*
X104190000Y-84230000D01*
X106790000Y-81570000D02*
X119550000Y-81570000D01*
X106790000Y-84230000D02*
X106790000Y-81570000D01*
X106790000Y-84230000D02*
X119550000Y-84230000D01*
X119550000Y-84230000D02*
X119550000Y-81570000D01*
%TO.C,C3*%
X179881120Y-88349420D02*
X179881120Y-88630580D01*
X180901120Y-88349420D02*
X180901120Y-88630580D01*
%TO.C,J8*%
X99170000Y-95405000D02*
X99170000Y-94075000D01*
X100500000Y-95405000D02*
X99170000Y-95405000D01*
X101770000Y-92745000D02*
X119610000Y-92745000D01*
X101770000Y-95405000D02*
X101770000Y-92745000D01*
X101770000Y-95405000D02*
X119610000Y-95405000D01*
X119610000Y-95405000D02*
X119610000Y-92745000D01*
%TD*%
M02*
