%TF.GenerationSoftware,KiCad,Pcbnew,9.0.1*%
%TF.CreationDate,2025-04-25T09:38:52-03:00*%
%TF.ProjectId,A-NET,412d4e45-542e-46b6-9963-61645f706362,rev?*%
%TF.SameCoordinates,Original*%
%TF.FileFunction,Legend,Bot*%
%TF.FilePolarity,Positive*%
%FSLAX46Y46*%
G04 Gerber Fmt 4.6, Leading zero omitted, Abs format (unit mm)*
G04 Created by KiCad (PCBNEW 9.0.1) date 2025-04-25 09:38:52*
%MOMM*%
%LPD*%
G01*
G04 APERTURE LIST*
%ADD10C,0.150000*%
%ADD11C,0.508000*%
%ADD12C,0.203200*%
%ADD13C,0.120000*%
G04 APERTURE END LIST*
D10*
X139734819Y-120807142D02*
X139258628Y-120473809D01*
X139734819Y-120235714D02*
X138734819Y-120235714D01*
X138734819Y-120235714D02*
X138734819Y-120616666D01*
X138734819Y-120616666D02*
X138782438Y-120711904D01*
X138782438Y-120711904D02*
X138830057Y-120759523D01*
X138830057Y-120759523D02*
X138925295Y-120807142D01*
X138925295Y-120807142D02*
X139068152Y-120807142D01*
X139068152Y-120807142D02*
X139163390Y-120759523D01*
X139163390Y-120759523D02*
X139211009Y-120711904D01*
X139211009Y-120711904D02*
X139258628Y-120616666D01*
X139258628Y-120616666D02*
X139258628Y-120235714D01*
X139734819Y-121759523D02*
X139734819Y-121188095D01*
X139734819Y-121473809D02*
X138734819Y-121473809D01*
X138734819Y-121473809D02*
X138877676Y-121378571D01*
X138877676Y-121378571D02*
X138972914Y-121283333D01*
X138972914Y-121283333D02*
X139020533Y-121188095D01*
X138734819Y-122092857D02*
X138734819Y-122711904D01*
X138734819Y-122711904D02*
X139115771Y-122378571D01*
X139115771Y-122378571D02*
X139115771Y-122521428D01*
X139115771Y-122521428D02*
X139163390Y-122616666D01*
X139163390Y-122616666D02*
X139211009Y-122664285D01*
X139211009Y-122664285D02*
X139306247Y-122711904D01*
X139306247Y-122711904D02*
X139544342Y-122711904D01*
X139544342Y-122711904D02*
X139639580Y-122664285D01*
X139639580Y-122664285D02*
X139687200Y-122616666D01*
X139687200Y-122616666D02*
X139734819Y-122521428D01*
X139734819Y-122521428D02*
X139734819Y-122235714D01*
X139734819Y-122235714D02*
X139687200Y-122140476D01*
X139687200Y-122140476D02*
X139639580Y-122092857D01*
X138691467Y-79569873D02*
X139405752Y-79569873D01*
X139405752Y-79569873D02*
X139548609Y-79522254D01*
X139548609Y-79522254D02*
X139643848Y-79427016D01*
X139643848Y-79427016D02*
X139691467Y-79284159D01*
X139691467Y-79284159D02*
X139691467Y-79188921D01*
X138691467Y-80522254D02*
X138691467Y-80046064D01*
X138691467Y-80046064D02*
X139167657Y-79998445D01*
X139167657Y-79998445D02*
X139120038Y-80046064D01*
X139120038Y-80046064D02*
X139072419Y-80141302D01*
X139072419Y-80141302D02*
X139072419Y-80379397D01*
X139072419Y-80379397D02*
X139120038Y-80474635D01*
X139120038Y-80474635D02*
X139167657Y-80522254D01*
X139167657Y-80522254D02*
X139262895Y-80569873D01*
X139262895Y-80569873D02*
X139500990Y-80569873D01*
X139500990Y-80569873D02*
X139596228Y-80522254D01*
X139596228Y-80522254D02*
X139643848Y-80474635D01*
X139643848Y-80474635D02*
X139691467Y-80379397D01*
X139691467Y-80379397D02*
X139691467Y-80141302D01*
X139691467Y-80141302D02*
X139643848Y-80046064D01*
X139643848Y-80046064D02*
X139596228Y-79998445D01*
X161551467Y-79569873D02*
X162265752Y-79569873D01*
X162265752Y-79569873D02*
X162408609Y-79522254D01*
X162408609Y-79522254D02*
X162503848Y-79427016D01*
X162503848Y-79427016D02*
X162551467Y-79284159D01*
X162551467Y-79284159D02*
X162551467Y-79188921D01*
X161884800Y-80474635D02*
X162551467Y-80474635D01*
X161503848Y-80236540D02*
X162218133Y-79998445D01*
X162218133Y-79998445D02*
X162218133Y-80617492D01*
X141284819Y-120807142D02*
X140808628Y-120473809D01*
X141284819Y-120235714D02*
X140284819Y-120235714D01*
X140284819Y-120235714D02*
X140284819Y-120616666D01*
X140284819Y-120616666D02*
X140332438Y-120711904D01*
X140332438Y-120711904D02*
X140380057Y-120759523D01*
X140380057Y-120759523D02*
X140475295Y-120807142D01*
X140475295Y-120807142D02*
X140618152Y-120807142D01*
X140618152Y-120807142D02*
X140713390Y-120759523D01*
X140713390Y-120759523D02*
X140761009Y-120711904D01*
X140761009Y-120711904D02*
X140808628Y-120616666D01*
X140808628Y-120616666D02*
X140808628Y-120235714D01*
X141284819Y-121759523D02*
X141284819Y-121188095D01*
X141284819Y-121473809D02*
X140284819Y-121473809D01*
X140284819Y-121473809D02*
X140427676Y-121378571D01*
X140427676Y-121378571D02*
X140522914Y-121283333D01*
X140522914Y-121283333D02*
X140570533Y-121188095D01*
X140618152Y-122616666D02*
X141284819Y-122616666D01*
X140237200Y-122378571D02*
X140951485Y-122140476D01*
X140951485Y-122140476D02*
X140951485Y-122759523D01*
X143771467Y-127829873D02*
X144485752Y-127829873D01*
X144485752Y-127829873D02*
X144628609Y-127782254D01*
X144628609Y-127782254D02*
X144723848Y-127687016D01*
X144723848Y-127687016D02*
X144771467Y-127544159D01*
X144771467Y-127544159D02*
X144771467Y-127448921D01*
X143771467Y-128210826D02*
X143771467Y-128877492D01*
X143771467Y-128877492D02*
X144771467Y-128448921D01*
X101991657Y-98929619D02*
X102324990Y-98453428D01*
X102563085Y-98929619D02*
X102563085Y-97929619D01*
X102563085Y-97929619D02*
X102182133Y-97929619D01*
X102182133Y-97929619D02*
X102086895Y-97977238D01*
X102086895Y-97977238D02*
X102039276Y-98024857D01*
X102039276Y-98024857D02*
X101991657Y-98120095D01*
X101991657Y-98120095D02*
X101991657Y-98262952D01*
X101991657Y-98262952D02*
X102039276Y-98358190D01*
X102039276Y-98358190D02*
X102086895Y-98405809D01*
X102086895Y-98405809D02*
X102182133Y-98453428D01*
X102182133Y-98453428D02*
X102563085Y-98453428D01*
X101039276Y-98929619D02*
X101610704Y-98929619D01*
X101324990Y-98929619D02*
X101324990Y-97929619D01*
X101324990Y-97929619D02*
X101420228Y-98072476D01*
X101420228Y-98072476D02*
X101515466Y-98167714D01*
X101515466Y-98167714D02*
X101610704Y-98215333D01*
X100467847Y-98358190D02*
X100563085Y-98310571D01*
X100563085Y-98310571D02*
X100610704Y-98262952D01*
X100610704Y-98262952D02*
X100658323Y-98167714D01*
X100658323Y-98167714D02*
X100658323Y-98120095D01*
X100658323Y-98120095D02*
X100610704Y-98024857D01*
X100610704Y-98024857D02*
X100563085Y-97977238D01*
X100563085Y-97977238D02*
X100467847Y-97929619D01*
X100467847Y-97929619D02*
X100277371Y-97929619D01*
X100277371Y-97929619D02*
X100182133Y-97977238D01*
X100182133Y-97977238D02*
X100134514Y-98024857D01*
X100134514Y-98024857D02*
X100086895Y-98120095D01*
X100086895Y-98120095D02*
X100086895Y-98167714D01*
X100086895Y-98167714D02*
X100134514Y-98262952D01*
X100134514Y-98262952D02*
X100182133Y-98310571D01*
X100182133Y-98310571D02*
X100277371Y-98358190D01*
X100277371Y-98358190D02*
X100467847Y-98358190D01*
X100467847Y-98358190D02*
X100563085Y-98405809D01*
X100563085Y-98405809D02*
X100610704Y-98453428D01*
X100610704Y-98453428D02*
X100658323Y-98548666D01*
X100658323Y-98548666D02*
X100658323Y-98739142D01*
X100658323Y-98739142D02*
X100610704Y-98834380D01*
X100610704Y-98834380D02*
X100563085Y-98882000D01*
X100563085Y-98882000D02*
X100467847Y-98929619D01*
X100467847Y-98929619D02*
X100277371Y-98929619D01*
X100277371Y-98929619D02*
X100182133Y-98882000D01*
X100182133Y-98882000D02*
X100134514Y-98834380D01*
X100134514Y-98834380D02*
X100086895Y-98739142D01*
X100086895Y-98739142D02*
X100086895Y-98548666D01*
X100086895Y-98548666D02*
X100134514Y-98453428D01*
X100134514Y-98453428D02*
X100182133Y-98405809D01*
X100182133Y-98405809D02*
X100277371Y-98358190D01*
X142934819Y-120807142D02*
X142458628Y-120473809D01*
X142934819Y-120235714D02*
X141934819Y-120235714D01*
X141934819Y-120235714D02*
X141934819Y-120616666D01*
X141934819Y-120616666D02*
X141982438Y-120711904D01*
X141982438Y-120711904D02*
X142030057Y-120759523D01*
X142030057Y-120759523D02*
X142125295Y-120807142D01*
X142125295Y-120807142D02*
X142268152Y-120807142D01*
X142268152Y-120807142D02*
X142363390Y-120759523D01*
X142363390Y-120759523D02*
X142411009Y-120711904D01*
X142411009Y-120711904D02*
X142458628Y-120616666D01*
X142458628Y-120616666D02*
X142458628Y-120235714D01*
X142934819Y-121759523D02*
X142934819Y-121188095D01*
X142934819Y-121473809D02*
X141934819Y-121473809D01*
X141934819Y-121473809D02*
X142077676Y-121378571D01*
X142077676Y-121378571D02*
X142172914Y-121283333D01*
X142172914Y-121283333D02*
X142220533Y-121188095D01*
X142030057Y-122140476D02*
X141982438Y-122188095D01*
X141982438Y-122188095D02*
X141934819Y-122283333D01*
X141934819Y-122283333D02*
X141934819Y-122521428D01*
X141934819Y-122521428D02*
X141982438Y-122616666D01*
X141982438Y-122616666D02*
X142030057Y-122664285D01*
X142030057Y-122664285D02*
X142125295Y-122711904D01*
X142125295Y-122711904D02*
X142220533Y-122711904D01*
X142220533Y-122711904D02*
X142363390Y-122664285D01*
X142363390Y-122664285D02*
X142934819Y-122092857D01*
X142934819Y-122092857D02*
X142934819Y-122711904D01*
X102166657Y-99293819D02*
X102499990Y-98817628D01*
X102738085Y-99293819D02*
X102738085Y-98293819D01*
X102738085Y-98293819D02*
X102357133Y-98293819D01*
X102357133Y-98293819D02*
X102261895Y-98341438D01*
X102261895Y-98341438D02*
X102214276Y-98389057D01*
X102214276Y-98389057D02*
X102166657Y-98484295D01*
X102166657Y-98484295D02*
X102166657Y-98627152D01*
X102166657Y-98627152D02*
X102214276Y-98722390D01*
X102214276Y-98722390D02*
X102261895Y-98770009D01*
X102261895Y-98770009D02*
X102357133Y-98817628D01*
X102357133Y-98817628D02*
X102738085Y-98817628D01*
X101214276Y-99293819D02*
X101785704Y-99293819D01*
X101499990Y-99293819D02*
X101499990Y-98293819D01*
X101499990Y-98293819D02*
X101595228Y-98436676D01*
X101595228Y-98436676D02*
X101690466Y-98531914D01*
X101690466Y-98531914D02*
X101785704Y-98579533D01*
X100738085Y-99293819D02*
X100547609Y-99293819D01*
X100547609Y-99293819D02*
X100452371Y-99246200D01*
X100452371Y-99246200D02*
X100404752Y-99198580D01*
X100404752Y-99198580D02*
X100309514Y-99055723D01*
X100309514Y-99055723D02*
X100261895Y-98865247D01*
X100261895Y-98865247D02*
X100261895Y-98484295D01*
X100261895Y-98484295D02*
X100309514Y-98389057D01*
X100309514Y-98389057D02*
X100357133Y-98341438D01*
X100357133Y-98341438D02*
X100452371Y-98293819D01*
X100452371Y-98293819D02*
X100642847Y-98293819D01*
X100642847Y-98293819D02*
X100738085Y-98341438D01*
X100738085Y-98341438D02*
X100785704Y-98389057D01*
X100785704Y-98389057D02*
X100833323Y-98484295D01*
X100833323Y-98484295D02*
X100833323Y-98722390D01*
X100833323Y-98722390D02*
X100785704Y-98817628D01*
X100785704Y-98817628D02*
X100738085Y-98865247D01*
X100738085Y-98865247D02*
X100642847Y-98912866D01*
X100642847Y-98912866D02*
X100452371Y-98912866D01*
X100452371Y-98912866D02*
X100357133Y-98865247D01*
X100357133Y-98865247D02*
X100309514Y-98817628D01*
X100309514Y-98817628D02*
X100261895Y-98722390D01*
X170695467Y-127829873D02*
X171409752Y-127829873D01*
X171409752Y-127829873D02*
X171552609Y-127782254D01*
X171552609Y-127782254D02*
X171647848Y-127687016D01*
X171647848Y-127687016D02*
X171695467Y-127544159D01*
X171695467Y-127544159D02*
X171695467Y-127448921D01*
X170695467Y-128734635D02*
X170695467Y-128544159D01*
X170695467Y-128544159D02*
X170743086Y-128448921D01*
X170743086Y-128448921D02*
X170790705Y-128401302D01*
X170790705Y-128401302D02*
X170933562Y-128306064D01*
X170933562Y-128306064D02*
X171124038Y-128258445D01*
X171124038Y-128258445D02*
X171504990Y-128258445D01*
X171504990Y-128258445D02*
X171600228Y-128306064D01*
X171600228Y-128306064D02*
X171647848Y-128353683D01*
X171647848Y-128353683D02*
X171695467Y-128448921D01*
X171695467Y-128448921D02*
X171695467Y-128639397D01*
X171695467Y-128639397D02*
X171647848Y-128734635D01*
X171647848Y-128734635D02*
X171600228Y-128782254D01*
X171600228Y-128782254D02*
X171504990Y-128829873D01*
X171504990Y-128829873D02*
X171266895Y-128829873D01*
X171266895Y-128829873D02*
X171171657Y-128782254D01*
X171171657Y-128782254D02*
X171124038Y-128734635D01*
X171124038Y-128734635D02*
X171076419Y-128639397D01*
X171076419Y-128639397D02*
X171076419Y-128448921D01*
X171076419Y-128448921D02*
X171124038Y-128353683D01*
X171124038Y-128353683D02*
X171171657Y-128306064D01*
X171171657Y-128306064D02*
X171266895Y-128258445D01*
D11*
%TO.C,J3*%
X110056000Y-103794800D02*
G75*
G02*
X109294000Y-103794800I-381000J0D01*
G01*
X109294000Y-103794800D02*
G75*
G02*
X110056000Y-103794800I381000J0D01*
G01*
D12*
%TO.C,SJ1*%
X128253770Y-113444000D02*
X128253770Y-111920000D01*
X128507770Y-113698000D02*
X131301770Y-113698000D01*
X131301770Y-111666000D02*
X128507770Y-111666000D01*
X131555770Y-113444000D02*
X131555770Y-111920000D01*
X128253770Y-111920000D02*
G75*
G02*
X128507770Y-111666000I254000J0D01*
G01*
X128507770Y-113698000D02*
G75*
G02*
X128253770Y-113444000I0J254000D01*
G01*
X131301770Y-111666000D02*
G75*
G02*
X131555770Y-111920000I0J-254000D01*
G01*
X131555770Y-113444000D02*
G75*
G02*
X131301770Y-113698000I-254000J0D01*
G01*
%TO.C,SJ3*%
X128279772Y-108914998D02*
X128279772Y-107390998D01*
X128533772Y-109168998D02*
X131327772Y-109168998D01*
X131327772Y-107136998D02*
X128533772Y-107136998D01*
X131581772Y-108914998D02*
X131581772Y-107390998D01*
X128279772Y-107390998D02*
G75*
G02*
X128533772Y-107136998I254000J0D01*
G01*
X128533772Y-109168998D02*
G75*
G02*
X128279772Y-108914998I0J254000D01*
G01*
X131327772Y-107136998D02*
G75*
G02*
X131581772Y-107390998I0J-254000D01*
G01*
X131581772Y-108914998D02*
G75*
G02*
X131327772Y-109168998I-254000J0D01*
G01*
%TO.C,SJ2*%
X128249375Y-111164000D02*
X128249375Y-109640000D01*
X128503375Y-111418000D02*
X131297375Y-111418000D01*
X131297375Y-109386000D02*
X128503375Y-109386000D01*
X131551375Y-111164000D02*
X131551375Y-109640000D01*
X128249375Y-109640000D02*
G75*
G02*
X128503375Y-109386000I254000J0D01*
G01*
X128503375Y-111418000D02*
G75*
G02*
X128249375Y-111164000I0J254000D01*
G01*
X131297375Y-109386000D02*
G75*
G02*
X131551375Y-109640000I0J-254000D01*
G01*
X131551375Y-111164000D02*
G75*
G02*
X131297375Y-111418000I-254000J0D01*
G01*
D13*
%TO.C,R13*%
X137327500Y-121195276D02*
X137327500Y-121704724D01*
X138372500Y-121195276D02*
X138372500Y-121704724D01*
%TO.C,J5*%
X122876648Y-78573207D02*
X122876648Y-81233207D01*
X122876648Y-78573207D02*
X135636648Y-78573207D01*
X122876648Y-81233207D02*
X135636648Y-81233207D01*
X135636648Y-78573207D02*
X135636648Y-81233207D01*
X138236648Y-79903207D02*
X138236648Y-81233207D01*
X138236648Y-81233207D02*
X136906648Y-81233207D01*
%TO.C,J4*%
X140656648Y-78573207D02*
X140656648Y-81233207D01*
X140656648Y-78573207D02*
X158496648Y-78573207D01*
X140656648Y-81233207D02*
X158496648Y-81233207D01*
X158496648Y-78573207D02*
X158496648Y-81233207D01*
X161096648Y-79903207D02*
X161096648Y-81233207D01*
X161096648Y-81233207D02*
X159766648Y-81233207D01*
%TO.C,R14*%
X138877500Y-121195276D02*
X138877500Y-121704724D01*
X139922500Y-121195276D02*
X139922500Y-121704724D01*
%TO.C,J7*%
X122876648Y-126833207D02*
X122876648Y-129493207D01*
X122876648Y-126833207D02*
X140716648Y-126833207D01*
X122876648Y-129493207D02*
X140716648Y-129493207D01*
X140716648Y-126833207D02*
X140716648Y-129493207D01*
X143316648Y-128163207D02*
X143316648Y-129493207D01*
X143316648Y-129493207D02*
X141986648Y-129493207D01*
%TO.C,R18*%
X101761058Y-99477300D02*
X101286542Y-99477300D01*
X101761058Y-100522300D02*
X101286542Y-100522300D01*
%TO.C,R12*%
X140527500Y-121195276D02*
X140527500Y-121704724D01*
X141572500Y-121195276D02*
X141572500Y-121704724D01*
%TO.C,R19*%
X101761058Y-96886500D02*
X101286542Y-96886500D01*
X101761058Y-97931500D02*
X101286542Y-97931500D01*
%TO.C,J6*%
X144720648Y-126833207D02*
X144720648Y-129493207D01*
X144720648Y-126833207D02*
X167640648Y-126833207D01*
X144720648Y-129493207D02*
X167640648Y-129493207D01*
X167640648Y-126833207D02*
X167640648Y-129493207D01*
X170240648Y-128163207D02*
X170240648Y-129493207D01*
X170240648Y-129493207D02*
X168910648Y-129493207D01*
%TD*%
M02*
